<?xml version="1.0" encoding="UTF-8" standalone="no"?>
<!-- Created with Inkscape (http://www.inkscape.org/) -->

<svg
   xmlns:dc="http://purl.org/dc/elements/1.1/"
   xmlns:cc="http://creativecommons.org/ns#"
   xmlns:rdf="http://www.w3.org/1999/02/22-rdf-syntax-ns#"
   xmlns:svg="http://www.w3.org/2000/svg"
   xmlns="http://www.w3.org/2000/svg"
   xmlns:sodipodi="http://sodipodi.sourceforge.net/DTD/sodipodi-0.dtd"
   xmlns:inkscape="http://www.inkscape.org/namespaces/inkscape"
   width="100mm"
   height="100mm"
   viewBox="0 0 354.33071 354.33071"
   id="svg2"
   version="1.1"
   inkscape:version="0.91 r13725"
   sodipodi:docname="logo.svg"
   enable-background="new"
   inkscape:export-filename="/home/vacoo/Документы/Проекты/Музеи Республики Саха (Якутия) Виртуальные туры/logo.png.png"
   inkscape:export-xdpi="90"
   inkscape:export-ydpi="90">
  <defs
     id="defs4" />
  <sodipodi:namedview
     id="base"
     pagecolor="#ffffff"
     bordercolor="#666666"
     borderopacity="1.0"
     inkscape:pageopacity="0.0"
     inkscape:pageshadow="2"
     inkscape:zoom="0.70710678"
     inkscape:cx="-46.524433"
     inkscape:cy="302.31886"
     inkscape:document-units="px"
     inkscape:current-layer="layer1"
     showgrid="false"
     inkscape:window-width="1366"
     inkscape:window-height="705"
     inkscape:window-x="0"
     inkscape:window-y="0"
     inkscape:window-maximized="1" />
  <metadata
     id="metadata7">
    <rdf:RDF>
      <cc:Work
         rdf:about="">
        <dc:format>image/svg+xml</dc:format>
        <dc:type
           rdf:resource="http://purl.org/dc/dcmitype/StillImage" />
        <dc:title />
      </cc:Work>
    </rdf:RDF>
  </metadata>
  <g
     inkscape:label="Layer 1"
     inkscape:groupmode="layer"
     id="layer1"
     style="display:inline;opacity:1"
     transform="translate(0,-698.0315)">
    <path
       style="opacity:0.65499998;fill:#ff9955;fill-opacity:1;stroke:none"
       d="m 32.844547,803.85266 0,23.06526 60.5063,0 0,-23.06526 z m 8.155467,23.07013 0,143.78521 c 43.626853,0 23.126612,0.26353 43.626853,0 l 0,-143.78521 z"
       id="rect3362"
       inkscape:connector-curvature="0"
       sodipodi:nodetypes="cccccccccc" />
    <path
       style="opacity:0.65499998;fill:#ff7f2a;fill-opacity:1;stroke:none"
       d="m 17.835909,753.11032 0,29.35663 276.324061,0 0,12.33147 40.93398,0 0,-12.33497 0,-29.35313 -152.6363,-31.42196 z m -0.0072,29.36016 0,12.33495 40.933972,0 0,-12.33495 z"
       id="rect3409"
       inkscape:connector-curvature="0"
       sodipodi:nodetypes="cccccccccccccc" />
    <path
       style="display:inline;opacity:0.65499998;fill:#ff9955;fill-opacity:1;stroke:none"
       d="m 259.86817,804.02852 0,23.06526 60.5063,0 0,-23.06526 z m 8.15547,23.07013 0,143.78521 c 43.62685,0 23.12661,0.26353 43.62685,0 l 0,-143.78521 z"
       id="rect3362-3"
       inkscape:connector-curvature="0"
       sodipodi:nodetypes="cccccccccc" />
    <path
       style="display:inline;opacity:0.65499998;fill:#ff9955;fill-opacity:1;stroke:none"
       d="M 41.050781 272.4043 C 41.050781 287.03924 41.042917 281.91059 41.050781 287.03906 L 31.439453 287.03906 C 31.439453 302.74826 31.427253 295.41315 31.439453 302.74805 L 320.93945 302.74805 L 320.93945 287.03906 L 311.55078 287.03906 L 311.55078 272.4043 L 41.050781 272.4043 z "
       transform="translate(0,698.0315)"
       id="rect3362-36" />
    <path
       style="display:inline;opacity:0.65499998;fill:#ff6600;fill-opacity:1;stroke:none"
       d="M 20.378906 302.66406 C 20.378906 316.49621 20.380477 314.7739 20.378906 316.49609 L 9.0058594 316.49609 C 9.0058594 343.20529 8.9917864 330.73408 9.0058594 343.20508 L 343.00586 343.20508 L 343.00586 316.49609 L 331.75195 316.49609 L 331.75195 302.66406 L 20.378906 302.66406 z "
       transform="translate(0,698.0315)"
       id="rect3362-36-5-6" />
    <path
       style="display:inline;opacity:0.65499998;fill:#ff9955;fill-opacity:1;stroke:none"
       d="m 205.71593,792.53414 0,18.48318 44.94996,0 0,-18.48318 z m 6.05868,18.48709 0,144.23483 c 32.41026,0 17.18069,0.21118 32.41026,0 l 0,-144.23483 z"
       id="rect3362-3-9"
       inkscape:connector-curvature="0"
       sodipodi:nodetypes="cccccccccc" />
    <path
       style="display:inline;opacity:0.65499998;fill:#ff9955;fill-opacity:1;stroke:none"
       d="m 102.02502,791.84655 0,18.48318 44.94996,0 0,-18.48318 z m 6.05868,18.48709 0,144.23483 c 32.41026,0 17.18069,0.21118 32.41026,0 l 0,-144.23483 z"
       id="rect3362-3-9-1"
       inkscape:connector-curvature="0"
       sodipodi:nodetypes="cccccccccc" />
  </g>
  <g
     inkscape:groupmode="layer"
     id="layer2"
     inkscape:label="Layer 2"
     transform="translate(0,-698.0315)"
     style="opacity:1" />
</svg>
