<?xml version="1.0" standalone="no"?>
<!DOCTYPE svg PUBLIC "-//W3C//DTD SVG 1.1//EN" "http://www.w3.org/Graphics/SVG/1.1/DTD/svg11.dtd" >
<svg xmlns="http://www.w3.org/2000/svg" xmlns:xlink="http://www.w3.org/1999/xlink" version="1.1">
<metadata>
Created by FontForge 20161003 at Fri Jun  7 15:44:57 2019
 By www-data
Copyright 2011 The Alegreya Project Authors (https://github.com/huertatipografica/Alegreya)
</metadata>
<defs>
<font id="AlegreyaSCRegular" horiz-adv-x="0" >
  <font-face 
    font-family="AlegreyaSCRegular"
    font-weight="400"
    font-stretch="normal"
    units-per-em="1000"
    panose-1="0 0 5 0 0 0 0 0 0 0"
    ascent="800"
    descent="-200"
    x-height="504"
    cap-height="646"
    bbox="-395 -293 1425 961.69"
    underline-thickness="55"
    underline-position="-268"
    unicode-range="U+000D-FB02"
  />
<missing-glyph horiz-adv-x="641" 
d="M336 228l321 -321l-16 -16l-321 321l-321 -321l-16 16l321 321l-321 321l16 16l321 -321l321 321l16 -16z" />
    <glyph glyph-name="Idieresis" unicode="&#xa8;I" horiz-adv-x="361" 
d="M62 34q47 9 63.5 26.5t16.5 59.5l1 420q0 32 -7.5 43t-29.5 11l-42 -2l-2 4l7 44q16 0 25 -1l94 -2q45 0 115 9l-4 -45q-41 -5 -55.5 -16.5t-16.5 -40.5q-6 -117 -10 -244.5t-4 -187.5q0 -41 9 -54.5t35 -13.5q17 0 53 3l2 -4l-9 -46q-14 0 -22 1q-70 2 -109 2
q-49 0 -116 -12zM63 728q-11 13 -11 30q0 21 14.5 35.5t35.5 14.5q19 0 30 -12.5t11 -30.5q0 -21 -14.5 -35.5t-35.5 -14.5q-19 0 -30 13zM229 728q-11 13 -11 30q0 21 14.5 35.5t35.5 14.5q19 0 30 -12.5t11 -30.5q0 -21 -14.5 -35.5t-35.5 -14.5q-19 0 -30 13z" />
    <glyph glyph-name="Odieresis" unicode="&#xa8;O" horiz-adv-x="692" 
d="M173 27q-63 39 -98 109.5t-35 160.5q0 98 43.5 178.5t119 127t166.5 46.5q83 0 147 -39t100 -109t36 -160q0 -98 -44.5 -179t-121 -127.5t-169.5 -46.5q-81 0 -144 39zM460 72q49 33 76 92t27 135q0 85 -29 150.5t-80.5 102.5t-118.5 37q-61 0 -108.5 -33t-74 -92
t-26.5 -135q0 -85 28 -150.5t78.5 -102.5t115.5 -37q63 0 112 33zM224 728q-11 13 -11 30q0 21 14.5 35.5t35.5 14.5q19 0 30 -12.5t11 -30.5q0 -21 -14.5 -35.5t-35.5 -14.5q-19 0 -30 13zM390 728q-11 13 -11 30q0 21 14.5 35.5t35.5 14.5q19 0 30 -12.5t11 -30.5
q0 -21 -14.5 -35.5t-35.5 -14.5q-19 0 -30 13z" />
    <glyph glyph-name="Yacute" unicode="&#xb4;Y" horiz-adv-x="538" 
d="M150 34q36 7 52 18t21 30t5 60v44q0 31 -6 54.5t-23 58.5l-90 183q-26 53 -37 71.5t-31 29.5t-58 14l-2 4l6 39q11 -1 42 -2t68 -1q35 0 81.5 3.5t60.5 4.5l3 -7l-3 -35q-45 -4 -60.5 -11.5t-15.5 -24.5q0 -13 25 -71t51.5 -114t35.5 -73h5l114 212q16 29 16 50
q0 26 -63 30l-2 4l6 39q12 -1 50 -4t61 -3q24 0 53.5 1.5t38.5 2.5l4 -7l-6 -37q-32 -6 -50 -16.5t-31.5 -30t-39.5 -65.5q-6 -12 -10 -18l-100 -176q-13 -23 -16.5 -52t-5.5 -105v-22q-1 -39 8.5 -53.5t35.5 -14.5q16 0 30 1t19 2l2 -4l-9 -46q-14 1 -51.5 2t-75.5 1
q-31 0 -67 -5t-47 -7zM227 708l-6 24q59 31 120 65t79 44l9 -6l16 -48l-4 -10q-17 -6 -78.5 -27.5t-127.5 -46.5z" />
    <glyph glyph-name="idieresis" unicode="&#xa8;i" horiz-adv-x="319" 
d="M54 594q-11 13 -11 30q0 21 14.5 35.5t35.5 14.5q19 0 30 -12.5t11 -30.5q0 -21 -14.5 -35.5t-35.5 -14.5q-19 0 -30 13zM200 594q-11 13 -11 30q0 21 14.5 35.5t35.5 14.5q19 0 30 -12.5t11 -30.5q0 -21 -14.5 -35.5t-35.5 -14.5q-19 0 -30 13zM58 32q38 7 51 20.5
t13 46.5l1 318q0 25 -6 33.5t-24 8.5l-33 -1l-2 4l5 38q6 0 32.5 -1t69.5 -1q23 0 56.5 3t43.5 4l-4 -41q-33 -4 -44 -12.5t-13 -31.5q-4 -80 -7.5 -177t-3.5 -150q0 -32 7 -43t28 -11q14 0 25.5 1t15.5 2l2 -4l-7 -40q-12 0 -45 1t-66 1q-27 0 -58.5 -3.5t-41.5 -5.5z" />
    <glyph glyph-name="odieresis" unicode="&#xa8;o" horiz-adv-x="585" 
d="M175 604q-11 13 -11 30q0 21 14.5 35.5t35.5 14.5q19 0 30 -12.5t11 -30.5q0 -21 -14.5 -35.5t-35.5 -14.5q-19 0 -30 13zM341 604q-11 13 -11 30q0 21 14.5 35.5t35.5 14.5q19 0 30 -12.5t11 -30.5q0 -21 -14.5 -35.5t-35.5 -14.5q-19 0 -30 13zM150.5 21
q-52.5 30 -81 85t-28.5 127q0 78 35.5 140.5t97 98t137.5 35.5q69 0 122 -30t82 -84.5t29 -126.5q0 -78 -35.5 -140.5t-98 -98.5t-139.5 -36q-68 0 -120.5 30zM413 91.5q45 52.5 45 139.5q0 66 -21.5 116t-61 77t-91.5 27q-71 0 -114.5 -52t-43.5 -139q0 -66 21 -116
t59.5 -77.5t88.5 -27.5q73 0 118 52.5z" />
    <glyph glyph-name="yacute" unicode="&#xb4;y" horiz-adv-x="475" 
d="M159 568l-20 19q45 49 91 103t59 70l10 -2l38 -41l-1 -11q-15 -11 -65 -52t-103 -88zM133 32q30 5 44 13t18 23t4 45v31q0 23 -5 41t-19 45l-75 144q-19 36 -29 50.5t-26 23.5t-46 12l-2 4l6 36q9 0 36.5 -1t57.5 -1q28 0 68 2.5t52 3.5l3 -6l-3 -33q-34 -2 -46.5 -7.5
t-12.5 -19.5q0 -13 35.5 -86t50.5 -102h5l86 154q13 23 13 38q0 19 -49 22l-2 3l5 36q6 0 40 -2.5t56 -2.5q26 0 48 1t30 2l3 -6l-5 -34q-27 -6 -42 -16t-26.5 -26t-37.5 -59l-81 -138q-11 -21 -14 -46t-3 -90q0 -26 8 -36t29 -10q13 0 24.5 1t15.5 1l2 -3l-8 -42
q-12 1 -45 2t-67 1q-26 0 -59 -3.5t-43 -5.5z" />
    <glyph glyph-name="Itilde" unicode="&#x7e;I" horiz-adv-x="361" 
d="M62 34q47 9 63.5 26.5t16.5 59.5l1 420q0 32 -7.5 43t-29.5 11l-42 -2l-2 4l7 44q16 0 25 -1l94 -2q45 0 115 9l-4 -45q-41 -5 -55.5 -16.5t-16.5 -40.5q-6 -117 -10 -244.5t-4 -187.5q0 -41 9 -54.5t35 -13.5q17 0 53 3l2 -4l-9 -46q-14 0 -22 1q-70 2 -109 2
q-49 0 -116 -12zM26 737v5l76 89l16 4q18 0 68 -18q9 -3 29 -9t29 -6q10 0 24 12t25 25.5t14 17.5h6l22 -21v-5l-76 -89l-16 -4q-18 0 -68 18q-9 3 -29 9t-29 6q-11 0 -25 -12t-24.5 -25.5t-13.5 -17.5h-6z" />
    <glyph glyph-name="itilde" unicode="&#x7e;i" horiz-adv-x="319" 
d="M9 607v5l76 89l16 4q18 0 68 -18q9 -3 29 -9t29 -6q10 0 24 12t25 25.5t14 17.5h6l22 -21v-5l-76 -89l-16 -4q-18 0 -68 18q-9 3 -29 9t-29 6q-11 0 -25 -12t-24.5 -25.5t-13.5 -17.5h-6zM58 32q38 7 51 20.5t13 46.5l1 318q0 25 -6 33.5t-24 8.5l-33 -1l-2 4l5 38
q6 0 32.5 -1t69.5 -1q23 0 56.5 3t43.5 4l-4 -41q-33 -4 -44 -12.5t-13 -31.5q-4 -80 -7.5 -177t-3.5 -150q0 -32 7 -43t28 -11q14 0 25.5 1t15.5 2l2 -4l-7 -40q-12 0 -45 1t-66 1q-27 0 -58.5 -3.5t-41.5 -5.5z" />
    <glyph glyph-name="Utilde" unicode="&#x7e;U" horiz-adv-x="681" 
d="M165 45.5q-57 57.5 -57 163.5v331q0 32 -7.5 43t-29.5 11q-10 0 -20 -1t-14 -1l-2 4l7 44q12 -1 45.5 -2t67.5 -1q27 0 61 3.5t44 5.5l-4 -45q-37 -5 -49.5 -16.5t-14.5 -40.5l-8 -294q0 -99 43 -152t124 -53q82 0 125 43.5t43 125.5q-1 80 -3 182.5t-3 143.5
q-2 35 -8.5 44.5t-28.5 9.5q-12 0 -25 -1t-18 -1l-2 4l7 44q12 -1 45.5 -2t67.5 -1q27 0 57.5 3.5t39.5 5.5l-4 -45q-30 -4 -44.5 -9.5t-19.5 -16t-5 -31.5v-336q0 -105 -65 -162.5t-183 -57.5q-105 0 -162 57.5zM177 747v5l76 89l16 4q18 0 68 -18q9 -3 29 -9t29 -6
q10 0 24 12t25 25.5t14 17.5h6l22 -21v-5l-76 -89l-16 -4q-18 0 -68 18q-9 3 -29 9t-29 6q-11 0 -25 -12t-24.5 -25.5t-13.5 -17.5h-6z" />
    <glyph glyph-name="utilde" unicode="&#x7e;u" horiz-adv-x="575" 
d="M128 607v5l76 89l16 4q18 0 68 -18q9 -3 29 -9t29 -6q10 0 24 12t25 25.5t14 17.5h6l22 -21v-5l-76 -89l-16 -4q-18 0 -68 18q-9 3 -29 9t-29 6q-11 0 -25 -12t-24.5 -25.5t-13.5 -17.5h-6zM141.5 35q-46.5 44 -46.5 127v255q0 25 -6 33.5t-24 8.5l-27 -1l-2 3l6 39
q11 0 40 -1t59 -1q22 0 51 2.5t38 3.5l-4 -40q-29 -4 -39 -13t-12 -31l-6 -229q0 -71 33 -109.5t95 -38.5q63 0 95.5 31.5t32.5 91.5q0 62 -1.5 140.5t-2.5 110.5q-2 27 -7 34.5t-22 7.5l-34 -1l-1 3l6 39q10 0 37.5 -1t55.5 -1q23 0 49.5 2.5t34.5 3.5l-3 -40
q-35 -5 -45 -13t-10 -30v-256q0 -83 -53.5 -128.5t-151.5 -45.5q-89 0 -135.5 44z" />
    <glyph glyph-name="uni1EBC" unicode="&#x7e;E" horiz-adv-x="591" 
d="M532 167q-17 -81 -27 -168l-5 -6q-210 7 -303 7q-74 0 -139 -10l6 46q45 6 61.5 23.5t16.5 60.5l1 420q0 32 -7.5 43t-29.5 11l-34 -2l-2 4l7 44q102 -3 139 -3q119 0 185 2.5t115 9.5l3 -6q-18 -79 -23 -166l-48 -4l2 43q0 35 -9 48.5t-39 18t-105 4.5q-35 0 -48 -2
t-17 -9.5t-5 -27.5l-8 -194l103 -1q39 0 122 11l4 -5l-14 -59q-111 3 -140 3q-33 0 -77 -7l-4 -191q0 -29 5 -40.5t20.5 -15.5t53.5 -4q84 0 119.5 8t50.5 32t23 82l44 5zM146 720v5l76 79l16 4q18 0 78 -18q9 -2 33.5 -8.5t34.5 -6.5t24 10t25 21l14 14h6l22 -21v-5
l-76 -79l-16 -4q-18 0 -78 18q-9 2 -33.5 8.5t-34.5 6.5q-11 0 -25 -10t-24.5 -21t-13.5 -14h-6z" />
    <glyph glyph-name="uni1EBD" unicode="&#x7e;e" horiz-adv-x="508" 
d="M91 613v5l76 89l16 4q18 0 78 -18q9 -2 33.5 -8.5t34.5 -6.5t24 12t25 25.5t14 17.5h6l22 -21v-5l-76 -89l-16 -4q-18 0 -78 18q-9 2 -33.5 8.5t-34.5 6.5q-11 0 -25 -12t-24.5 -25.5t-13.5 -17.5h-6zM59 34q37 4 50 18t13 48l1 317q0 25 -6 33.5t-24 8.5l-27 -1l-2 4
l6 38q12 0 47 -1t76 -1q167 0 247 9l3 -5q-2 -11 -9 -50t-10 -84l-48 -4q0 4 1 13.5t1 19.5q0 26 -7.5 36.5t-31 14t-81.5 3.5q-27 0 -37 -1.5t-13 -7t-4 -20.5l-6 -142l82 -1q18 0 53 3.5t46 4.5l4 -5l-12 -52q-11 0 -43.5 1t-68.5 1q-28 0 -63 -5q-3 -76 -3 -137
q0 -23 3.5 -32t16 -12t41.5 -3q65 0 93 6t39.5 24.5t18.5 63.5l44 4l4 -5q-3 -11 -10.5 -51.5t-11.5 -84.5l-6 -5q-27 1 -112 3t-138 2q-41 0 -76 -3.5l-45 -4.5z" />
    <glyph glyph-name="uni1EF8" unicode="&#x7e;Y" horiz-adv-x="538" 
d="M150 34q36 7 52 18t21 30t5 60v44q0 31 -6 54.5t-23 58.5l-90 183q-26 53 -37 71.5t-31 29.5t-58 14l-2 4l6 39q11 -1 42 -2t68 -1q35 0 81.5 3.5t60.5 4.5l3 -7l-3 -35q-45 -4 -60.5 -11.5t-15.5 -24.5q0 -13 25 -71t51.5 -114t35.5 -73h5l114 212q16 29 16 50
q0 26 -63 30l-2 4l6 39q12 -1 50 -4t61 -3q24 0 53.5 1.5t38.5 2.5l4 -7l-6 -37q-32 -6 -50 -16.5t-31.5 -30t-39.5 -65.5q-6 -12 -10 -18l-100 -176q-13 -23 -16.5 -52t-5.5 -105v-22q-1 -39 8.5 -53.5t35.5 -14.5q16 0 30 1t19 2l2 -4l-9 -46q-14 1 -51.5 2t-75.5 1
q-31 0 -67 -5t-47 -7zM131 720v5l76 79l16 4q18 0 78 -18q9 -2 33.5 -8.5t34.5 -6.5t24 10t25 21l14 14h6l22 -21v-5l-76 -79l-16 -4q-18 0 -78 18q-9 2 -33.5 8.5t-34.5 6.5q-11 0 -25 -10t-24.5 -21t-13.5 -14h-6z" />
    <glyph glyph-name="uni1EF9" unicode="&#x7e;y" horiz-adv-x="475" 
d="M73 613v5l76 89l16 4q18 0 78 -18q9 -2 33.5 -8.5t34.5 -6.5t24 12t25 25.5t14 17.5h6l22 -21v-5l-76 -89l-16 -4q-18 0 -78 18q-9 2 -33.5 8.5t-34.5 6.5q-11 0 -25 -12t-24.5 -25.5t-13.5 -17.5h-6zM133 32q30 5 44 13t18 23t4 45v31q0 23 -5 41t-19 45l-75 144
q-19 36 -29 50.5t-26 23.5t-46 12l-2 4l6 36q9 0 36.5 -1t57.5 -1q28 0 68 2.5t52 3.5l3 -6l-3 -33q-34 -2 -46.5 -7.5t-12.5 -19.5q0 -13 35.5 -86t50.5 -102h5l86 154q13 23 13 38q0 19 -49 22l-2 3l5 36q6 0 40 -2.5t56 -2.5q26 0 48 1t30 2l3 -6l-5 -34q-27 -6 -42 -16
t-26.5 -26t-37.5 -59l-81 -138q-11 -21 -14 -46t-3 -90q0 -26 8 -36t29 -10q13 0 24.5 1t15.5 1l2 -3l-8 -42q-12 1 -45 2t-67 1q-26 0 -59 -3.5t-43 -5.5z" />
    <glyph glyph-name="Gtilde" unicode="&#x7e;G" horiz-adv-x="667" 
d="M178 26q-66 38 -102 107.5t-36 163.5q0 103 44 183t124 124.5t183 44.5q37 0 80 -5.5t74 -11t40 -7.5l4 -6q-2 -6 -7 -29t-10.5 -60t-8.5 -78l-47 -4q1 5 2 19.5t1 34.5q0 46 -35.5 67t-115.5 21q-114 0 -177.5 -68.5t-63.5 -192.5q0 -87 28 -153t80 -102t120 -36
q36 0 66 8.5t50.5 18.5t20.5 11v122q0 34 -10.5 44t-44.5 10h-69l-2 4l9 50q12 -1 51 -2.5t76 -1.5q27 0 53 2t33 3l4 -22q-18 -15 -24.5 -47.5t-6.5 -106.5q0 -58 7 -88l-6 -9q0 -1 -35.5 -13.5t-87 -22.5t-107.5 -10q-88 0 -154 38zM202 720v5l76 79l16 4q18 0 78 -18
q9 -2 33.5 -8.5t34.5 -6.5t24 10t25 21l14 14h6l22 -21v-5l-76 -79l-16 -4q-18 0 -78 18q-9 2 -33.5 8.5t-34.5 6.5q-11 0 -25 -10t-24.5 -21t-13.5 -14h-6z" />
    <glyph glyph-name="gtilde" unicode="&#x7e;g" horiz-adv-x="566" 
d="M138 613v5l76 89l16 4q18 0 78 -18q9 -2 33.5 -8.5t34.5 -6.5t24 12t25 25.5t14 17.5h6l22 -21v-5l-76 -89l-16 -4q-18 0 -78 18q-9 2 -33.5 8.5t-34.5 6.5q-11 0 -25 -12t-24.5 -25.5t-13.5 -17.5h-6zM106.5 56.5q-65.5 65.5 -65.5 176.5q0 82 36 144t101.5 96t151.5 34
q31 0 66.5 -4t61 -9t32.5 -6l4 -6q-1 -5 -5.5 -23.5t-9 -48t-6.5 -62.5l-49 -4q0 4 1 15.5t1 26.5q0 35 -27 50.5t-88 15.5q-89 0 -136.5 -49.5t-47.5 -143.5q0 -101 47 -159.5t127 -58.5q28 0 51 6t36.5 12t16.5 8v88q0 25 -8.5 33t-34.5 8h-53l-2 4l8 44q4 0 37.5 -1
t68.5 -1q23 0 45.5 1.5t28.5 2.5l4 -22q-16 -12 -21.5 -37t-5.5 -86q0 -45 5 -68l-5 -8q-7 -3 -32.5 -11t-67.5 -15.5t-90 -7.5q-110 0 -175.5 65.5z" />
    <glyph glyph-name=".notdef" horiz-adv-x="641" 
d="M336 228l321 -321l-16 -16l-321 321l-321 -321l-16 16l321 321l-321 321l16 16l321 -321l321 321l16 -16z" />
    <glyph glyph-name="uni0000" 
 />
    <glyph glyph-name="uni0000" 
 />
    <glyph glyph-name="nonmarkingreturn" unicode="&#xd;" horiz-adv-x="198" 
 />
    <glyph glyph-name="space" unicode=" " horiz-adv-x="198" 
 />
    <glyph glyph-name="exclam" unicode="!" horiz-adv-x="247" 
d="M100 170l-10 313l7 10l72 15l9 -11l-41 -329l-26 -6zM70.5 4.5q-14.5 16.5 -14.5 40.5q0 26 17 44t45 18q27 0 42 -16.5t15 -40.5q0 -26 -17.5 -44t-45.5 -18q-27 0 -41.5 16.5z" />
    <glyph glyph-name="quotedbl" unicode="&#x22;" horiz-adv-x="298" 
d="M60 287q1 18 1 54q0 56 -3 103.5t-4 60.5l70 14l7 -8q-2 -19 -12 -83.5t-23 -128.5l-25 -14zM182 287q1 18 1 54q0 56 -3 103.5t-4 60.5l70 14l7 -8q-2 -19 -12 -83.5t-23 -128.5l-25 -14z" />
    <glyph glyph-name="numbersign" unicode="#" horiz-adv-x="498" 
d="M88 41l37 168l-111 -1l-3 10l15 37l109 -1l13 57l12 52l-109 -1l-3 10l15 37l107 -1l37 160l40 5l8 -6l-39 -160h53l53 -1l37 162l40 5l8 -6l-39 -161h108l4 -9l-19 -36l-104 1l-9 -39l-16 -71h107l4 -9l-19 -36l-102 1l-36 -165l-39 -8l-7 6l37 168l-70 1l-36 -1
l-37 -166l-39 -8zM300 311l12 52l-68 1l-38 -1l-10 -40l-16 -70h52l55 -1z" />
    <glyph glyph-name="dollar" unicode="$" horiz-adv-x="459" 
d="M315.5 45.5q-38.5 -38.5 -95.5 -52.5l-14 -144l-26 -3l-5 7l13 136q-6 -1 -17 -1q-32 0 -58.5 4.5t-41.5 9.5t-19 7l-3 7q3 15 7 62t5 72l35 5q0 -66 21.5 -93t74.5 -27l14 141l-39 21q-57 29 -83 59t-26 66q0 39 22.5 70.5t62.5 50.5t89 21l2 20l16 170l26 4l6 -9
l-16 -165l-2 -21q28 -2 50 -7.5t28 -7.5l2 -5q-2 -10 -9 -45.5t-10 -76.5l-37 -3q0 3 1 12t1 17q0 45 -31 60l-15 -152q62 -36 86 -63t24 -61q0 -47 -38.5 -85.5zM228 415q-6 1 -20 1q-34 0 -57.5 -16t-23.5 -39q0 -24 20.5 -45t66.5 -45zM266.5 60q16.5 15 16.5 34
q0 18 -10.5 32t-37.5 32l-11 -120q26 7 42.5 22z" />
    <glyph glyph-name="percent" unicode="%" horiz-adv-x="671" 
d="M77 -76l-5 12q22 33 85 130t135 209l256 403l39 -19l5 -14q-29 -43 -118 -177.5t-144 -222.5q-71 -114 -132.5 -210.5t-82.5 -129.5zM71.5 369.5q-36.5 43.5 -36.5 112.5q0 47 19 85t53.5 60t78.5 22q65 0 99.5 -44t34.5 -105q0 -46 -18 -86t-52 -64t-80 -24
q-62 0 -98.5 43.5zM246 409.5q27 19.5 27 67.5q0 46 -28 76t-76 30q-40 0 -63.5 -24t-23.5 -63q0 -53 30.5 -79.5t71.5 -26.5q35 0 62 19.5zM410.5 31.5q-36.5 43.5 -36.5 112.5q0 47 19 85t53.5 60t78.5 22q65 0 99.5 -44t34.5 -105q0 -46 -18 -86t-52 -64t-80 -24
q-62 0 -98.5 43.5zM585 71.5q27 19.5 27 67.5q0 46 -28 76t-76 30q-40 0 -63.5 -24t-23.5 -63q0 -53 30.5 -79.5t71.5 -26.5q35 0 62 19.5z" />
    <glyph glyph-name="ampersand" unicode="&#x26;" horiz-adv-x="679" 
d="M781 350v-6l-91 -100l-18 -7l-86 12q-21 -74 -71 -134t-117.5 -94t-138.5 -34q-107 0 -169 66t-62 178q0 73 31.5 136.5t83 101t106.5 37.5q42 0 65 -20.5t23 -56.5q0 -13 -3.5 -24.5t-7.5 -18t-5 -8.5l4 -2q110 75 169.5 149.5t70.5 154.5l7 6h20q4 -11 14 -43.5
t10 -50.5q0 -11 -17 -34t-34 -41q-63 -72 -162.5 -142t-305.5 -185q17 -65 67.5 -102t125.5 -37q91 0 153 54.5t82 152.5l-60 8q-9 0 -26.5 -14t-32.5 -29t-19 -20h-6l-26 22v5l94 100l16 6q21 0 103 -14q84 -14 107 -14q7 0 23.5 14t32 29.5t19.5 20.5h8zM196.5 299.5
q34.5 26.5 48 48t13.5 48.5q0 21 -11.5 32.5t-31.5 11.5q-32 0 -60 -23t-45 -64t-17 -91v-30q69 41 103.5 67.5z" />
    <glyph glyph-name="quotesingle" unicode="'" horiz-adv-x="176" 
d="M60 287q1 18 1 54q0 56 -3 103.5t-4 60.5l70 14l7 -8q-2 -19 -12 -83.5t-23 -128.5l-25 -14z" />
    <glyph glyph-name="parenleft" unicode="(" horiz-adv-x="275" 
d="M190.5 -117.5q-51.5 35.5 -92.5 104t-41 176.5v173q0 109 42 178.5t94 105.5t52 29h4l13 -29l-1 -4q0 6 -38 -24.5t-68.5 -89.5t-30.5 -151v-173q0 -99 32 -164t71.5 -100t39.5 -29v-5l-21 -26h-4q0 -7 -51.5 28.5z" />
    <glyph glyph-name="parenright" unicode=")" horiz-adv-x="274" 
d="M12 -117l1 4q0 -6 38 24.5t68.5 89.5t30.5 151v173q0 99 -32 164t-71.5 100t-39.5 29v5l21 26h4q0 7 51.5 -28.5t92.5 -104t41 -176.5v-173q0 -109 -42 -178.5t-94 -105.5t-52 -29h-4z" />
    <glyph glyph-name="asterisk" unicode="*" horiz-adv-x="456" 
d="M199 615q0 34 -2 67t-3 43q6 2 27 7t40 5l7 -7q-2 -10 -10 -45.5t-19 -68.5l-34 -5zM109.5 584q-32.5 8 -41.5 10q0 6 1.5 27.5t7.5 40.5l9 4q9 -5 40.5 -23.5t59.5 -39.5l-6 -33l-6 -5q-32 11 -64.5 19zM253 599l1 8q32 10 63 22.5t40 16.5q4 -5 15 -23.5t17 -36.5
l-4 -9q-11 -2 -47 -5t-71 -2zM276 418q-5 10 -19.5 43t-24.5 67l24 23l8 1q19 -27 40.5 -53t27.5 -33q-4 -5 -17.5 -21t-29.5 -28zM128 444.5q-20 8.5 -36 19.5l-1 9q7 8 34.5 32t56.5 44l29 -16l3 -7q-20 -27 -37.5 -55.5t-22.5 -36.5q-6 2 -26 10.5z" />
    <glyph glyph-name="plus" unicode="+" horiz-adv-x="506" 
d="M221 36l1 199l-198 -1l-6 9l11 49l193 -1l1 201l51 8l10 -6q-1 -20 -3.5 -86.5t-2.5 -116.5q50 0 116.5 2.5t87.5 3.5l6 -10l-8 -51l-202 -1l1 -194l-49 -11z" />
    <glyph glyph-name="comma" unicode="," horiz-adv-x="294" 
d="M63 -142v10q35 24 57 57t22 64q0 20 -9 38.5t-23 31.5l2 14q34 26 58 26q22 0 36.5 -20.5t14.5 -57.5q0 -52 -42 -98.5t-98 -79.5z" />
    <glyph glyph-name="hyphen" unicode="-" horiz-adv-x="380" 
d="M64 218l6 52l174 20q30 3 45.5 5.5t19.5 3.5l7 -9l-5 -54l-240 -26z" />
    <glyph glyph-name="period" unicode="." horiz-adv-x="305" 
d="M107.5 4.5q-14.5 16.5 -14.5 40.5q0 26 17 44t45 18q27 0 42 -16.5t15 -40.5q0 -26 -17.5 -44t-45.5 -18q-27 0 -41.5 16.5z" />
    <glyph glyph-name="slash" unicode="/" horiz-adv-x="329" 
d="M34 -102q9 30 38.5 131.5t53.5 196.5l115 449h46l8 -10q-13 -48 -49 -179.5t-73 -270.5q-31 -120 -54 -208.5t-30 -116.5h-48z" />
    <glyph glyph-name="zero" unicode="0" horiz-adv-x="533" 
d="M140.5 19q-48.5 31 -75.5 87t-27 129q0 77 31.5 138.5t87 96.5t124.5 35q62 0 111 -30.5t76 -85.5t27 -126q0 -78 -31.5 -141t-86.5 -98.5t-124 -35.5q-64 0 -112.5 31zM392.5 111.5q46.5 47.5 46.5 123.5q0 55 -23 98t-63.5 67t-92.5 24q-75 0 -120.5 -47.5
t-45.5 -126.5q0 -54 22.5 -96.5t62.5 -66t92 -23.5q75 0 121.5 47.5z" />
    <glyph glyph-name="one" unicode="1" horiz-adv-x="342" 
d="M55 34q38 3 57 13t26 33t7 68v228q0 35 -12.5 46t-41.5 11q-13 0 -30.5 -2.5t-22.5 -3.5l-3 3l4 42q10 1 40.5 5t69.5 10q80 13 90 15.5t11 2.5l6 -17q-20 -17 -27.5 -33.5t-9.5 -50.5q-6 -159 -6 -292q0 -40 10 -54t39 -14q18 0 33 1t20 2l2 -4l-9 -46q-14 1 -53 2
t-80 1q-32 0 -73 -5t-53 -7z" />
    <glyph glyph-name="two" unicode="2" horiz-adv-x="475" 
d="M106 94q84 95 123.5 160.5t39.5 107.5q0 36 -20 56t-55 20q-34 0 -67 -24t-56 -65h-9l-11 45q25 48 73 79.5t96 31.5q62 0 99.5 -33t37.5 -87q0 -30 -19.5 -68.5t-64.5 -96.5t-129 -152l4 -7h153q38 0 58 7t32 26t22 58l40 5q-4 -14 -14 -62.5t-15 -94.5l-12 -7
q-38 1 -152.5 4t-168.5 3l-54 -12l-10 18z" />
    <glyph glyph-name="three" unicode="3" horiz-adv-x="416" 
d="M38.5 -88q-14.5 17 -15.5 56l5 6q42 -9 80 -9q49 0 89.5 17.5t64 48t23.5 67.5q0 51 -43.5 75.5t-135.5 25.5l-5 5l-5 35l65 16q40 19 65.5 51.5t25.5 65.5q0 31 -22 50.5t-56 19.5q-28 0 -59.5 -14t-54.5 -37h-10l-10 42q0 1 29.5 20.5t66 35.5t69.5 16q59 0 94.5 -30.5
t35.5 -81.5q0 -40 -30 -78t-80 -64v-5q135 -31 135 -124q0 -52 -41.5 -105t-105.5 -87.5t-126 -34.5q-34 0 -48.5 17z" />
    <glyph glyph-name="four" unicode="4" horiz-adv-x="453" 
d="M254 -96q1 17 3 68.5t3 112.5q-154 4 -247 4l4 37l276 378l4 1l32 -10v-352h93l6 -8l-8 -55l-91 3q1 -51 3.5 -102.5t3.5 -66.5l-5 -7l-71 -12zM260 143v224h-9l-161 -224h170z" />
    <glyph glyph-name="five" unicode="5" horiz-adv-x="430" 
d="M33 -89.5q-15 15.5 -17 57.5l5 6q42 -9 81 -9q52 0 94.5 17t67 47t24.5 69q0 33 -19.5 56t-65 39.5t-124.5 30.5l-9 11q6 74 11 148t6 96l8 8l189 8q30 2 42.5 9.5t20.5 29.5l33 4l-24 -118l-6 -6q-18 1 -82 4.5t-137 3.5l-7 -126q115 -27 177.5 -64.5t62.5 -103.5
q0 -58 -45 -112t-112.5 -87.5t-127.5 -33.5q-31 0 -46 15.5z" />
    <glyph glyph-name="six" unicode="6" horiz-adv-x="462" 
d="M343.5 322.5q39.5 -21.5 62.5 -59t23 -83.5q0 -54 -26 -98t-71.5 -69t-101.5 -25q-52 0 -93 26.5t-64 74t-23 108.5q0 133 88 239.5t244 161.5l7 -5l11 -30q-103 -43 -169 -112.5t-89 -156.5l3 -2q38 24 68 38t43 14q48 0 87.5 -21.5zM327 68q28 32 28 88
q0 35 -16.5 64.5t-44 47t-60.5 17.5q-24 0 -52 -10.5t-49 -26.5q-3 -22 -3 -45q0 -77 32 -122t88 -45q49 0 77 32z" />
    <glyph glyph-name="seven" unicode="7" horiz-adv-x="420" 
d="M102 -87l-10 22l250 490l-173 -7q-34 -2 -51 -10t-25.5 -26.5t-15.5 -56.5l-39 -6q2 16 9 70.5t10 102.5l6 5q10 -1 46.5 -2.5t75.5 -1.5h211l22 -28q-93 -186 -149.5 -314t-64.5 -146q-1 -3 -10 -24l-25 -86h-7z" />
    <glyph glyph-name="eight" unicode="8" horiz-adv-x="485" 
d="M106 24.5q-50 36.5 -50 99.5q0 62 39.5 102t89.5 63q-52 28 -81.5 61.5t-29.5 84.5q0 42 23 79.5t64.5 60.5t92.5 23q40 0 76 -15t58 -45.5t22 -73.5q0 -52 -29.5 -88t-69.5 -57q57 -30 88.5 -65t31.5 -88q0 -48 -27 -89t-73.5 -65t-103.5 -24q-71 0 -121 36.5zM335 443
q0 52 -27.5 80.5t-70.5 28.5q-41 0 -67 -26t-26 -61q0 -29 17.5 -51t42 -37t71.5 -40q60 36 60 106zM329 61.5q33 30.5 33 75.5q0 32 -19 55t-45 38t-78 41q-36 -15 -63.5 -44.5t-27.5 -78.5q0 -30 16 -57t44 -43.5t62 -16.5q45 0 78 30.5z" />
    <glyph glyph-name="nine" unicode="9" horiz-adv-x="455" 
d="M327 478.5q41 -26.5 64 -74t23 -108.5q0 -133 -88 -239.5t-244 -161.5l-7 5l-11 30q103 43 169 112.5t89 156.5l-3 2q-38 -24 -68 -38t-43 -14q-48 0 -87.5 21.5t-62.5 59t-23 83.5q0 54 26 98t71.5 69t101.5 25q52 0 93 -26.5zM282 218.5q28 10.5 49 26.5q3 23 3 45
q0 77 -32 122t-88 45q-49 0 -77 -32t-28 -88q0 -35 16.5 -64.5t44 -47t60.5 -17.5q24 0 52 10.5z" />
    <glyph glyph-name="colon" unicode=":" horiz-adv-x="238" 
d="M103.5 4.5q-14.5 16.5 -14.5 40.5q0 26 17 44t45 18q27 0 42 -16.5t15 -40.5q0 -26 -17.5 -44t-45.5 -18q-27 0 -41.5 16.5zM103.5 284.5q-14.5 16.5 -14.5 40.5q0 26 17 44t45 18q27 0 42 -16.5t15 -40.5q0 -26 -17.5 -44t-45.5 -18q-27 0 -41.5 16.5z" />
    <glyph glyph-name="semicolon" unicode=";" horiz-adv-x="238" 
d="M63 -142v10q35 24 57 57t22 64q0 20 -9 38.5t-23 31.5l2 14q34 26 58 26q22 0 36.5 -20.5t14.5 -57.5q0 -52 -42 -98.5t-98 -79.5zM103.5 284.5q-14.5 16.5 -14.5 40.5q0 26 17 44t45 18q27 0 42 -16.5t15 -40.5q0 -26 -17.5 -44t-45.5 -18q-27 0 -41.5 16.5z" />
    <glyph glyph-name="less" unicode="&#x3c;" horiz-adv-x="506" 
d="M347.5 105.5q-59.5 27.5 -110.5 49.5q-62 27 -119.5 51t-78.5 33l-8 11l2 47l203 86q57 24 119.5 49t81.5 32l9 -5l7 -50q-19 -7 -81 -29.5t-113 -43.5l-154 -60v-6l168 -70l181 -79l1 -11l-30 -40q-18 8 -77.5 35.5z" />
    <glyph glyph-name="equal" unicode="=" horiz-adv-x="506" 
d="M18 323l11 49l239 -1q50 0 121 2.5t93 3.5l6 -10l-8 -51l-227 -1l-229 -1zM18 166l11 49l239 -1q50 0 121 2.5t93 3.5l6 -10l-8 -51l-227 -1l-229 -1z" />
    <glyph glyph-name="greater" unicode="&#x3e;" horiz-adv-x="506" 
d="M60 75l-7 50q19 7 81 29.5t113 43.5l154 60v6l-168 70l-181 79l-1 11l30 40q18 -8 77.5 -35.5t110.5 -49.5q62 -27 119.5 -51t78.5 -33l8 -11l-2 -47l-203 -86q-57 -24 -119.5 -49t-81.5 -32z" />
    <glyph glyph-name="question" unicode="?" horiz-adv-x="291" 
d="M83 153l-19 82l2 11l102 63q18 11 26 24t8 31q0 35 -37 52.5t-127 25.5l-2 8l33 52l6 4q90 -2 145.5 -38t55.5 -92q0 -37 -30.5 -68t-107.5 -71l-2 -5l14 -63l-3 -7l-55 -13zM79 4q-16 16 -16 41q0 27 17.5 44.5t44.5 17.5q26 0 41.5 -15.5t15.5 -41.5q0 -27 -17.5 -44.5
t-44.5 -17.5q-25 0 -41 16z" />
    <glyph glyph-name="at" unicode="@" horiz-adv-x="832" 
d="M215 -148.5q-90 54.5 -136 142.5t-46 194q0 110 53 208t150.5 157.5t223.5 59.5q98 0 175.5 -41t120.5 -111.5t43 -156.5q0 -83 -37.5 -155.5t-110 -116.5t-174.5 -44q-36 0 -36 29q0 12 18 95t25 113l-6 2q-48 -91 -93.5 -148t-93.5 -91q-39 0 -59.5 37t-20.5 99
q0 82 34.5 160t88 127t106.5 49l100 -16l9 25l5 1l31 -15l8 -12q-5 -16 -20 -73.5t-33.5 -143t-30.5 -168.5l4 -4q106 0 161.5 61t55.5 165q0 87 -36.5 149.5t-103 95t-155.5 32.5q-98 0 -173.5 -48t-116.5 -128t-41 -175q0 -100 38 -181.5t117 -132.5t198 -58v-7l-26 -36
q-126 6 -216 60.5zM360.5 108.5q32.5 39.5 72.5 109t77 155.5q-17 11 -45.5 22t-55.5 11q-31 0 -61 -32.5t-48.5 -86.5t-18.5 -114q0 -42 8.5 -73t20.5 -31q18 0 50.5 39.5z" />
    <glyph glyph-name="A" unicode="A" horiz-adv-x="584" 
d="M329 -3l4 39q51 4 70 12t19 26q0 20 -9 48l-33 109q-24 1 -104 1q-48 0 -109 -8l-37 -104q-9 -27 -9 -39q0 -22 14 -31.5t46 -9.5h57l2 -4l-6 -43q-12 1 -55 4t-84 3q-37 0 -68.5 -1t-41.5 -2l8 47q28 3 45 19.5t33 57.5l195 511l63 17h8q6 -24 30.5 -111t60 -206
t68.5 -219q12 -37 32 -52t64 -19l2 -4l-7 -41q-12 0 -43.5 1.5t-62.5 1.5q-48 0 -92.5 -4t-56.5 -6zM273 273q36 0 93 5l-79 262h-7l-95 -267h88z" />
    <glyph glyph-name="B" unicode="B" horiz-adv-x="597" 
d="M105 -5q-36 -5 -47 -7l6 46q46 9 62 26.5t16 59.5l1 420q0 32 -7.5 43t-29.5 11q-10 0 -20 -1t-14 -1l-2 4l7 44q12 -1 45 -2t66 -1q34 0 69.5 1.5t48.5 2.5q95 0 146 -39.5t51 -112.5q0 -50 -30.5 -90t-85.5 -64q73 -16 114 -56t41 -96q0 -51 -32.5 -95.5t-86.5 -71
t-116 -26.5q-27 0 -62 5q-57 5 -73 5q-31 0 -67 -5zM269.5 347q35.5 -3 58.5 -4q0 -3 26 10.5t47 42t21 76.5q0 64 -43 95t-133 31q-10 0 -13.5 -4.5t-4.5 -18.5q-6 -96 -9 -224q15 -1 50.5 -4zM213 111q0 -38 26 -54t88 -16q60 0 94.5 33.5t34.5 90.5q0 54 -34 88.5
t-101 46.5l-104 -2z" />
    <glyph glyph-name="C" unicode="C" horiz-adv-x="626" 
d="M181 26q-68 38 -104.5 107.5t-36.5 163.5q0 100 45 180.5t124.5 126t179.5 45.5q37 0 75.5 -5.5t65 -11t33.5 -7.5l4 -6q-2 -6 -6.5 -29t-10 -60t-8.5 -78l-48 -4q1 5 2 18.5t1 30.5q0 93 -147 93q-66 0 -116 -32t-77 -90.5t-27 -137.5q0 -87 28.5 -153t80.5 -102.5
t120 -36.5t109.5 38.5t60.5 119.5l48 4q-3 -15 -13 -66.5t-14 -96.5l-6 -9q0 -1 -30.5 -11.5t-76 -19.5t-98.5 -9q-90 0 -158 38z" />
    <glyph glyph-name="D" unicode="D" horiz-adv-x="703" 
d="M253.5 -5q-48.5 5 -80.5 5q-31 0 -67.5 -5t-47.5 -7l6 46q46 9 62 26.5t16 59.5l1 420q0 32 -7.5 43t-29.5 11q-10 0 -20 -1t-14 -1l-2 4l7 44q11 -1 42 -2t63 -1q43 0 89 1.5t63 2.5q96 0 171 -37.5t116.5 -105.5t41.5 -156q0 -98 -46 -179t-125 -128t-175 -47
q-15 2 -63.5 7zM237 587.5q-7 -4.5 -8 -17.5q-15 -385 -15 -439q0 -38 10.5 -57t37 -27t78.5 -8q108 0 170 74.5t62 204.5q0 132 -79.5 203t-227.5 71q-21 0 -28 -4.5z" />
    <glyph glyph-name="E" unicode="E" horiz-adv-x="591" 
d="M532 167q-17 -81 -27 -168l-5 -6q-210 7 -303 7q-74 0 -139 -10l6 46q45 6 61.5 23.5t16.5 60.5l1 420q0 32 -7.5 43t-29.5 11l-34 -2l-2 4l7 44q102 -3 139 -3q119 0 185 2.5t115 9.5l3 -6q-18 -79 -23 -166l-48 -4l2 43q0 35 -9 48.5t-39 18t-105 4.5q-35 0 -48 -2
t-17 -9.5t-5 -27.5l-8 -194l103 -1q39 0 122 11l4 -5l-14 -59q-111 3 -140 3q-33 0 -77 -7l-4 -191q0 -29 5 -40.5t20.5 -15.5t53.5 -4q84 0 119.5 8t50.5 32t23 82l44 5z" />
    <glyph glyph-name="F" unicode="F" horiz-adv-x="512" 
d="M64 34q46 9 62 26.5t16 59.5l1 420q0 32 -7.5 43t-29.5 11q-10 0 -20 -1t-14 -1l-2 4l7 44q13 -1 52.5 -2t86.5 -1q197 0 281 12l3 -6q-1 -6 -5.5 -28t-9.5 -61t-8 -80l-48 -4q0 5 1 19t1 27q0 35 -8.5 48.5t-34.5 18t-91 4.5q-35 0 -48 -2t-17 -9.5t-5 -27.5l-8 -211
l103 -1q19 0 56 4.5t49 6.5l4 -5l-14 -60q-13 1 -48.5 2t-74.5 1q-37 0 -77 -7l-4 -166q0 -41 9 -54.5t35 -13.5q20 0 41.5 1.5t29.5 1.5l2 -4l-9 -47q-16 1 -59.5 2.5t-89.5 1.5q-31 0 -67 -5t-47 -7z" />
    <glyph glyph-name="G" unicode="G" horiz-adv-x="667" 
d="M178 26q-66 38 -102 107.5t-36 163.5q0 103 44 183t124 124.5t183 44.5q37 0 80 -5.5t74 -11t40 -7.5l4 -6q-2 -6 -7 -29t-10.5 -60t-8.5 -78l-47 -4q1 5 2 19.5t1 34.5q0 46 -35.5 67t-115.5 21q-114 0 -177.5 -68.5t-63.5 -192.5q0 -87 28 -153t80 -102t120 -36
q36 0 66 8.5t50.5 18.5t20.5 11v122q0 34 -10.5 44t-44.5 10h-69l-2 4l9 50q12 -1 51 -2.5t76 -1.5q27 0 53 2t33 3l4 -22q-18 -15 -24.5 -47.5t-6.5 -106.5q0 -58 7 -88l-6 -9q0 -1 -35.5 -13.5t-87 -22.5t-107.5 -10q-88 0 -154 38z" />
    <glyph glyph-name="H" unicode="H" horiz-adv-x="754" 
d="M64 34q46 9 62 26.5t16 59.5l1 420q0 32 -7.5 43t-29.5 11l-34 -2l-2 4l7 44q13 0 20 -1q60 -2 91 -2q42 0 107 9l-4 -45q-30 -5 -42.5 -12t-17 -23.5t-6.5 -54.5l-6 -162l168 -1q63 0 148 10l1 182q0 32 -7.5 43t-29.5 11q-14 0 -34 -2l-2 4l7 44q11 -1 40 -2t58 -1
q48 0 120 9l-4 -45q-37 -5 -50 -16.5t-14 -40.5q-6 -113 -10 -242.5t-4 -195.5q0 -37 9 -49.5t35 -12.5q12 0 45 3l2 -4l-9 -46q-14 0 -22 1q-66 2 -101 2l-115 -2l9 45q33 1 48.5 9t21.5 30t6 68v151l-152 1q-25 -1 -70 -3.5t-96 -7.5l-4 -179q0 -41 9 -54.5t35 -13.5
q12 0 45 3l2 -4l-9 -46q-9 1 -34 2t-51 1q-46 0 -98.5 -4t-53.5 -8z" />
    <glyph glyph-name="I" unicode="I" horiz-adv-x="361" 
d="M62 34q47 9 63.5 26.5t16.5 59.5l1 420q0 32 -7.5 43t-29.5 11l-42 -2l-2 4l7 44q16 0 25 -1l94 -2q45 0 115 9l-4 -45q-41 -5 -55.5 -16.5t-16.5 -40.5q-6 -117 -10 -244.5t-4 -187.5q0 -41 9 -54.5t35 -13.5q17 0 53 3l2 -4l-9 -46q-14 0 -22 1q-70 2 -109 2
q-49 0 -116 -12z" />
    <glyph glyph-name="J" unicode="J" horiz-adv-x="327" 
d="M23 -111l3 8q41 25 63.5 52.5t32 66t9.5 99.5l1 425q0 32 -7 42.5t-30 10.5q-12 0 -26.5 -1.5t-20.5 -2.5l-2 4l7 44h108q27 0 65.5 3.5t50.5 5.5l-4 -45q-25 -4 -36 -9t-15.5 -15.5t-5.5 -32.5q-4 -93 -7.5 -216t-5.5 -212q-1 -102 -39.5 -163.5t-123.5 -96.5z" />
    <glyph glyph-name="K" unicode="K" horiz-adv-x="628" 
d="M135.5 583q-7.5 11 -29.5 11q-10 0 -20 -1t-14 -1l-2 4l7 44q12 -1 45 -2t66 -1q27 0 61.5 3.5t45.5 5.5l-4 -45q-37 -6 -51 -18.5t-15 -41.5l-12 -429q-1 -40 8 -54t36 -14q15 0 28 1t17 2l2 -4l-9 -46q-13 1 -49 2t-74 1l-115 -1l10 45q32 3 47.5 10t21.5 22t6 44
l1 420q0 32 -7.5 43zM422 515q31 31 31 52q0 26 -63 30l-2 4l7 43q12 -1 49.5 -4t60.5 -3q24 0 53.5 1.5t38.5 2.5l4 -7l-7 -41q-26 -5 -48 -21t-67 -63l-161 -169l168 -219q36 -47 64.5 -66t63.5 -19l4 -4l-6 -34q-11 -2 -43.5 -7t-39.5 -5q-24 0 -53 22.5t-59 63.5
l-175 243l1 14z" />
    <glyph glyph-name="L" unicode="L" horiz-adv-x="507" 
d="M74 36q39 6 53.5 23.5t14.5 60.5l1 420q0 32 -7.5 43t-29.5 11q-10 0 -20 -1t-14 -1l-2 4l7 44q12 -1 45 -2t67 -1q27 0 61.5 3.5t45.5 5.5l-4 -45q-33 -4 -45.5 -13t-15 -21t-5.5 -59q-6 -85 -9 -194t-3 -192q0 -36 6 -51.5t22.5 -20.5t56.5 -5q61 0 89.5 10t43 39
t26.5 93l44 5l3 -5q-3 -16 -12.5 -72t-16.5 -118l-5 -6q-29 2 -119.5 5.5t-149.5 3.5q-47 0 -85.5 -4t-48.5 -6z" />
    <glyph glyph-name="M" unicode="M" horiz-adv-x="847" 
d="M205 520h-5q-6 -66 -21 -247.5t-15 -197.5q0 -31 31 -31l41 1l2 -4l-9 -45q-11 1 -39.5 2.5t-57.5 1.5q-25 0 -51.5 -3.5t-34.5 -4.5l5 46q32 4 46 20.5t18 56.5q10 94 26.5 253.5t16.5 178.5q0 26 -20.5 39t-65.5 16l-3 5l8 35q13 -1 51 -3t58 -2q18 0 39.5 1.5
t28.5 2.5q40 -129 77.5 -239.5t61.5 -175.5t30 -81h5q14 37 64 176t109 318q0 1 27 -1l39 -1q19 0 57 2.5t51 3.5l2 -4l-5 -37q-43 -5 -61 -17.5t-18 -37.5q0 -22 9 -163.5t17 -244.5q5 -41 10 -60.5t14 -27t25 -7.5q9 0 17 1t11 1l2 -4l-9 -45q-10 1 -37.5 2t-57.5 1
q-27 0 -60.5 -3.5t-43.5 -4.5l4 46q31 4 45 16t14 34q0 21 -14.5 195t-19.5 237h-5l-193 -532l-24 -7z" />
    <glyph glyph-name="N" unicode="N" horiz-adv-x="719" 
d="M400.5 217.5q-82.5 122.5 -135.5 198t-67 95.5h-5l-5 -427q0 -22 7 -31t24 -9l51 1l2 -4l-9 -45q-11 1 -45 2.5t-61 1.5q-25 0 -54.5 -3.5t-38.5 -4.5l5 46q31 4 46 18.5t16 44.5l13 437q0 31 -18.5 44t-68.5 18l-3 5l8 37q9 -1 39 -3t47 -2q21 0 41 1.5t26 2.5
q74 -115 148.5 -225t124.5 -181t63 -90h5v405q0 43 -33 43l-38 -1l-2 4l9 45q10 -1 38 -2.5t57 -1.5q26 0 57.5 3.5t41.5 4.5l-5 -46q-35 -5 -51 -19.5t-17 -43.5l-14 -562l-29 -14q-87 135 -169.5 257.5z" />
    <glyph glyph-name="O" unicode="O" horiz-adv-x="692" 
d="M173 27q-63 39 -98 109.5t-35 160.5q0 98 43.5 178.5t119 127t166.5 46.5q83 0 147 -39t100 -109t36 -160q0 -98 -44.5 -179t-121 -127.5t-169.5 -46.5q-81 0 -144 39zM460 72q49 33 76 92t27 135q0 85 -29 150.5t-80.5 102.5t-118.5 37q-61 0 -108.5 -33t-74 -92
t-26.5 -135q0 -85 28 -150.5t78.5 -102.5t115.5 -37q63 0 112 33z" />
    <glyph glyph-name="P" unicode="P" horiz-adv-x="551" 
d="M70 38q44 8 58 23.5t14 58.5l1 420q0 32 -7.5 43t-29.5 11q-10 0 -20 -1t-14 -1l-2 4l7 44q12 -1 45 -2t66 -1q31 0 70.5 1.5t55.5 2.5q104 0 159 -46t55 -132q0 -56 -32.5 -106.5t-85.5 -81.5t-111 -31h-84l-2 -98q0 -48 3 -68.5t11.5 -27t29.5 -6.5q17 0 32.5 1t21.5 2
l2 -4l-9 -46q-10 1 -36.5 2t-55.5 1q-40 0 -93.5 -3t-55.5 -5zM413.5 337q30.5 39 30.5 107q0 77 -45.5 112.5t-142.5 35.5q-18 0 -22 -2t-5 -12q-9 -127 -12 -275l106 -15q60 10 90.5 49z" />
    <glyph glyph-name="Q" unicode="Q" horiz-adv-x="697" 
d="M615.5 -201q-43.5 15 -109.5 57t-189 132q-81 0 -144 39t-98 109.5t-35 160.5q0 98 43.5 178.5t119 127t166.5 46.5q83 0 147 -39t100 -109t36 -160q0 -82 -31 -152.5t-87 -119.5t-127 -69v-5q106 -72 176.5 -102t130.5 -30q29 0 54.5 4.5t25.5 5.5l4 -3l6 -18
q-6 -5 -25 -21.5t-40 -31.5t-30 -15q-50 0 -93.5 15zM460 72q49 33 76 92t27 135q0 85 -29 150.5t-80.5 102.5t-118.5 37q-61 0 -108.5 -33t-74 -92t-26.5 -135q0 -85 28 -150.5t78.5 -102.5t115.5 -37q63 0 112 33z" />
    <glyph glyph-name="R" unicode="R" horiz-adv-x="611" 
d="M458.5 9.5q-28.5 25.5 -52.5 69.5l-107 194h-83l-3 -149q0 -38 5 -54.5t19 -22t48 -5.5l2 -4l-9 -42q-12 1 -48 2t-75 1q-35 0 -62 -1t-36 -2l9 45q32 4 48 11t22 22.5t6 45.5l1 420q0 32 -7.5 43t-29.5 11q-10 0 -20 -1t-14 -1l-2 4l7 44q12 -1 45 -2t66 -1
q34 0 71.5 1.5t51.5 2.5q93 0 147 -42t54 -115q0 -60 -38.5 -110t-108.5 -82l110 -174q29 -48 56.5 -66.5t67.5 -18.5l4 -4l-6 -34l-85 -11q-25 0 -53.5 25.5zM351 332q30 16 54 49t24 85q0 132 -183 132q-10 0 -13.5 -4.5t-4.5 -18.5q-9 -153 -10 -246l103 -10q0 -3 30 13z
" />
    <glyph glyph-name="S" unicode="S" horiz-adv-x="530" 
d="M142 -4.5q-35 7.5 -57.5 16.5t-22.5 10l-5 10q1 6 4 30t5.5 62.5t2.5 81.5l45 5q0 -75 10 -111t37 -49.5t83 -13.5q63 0 101 29.5t38 80.5q0 30 -20.5 54t-48.5 41t-83 46q-52 27 -85 49.5t-55.5 53.5t-22.5 72q0 52 30.5 94.5t83 67t116.5 24.5q40 0 74 -5.5t54 -11.5
t25 -8l3 -6q-1 -6 -5 -28t-9 -61t-8 -80l-39 -4l-6 5q1 4 2 18.5t1 33.5q0 53 -26 73t-93 20q-55 0 -90.5 -27.5t-35.5 -68.5q0 -40 34.5 -69.5t101.5 -64.5q65 -33 99 -54.5t60 -53.5t26 -74q0 -56 -31.5 -100.5t-87.5 -69.5t-128 -25q-42 0 -77 7.5z" />
    <glyph glyph-name="T" unicode="T" horiz-adv-x="546" 
d="M133 39q50 4 69 12.5t25 31t6 79.5v436q-85 -3 -115.5 -9.5t-41.5 -29t-20 -87.5l-47 -4q12 95 15 173l9 8l83 -11h310l85 11l9 -8q3 -82 15 -169l-47 -4q-11 66 -22 89t-39 30t-108 11q-6 -60 -11 -212t-5 -274q0 -37 13 -52.5t44 -15.5q30 0 55 3l3 -4l-9 -46l-33 1
l-114 2q-55 0 -137 -4z" />
    <glyph glyph-name="U" unicode="U" horiz-adv-x="681" 
d="M165 45.5q-57 57.5 -57 163.5v331q0 32 -7.5 43t-29.5 11q-10 0 -20 -1t-14 -1l-2 4l7 44q12 -1 45.5 -2t67.5 -1q27 0 61 3.5t44 5.5l-4 -45q-37 -5 -49.5 -16.5t-14.5 -40.5l-8 -294q0 -99 43 -152t124 -53q82 0 125 43.5t43 125.5q-1 80 -3 182.5t-3 143.5
q-2 35 -8.5 44.5t-28.5 9.5q-12 0 -25 -1t-18 -1l-2 4l7 44q12 -1 45.5 -2t67.5 -1q27 0 57.5 3.5t39.5 5.5l-4 -45q-30 -4 -44.5 -9.5t-19.5 -16t-5 -31.5v-336q0 -105 -65 -162.5t-183 -57.5q-105 0 -162 57.5z" />
    <glyph glyph-name="V" unicode="V" horiz-adv-x="610" 
d="M190.5 203q-52.5 170 -105.5 333q-9 29 -31 42.5t-61 14.5l-2 4l7 43q13 0 48.5 -1.5t67.5 -1.5q33 0 83.5 4.5t66.5 6.5l3 -7l-4 -39q-54 -4 -71.5 -12t-17.5 -30q0 -20 53 -207.5t73 -255.5h9q166 428 166 460q0 21 -16 30.5t-53 9.5h-52l-2 4l6 43q13 -1 57.5 -4
t85.5 -3q37 0 68.5 1t41.5 2l-8 -47q-31 -1 -43 -10t-23 -38l-215 -540l-64 -22q-15 50 -67.5 220z" />
    <glyph glyph-name="W" unicode="W" horiz-adv-x="932" 
d="M186.5 203q-50.5 170 -102.5 333q-9 29 -31 42.5t-59 14.5l-1 4l6 43q13 0 47 -1.5t66 -1.5q44 0 88 4.5t57 6.5l3 -7l-4 -39q-51 -4 -68.5 -12t-17.5 -29q0 -17 27.5 -120.5t57 -207.5t38.5 -136h6l141 384l-18 55q-10 29 -31 42t-59 15l-2 4l7 43q13 0 47 -1.5t66 -1.5
q38 0 84.5 4.5t60.5 6.5l3 -7l-4 -39q-52 -4 -69.5 -12t-17.5 -30q0 -21 52 -208t72 -255h6q2 6 4.5 12.5t5.5 15.5q152 408 152 437q0 19 -16 27t-52 8h-50l-2 4l7 43q13 -1 56 -4t83 -3q36 0 66 1t40 2l-7 -47q-30 -2 -42 -10.5t-22 -37.5l-210 -540l-62 -22
q-10 35 -46.5 161t-78.5 263h-6l-142 -402l-64 -22q-14 50 -64.5 220z" />
    <glyph glyph-name="X" unicode="X" horiz-adv-x="656" 
d="M362 -1l4 39q41 2 59.5 10t18.5 25q0 15 -20 44l-109 164l-92 -122q-31 -41 -41 -58t-10 -31q0 -13 14 -20.5t44 -9.5l2 -4l-7 -43q-12 1 -49.5 4t-60.5 3q-24 0 -56.5 -1.5t-42.5 -2.5l-4 7l7 41q41 12 76 43.5t86 94.5l110 136l-131 196q-25 37 -58 57t-79 26l-2 4
l6 39q16 0 59 -1.5t85 -1.5q49 0 87 3.5t48 4.5l3 -7l-3 -35q-42 -3 -60 -11.5t-18 -24.5q0 -11 27.5 -56.5t85.5 -133.5l38 51q43 56 68 92.5t25 50.5q0 13 -13.5 20t-44.5 10l-2 4l6 39q12 -1 49.5 -4t60.5 -3q24 0 55.5 1.5t41.5 2.5l4 -7l-6 -37q-43 -9 -67 -28.5
t-69 -75.5l-121 -153l146 -213q27 -40 58.5 -59.5t78.5 -23.5l2 -4l-7 -43q-13 1 -49 2t-75 1q-35 0 -87 -3.5t-68 -4.5z" />
    <glyph glyph-name="Y" unicode="Y" horiz-adv-x="538" 
d="M150 34q36 7 52 18t21 30t5 60v44q0 31 -6 54.5t-23 58.5l-90 183q-26 53 -37 71.5t-31 29.5t-58 14l-2 4l6 39q11 -1 42 -2t68 -1q35 0 81.5 3.5t60.5 4.5l3 -7l-3 -35q-45 -4 -60.5 -11.5t-15.5 -24.5q0 -13 25 -71t51.5 -114t35.5 -73h5l114 212q16 29 16 50
q0 26 -63 30l-2 4l6 39q12 -1 50 -4t61 -3q24 0 53.5 1.5t38.5 2.5l4 -7l-6 -37q-32 -6 -50 -16.5t-31.5 -30t-39.5 -65.5q-6 -12 -10 -18l-100 -176q-13 -23 -16.5 -52t-5.5 -105v-22q-1 -39 8.5 -53.5t35.5 -14.5q16 0 30 1t19 2l2 -4l-9 -46q-14 1 -51.5 2t-75.5 1
q-31 0 -67 -5t-47 -7z" />
    <glyph glyph-name="Z" unicode="Z" horiz-adv-x="568" 
d="M34 29l373 564l-173 -6q-47 -2 -74 -15.5t-41 -42.5t-20 -80l-47 -4q1 8 5 35.5t8 73t5 86.5l10 9l175 -11l258 -7l11 -29q-191 -254 -386 -562l203 7q52 1 84 41t48 125l47 5q-2 -9 -6.5 -37.5t-10.5 -76.5t-8 -91l-15 -16l-362 6l-70 -6z" />
    <glyph glyph-name="bracketleft" unicode="[" horiz-adv-x="309" 
d="M96 -126q2 45 6.5 179.5t4.5 196.5q0 63 -4.5 198.5t-6.5 180.5l184 11l4 -6l-6 -31l-114 -24v-655l116 -24l4 -7l-6 -30z" />
    <glyph glyph-name="backslash" unicode="\" horiz-adv-x="329" 
d="M213 6.5q-23 88.5 -54 208.5q-37 139 -73 270.5t-49 179.5l8 10h46l115 -449q24 -95 53.5 -196.5t38.5 -131.5l-7 -8h-48q-7 28 -30 116.5z" />
    <glyph glyph-name="bracketright" unicode="]" horiz-adv-x="309" 
d="M25 -131l6 31l114 24v655l-116 24l-4 7l6 30l182 -11q-2 -45 -6.5 -179t-4.5 -197q0 -62 4.5 -198t6.5 -181l-184 -11z" />
    <glyph glyph-name="asciicircum" unicode="^" horiz-adv-x="506" 
d="M314 394.5q24 -57.5 51 -119.5q22 -51 49.5 -110.5t35.5 -77.5l-40 -30l-11 1l-79 181l-70 168h-6l-60 -154q-21 -51 -43.5 -113t-29.5 -81l-50 7l-5 9q7 19 32 81.5t49 119.5l86 203l47 2l11 -8q9 -21 33 -78.5z" />
    <glyph glyph-name="underscore" unicode="_" horiz-adv-x="458" 
d="M-6 -135l11 49l239 -1q71 0 137 3q77 2 77 3l6 -10l-8 -51l-356 -1q-49 -1 -100 -1z" />
    <glyph glyph-name="grave" unicode="`" horiz-adv-x="398" 
d="M137 608.5q-50 40.5 -65 51.5l-1 11l38 41l10 2q13 -16 59 -69.5t91 -102.5l-20 -19l-9 -2q-53 47 -103 87.5z" />
    <glyph glyph-name="a" unicode="a" horiz-adv-x="510" 
d="M281 -2l3 36q42 3 56.5 9t14.5 20q0 16 -7 34l-24 77q-20 1 -83 1q-29 0 -86 -6l-28 -74q-7 -23 -7 -28q0 -16 11 -23t36 -7h43l3 -4l-6 -38q-10 1 -45.5 3t-69.5 2q-32 0 -57.5 -1t-34.5 -1l6 41q22 3 35 15.5t26 42.5l157 397l71 13l7 -1q0 -4 45.5 -158t81.5 -255
q10 -29 25.5 -40.5t49.5 -14.5l2 -4l-5 -36q-10 0 -37 1t-54 1q-41 0 -78 -3t-48 -4zM239 216q35 0 73 4l-61 194h-7l-73 -198h68z" />
    <glyph glyph-name="b" unicode="b" horiz-adv-x="518" 
d="M96 -3.5q-32 -3.5 -42 -5.5l5 41q37 7 50 20.5t13 45.5l1 320q0 24 -6 32.5t-23 8.5l-28 -1l-3 4l6 38q11 0 40 -1t57 -1q29 0 60.5 1.5t43.5 2.5q79 0 122 -31t43 -89q0 -40 -25.5 -72t-67.5 -48q55 -11 89.5 -41.5t34.5 -75.5q0 -42 -26.5 -77t-72 -55.5t-99.5 -20.5
q-16 0 -48 4q-44 4 -66 4q-26 0 -58 -3.5zM237.5 275q27.5 -2 46.5 -3q0 -2 20 8t36 31t16 56q0 47 -33.5 69t-103.5 22q-8 0 -10.5 -3.5t-3.5 -13.5q-5 -63 -7 -163q12 -1 39.5 -3zM193 92q0 -28 20 -39.5t69 -11.5q47 0 73.5 24t26.5 66q0 39 -26 64t-77 34l-83 -1z" />
    <glyph glyph-name="c" unicode="c" horiz-adv-x="533" 
d="M107 56q-66 65 -66 177q0 79 36.5 141.5t102 97.5t148.5 35q30 0 62.5 -4t55 -9t28.5 -6l4 -6q-1 -5 -5 -23.5t-9 -48.5t-7 -64l-50 -3q0 3 1 14t1 25q0 70 -112 70q-78 0 -123 -51.5t-45 -141.5q0 -100 47.5 -159t127.5 -59q53 0 84.5 28.5t45.5 89.5l50 4
q-3 -12 -10.5 -54t-10.5 -79l-6 -8l-28.5 -9.5t-60.5 -14.5t-82 -7q-113 0 -179 65z" />
    <glyph glyph-name="d" unicode="d" horiz-adv-x="596" 
d="M218.5 -3.5q-39.5 3.5 -66.5 3.5q-26 0 -57 -3.5t-40 -5.5l5 42q36 6 49 20t13 46l1 318q0 25 -6 33.5t-23 8.5q-9 0 -17 -1t-11 -1l-2 5l6 38q10 0 36.5 -1t53.5 -1q36 0 74 1.5t52 1.5q80 0 141 -29t94.5 -81.5t33.5 -122.5q0 -78 -37.5 -141t-102.5 -99.5t-144 -36.5
q-13 2 -52.5 5.5zM211.5 450.5q-5.5 -3.5 -6.5 -14.5q-12 -281 -12 -330q0 -27 8 -41.5t28 -20t59 -5.5q84 0 131.5 55t47.5 154q0 101 -60 153.5t-174 52.5q-16 0 -21.5 -3.5z" />
    <glyph glyph-name="e" unicode="e" horiz-adv-x="508" 
d="M59 34q37 4 50 18t13 48l1 317q0 25 -6 33.5t-24 8.5l-27 -1l-2 4l6 38q12 0 47 -1t76 -1q167 0 247 9l3 -5q-2 -11 -9 -50t-10 -84l-48 -4q0 4 1 13.5t1 19.5q0 26 -7.5 36.5t-31 14t-81.5 3.5q-27 0 -37 -1.5t-13 -7t-4 -20.5l-6 -142l82 -1q18 0 53 3.5t46 4.5l4 -5
l-12 -52q-11 0 -43.5 1t-68.5 1q-28 0 -63 -5q-3 -76 -3 -137q0 -23 3.5 -32t16 -12t41.5 -3q65 0 93 6t39.5 24.5t18.5 63.5l44 4l4 -5q-3 -11 -10.5 -51.5t-11.5 -84.5l-6 -5q-27 1 -112 3t-138 2q-41 0 -76 -3.5l-45 -4.5z" />
    <glyph glyph-name="f" unicode="f" horiz-adv-x="446" 
d="M59 32q38 7 50.5 20.5t12.5 47.5l1 317q0 25 -6 33.5t-24 8.5l-27 -1l-2 4l6 38q12 0 47 -1t76 -1q155 0 230 9l4 -5q-2 -11 -9 -51t-10 -85l-48 -3q0 4 1 14t1 20q0 26 -6.5 36.5t-27.5 14t-70 3.5q-27 0 -37 -1.5t-13 -7t-4 -20.5l-7 -155l83 -1q16 0 46 3.5t40 4.5
l4 -5l-11 -53q-10 0 -39 1t-61 1q-28 0 -63 -5l-3 -118q0 -31 7 -41.5t29 -10.5q16 0 33 1.5t23 1.5l3 -5l-7 -44q-13 1 -49.5 2t-74.5 1q-29 0 -61 -3.5t-42 -5.5z" />
    <glyph glyph-name="g" unicode="g" horiz-adv-x="566" 
d="M106.5 56.5q-65.5 65.5 -65.5 176.5q0 82 36 144t101.5 96t151.5 34q31 0 66.5 -4t61 -9t32.5 -6l4 -6q-1 -5 -5.5 -23.5t-9 -48t-6.5 -62.5l-49 -4q0 4 1 15.5t1 26.5q0 35 -27 50.5t-88 15.5q-89 0 -136.5 -49.5t-47.5 -143.5q0 -101 47 -159.5t127 -58.5q28 0 51 6
t36.5 12t16.5 8v88q0 25 -8.5 33t-34.5 8h-53l-2 4l8 44q4 0 37.5 -1t68.5 -1q23 0 45.5 1.5t28.5 2.5l4 -22q-16 -12 -21.5 -37t-5.5 -86q0 -45 5 -68l-5 -8q-7 -3 -32.5 -11t-67.5 -15.5t-90 -7.5q-110 0 -175.5 65.5z" />
    <glyph glyph-name="h" unicode="h" horiz-adv-x="639" 
d="M59 32q37 7 50 20.5t13 46.5l1 318q0 25 -6 33.5t-24 8.5l-27 -1l-3 4l6 38q10 0 37.5 -1t55.5 -1q23 0 55 3t42 4l-4 -41q-24 -4 -34 -9.5t-13.5 -17t-5.5 -39.5l-5 -121l130 -1q53 0 115 7l1 134q0 25 -6 33.5t-24 8.5l-28 -1l-2 4l6 38q9 -1 35 -1.5t51 -0.5
q24 0 58.5 3t45.5 4l-3 -41q-31 -4 -41 -12.5t-11 -31.5q-4 -79 -7.5 -176.5t-3.5 -150.5q0 -32 7 -42.5t28 -10.5q12 0 22 1t13 1l3 -4l-8 -40q-11 0 -41.5 1t-63.5 1l-100 -1l8 40q26 0 38.5 6.5t17.5 23t5 49.5v112l-115 1q-16 0 -65 -3.5t-66 -4.5l-3 -130q0 -32 7 -43
t28 -11q12 0 22 1t13 2l2 -4l-7 -40q-8 0 -30.5 1t-47.5 1q-37 0 -81 -3t-45 -6z" />
    <glyph glyph-name="i" unicode="i" horiz-adv-x="319" 
d="M58 32q38 7 51 20.5t13 46.5l1 318q0 25 -6 33.5t-24 8.5l-33 -1l-2 4l5 38q6 0 32.5 -1t69.5 -1q23 0 56.5 3t43.5 4l-4 -41q-33 -4 -44 -12.5t-13 -31.5q-4 -80 -7.5 -177t-3.5 -150q0 -32 7 -43t28 -11q14 0 25.5 1t15.5 2l2 -4l-7 -40q-12 0 -45 1t-66 1
q-27 0 -58.5 -3.5t-41.5 -5.5z" />
    <glyph glyph-name="j" unicode="j" horiz-adv-x="292" 
d="M27 -87l2 7q49 30 66.5 65.5t17.5 106.5l1 325q0 25 -6 33t-24 8q-10 0 -21.5 -1t-15.5 -1l-3 4l6 38h92q26 0 59.5 3t43.5 4l-4 -41q-28 -4 -36 -12t-10 -32q-10 -233 -10 -333q-1 -79 -34.5 -127t-107.5 -75z" />
    <glyph glyph-name="k" unicode="k" horiz-adv-x="543" 
d="M117 450.5q-6 8.5 -24 8.5l-27 -1l-3 4l6 38q11 0 40 -1t56 -1q22 0 53 3t41 4l-3 -41q-31 -5 -42 -14.5t-12 -31.5l-9 -325q-1 -32 6.5 -43t28.5 -11q12 0 22 1t13 2l2 -4l-7 -40q-11 0 -42 1t-63 1l-99 -1l8 40q38 4 49 15t11 45l1 318q0 25 -6 33.5zM356 398
q24 23 24 39q0 21 -49 24l-2 4l6 38q10 -1 42 -3t51 -2q26 0 49.5 1t31.5 2l4 -6l-6 -36q-22 -6 -41.5 -20.5t-56.5 -52.5l-120 -119l130 -166q29 -36 51.5 -51t50.5 -16l4 -5l-5 -31q-10 -1 -34.5 -4.5t-40.5 -4.5q-44 0 -92 66l-138 191l1 13z" />
    <glyph glyph-name="l" unicode="l" horiz-adv-x="442" 
d="M67 34q32 5 43.5 18.5t11.5 47.5l1 317q0 25 -6 33.5t-24 8.5l-27 -1l-3 4l6 38q5 0 30 -1t67 -1q22 0 54.5 3t42.5 4l-4 -42q-27 -3 -38 -9.5t-13 -16.5t-5 -41q-10 -134 -10 -297q0 -25 4.5 -36.5t18 -15.5t42.5 -4q48 0 70.5 8t34 31.5t20.5 74.5l44 5l3 -6
q-2 -13 -9.5 -59.5t-13.5 -97.5l-5 -6q-23 1 -97.5 4t-125.5 3q-40 0 -74.5 -3.5t-43.5 -4.5z" />
    <glyph glyph-name="m" unicode="m" horiz-adv-x="715" 
d="M180 387h-5q-4 -48 -14.5 -179t-10.5 -144t6 -18.5t20 -5.5h32l2 -3l-7 -40q-9 0 -34.5 1.5t-50.5 1.5q-20 0 -43 -2.5t-30 -3.5l4 41q26 3 37 15.5t15 43.5q8 68 21.5 191t13.5 138q0 20 -15.5 29.5t-53.5 11.5l-3 5l7 33q11 -1 39 -2.5t54 -1.5q22 0 40.5 1t24.5 2
q30 -93 58.5 -174.5t47 -130t23.5 -60.5h5q11 28 49.5 131t83.5 232q6 1 15.5 0.5t18.5 -0.5q11 -1 32 -1q16 0 46.5 2t40.5 3l2 -3l-5 -35q-35 -4 -49 -13.5t-14 -29.5t7 -127t14 -182q5 -45 13 -59t27 -14l23 1l2 -3l-7 -40q-8 0 -31 1t-49 1t-59 -3t-35 -3l4 41
q26 3 37 12t11 27t-10.5 143t-14.5 170h-5q-59 -151 -150 -395l-29 -6q-101 274 -151 401z" />
    <glyph glyph-name="n" unicode="n" horiz-adv-x="614" 
d="M461 425q0 33 -27 33h-30l-2 4l7 39q9 -1 34 -2t51 -1q22 0 49.5 2.5t35.5 3.5l-4 -41q-29 -4 -41.5 -15.5t-13.5 -34.5l-12 -430l-39 -11q-95 139 -192 272t-97 131h-5l-3 -303q0 -19 6 -26t20 -7l40 1l3 -3l-8 -40q-9 1 -35.5 2t-55.5 1q-23 0 -49 -2.5t-34 -3.5l5 41
q25 3 37 14.5t13 34.5l11 330q0 25 -14.5 34.5t-55.5 14.5l-4 5l7 34q8 -1 30.5 -2.5t45.5 -1.5q22 0 39 1t22 2q81 -119 171.5 -243t90.5 -122h5z" />
    <glyph glyph-name="o" unicode="o" horiz-adv-x="585" 
d="M150.5 21q-52.5 30 -81 85t-28.5 127q0 78 35.5 140.5t97 98t137.5 35.5q69 0 122 -30t82 -84.5t29 -126.5q0 -78 -35.5 -140.5t-98 -98.5t-139.5 -36q-68 0 -120.5 30zM413 91.5q45 52.5 45 139.5q0 66 -21.5 116t-61 77t-91.5 27q-71 0 -114.5 -52t-43.5 -139
q0 -66 21 -116t59.5 -77.5t88.5 -27.5q73 0 118 52.5z" />
    <glyph glyph-name="p" unicode="p" horiz-adv-x="479" 
d="M64 35q35 6 46.5 18.5t11.5 45.5l1 318q0 25 -6 33.5t-23 8.5l-28 -1l-3 4l6 38q5 0 29.5 -1t64.5 -1q27 0 61 1.5t48 1.5q90 0 135.5 -38t45.5 -104q0 -44 -27 -84t-70.5 -64.5t-92.5 -24.5h-69l-1 -70q0 -35 2.5 -50.5t9.5 -20.5t24 -5q13 0 26 1t17 1l2 -4l-8 -40
q-9 0 -33 1t-49 1q-33 0 -79 -2t-47 -4zM372 345q0 56 -35 82.5t-111 26.5q-14 0 -17 -1.5t-4 -10.5q-8 -127 -9 -202l83 -11q93 15 93 116z" />
    <glyph glyph-name="q" unicode="q" horiz-adv-x="590" 
d="M511.5 -160q-35.5 12 -88 45.5t-152.5 105.5q-68 0 -120.5 30t-81 85t-28.5 127q0 78 35.5 140.5t97 98t137.5 35.5q69 0 122 -30t82 -84.5t29 -126.5q0 -94 -53 -165.5t-139 -96.5v-5q82 -52 139 -75t105 -23q24 0 43 3.5t24 4.5l4 -4l6 -20l-22.5 -18t-36.5 -26.5
t-27 -12.5q-40 0 -75.5 12zM413 91.5q45 52.5 45 139.5q0 66 -21.5 116t-61 77t-91.5 27q-71 0 -114.5 -52t-43.5 -139q0 -66 21 -116t59.5 -77.5t88.5 -27.5q73 0 118 52.5z" />
    <glyph glyph-name="r" unicode="r" horiz-adv-x="529" 
d="M386 7.5q-23 19.5 -42 53.5l-84 147h-65l-2 -107q0 -29 4 -41.5t15.5 -16.5t39.5 -5l2 -3l-8 -38q-12 1 -43.5 1.5t-63.5 0.5q-31 0 -54 -1t-31 -2l7 41q37 5 49 17t12 45l1 319q0 24 -6 32.5t-23 8.5l-28 -1l-3 4l6 38q10 0 38 -1t56 -1q29 0 62 1.5t45 1.5
q81 0 127 -33.5t46 -92.5q0 -46 -31 -85t-87 -64l85 -128q24 -36 46 -51t53 -15l4 -5l-5 -31l-77 -8q-22 0 -45 19.5zM311.5 267.5q14.5 7.5 32.5 31.5t18 62q0 97 -143 97q-8 0 -11 -3.5t-3 -14.5q-8 -122 -8 -180l81 -8q19 8 33.5 15.5z" />
    <glyph glyph-name="s" unicode="s" horiz-adv-x="459" 
d="M126.5 -3q-29.5 6 -47 12.5t-21.5 8.5l-5 9q1 5 3.5 22.5t5 49t2.5 63.5l45 4q0 -54 8.5 -80.5t29.5 -36.5t64 -10q48 0 77.5 21t29.5 56q0 23 -16.5 40.5t-38 29.5t-68.5 35q-64 31 -98.5 61t-34.5 77q0 42 25.5 76t70.5 53t100 19q33 0 62 -4t46 -8.5t21 -6.5l4 -7
l-9 -49.5t-10 -82.5l-39 -4l-6 4q0 3 1 12.5t1 23.5q0 39 -20.5 54.5t-72.5 15.5q-42 0 -69.5 -19.5t-27.5 -49.5t27.5 -51t83.5 -48q49 -23 78.5 -40t50.5 -43t21 -60q0 -45 -26.5 -79.5t-74 -54t-108.5 -19.5q-35 0 -64.5 6z" />
    <glyph glyph-name="t" unicode="t" horiz-adv-x="474" 
d="M117 36q40 3 56.5 10t21 23.5t4.5 57.5v331q-63 -2 -85 -7t-32.5 -23.5t-17.5 -69.5l-47 -3q2 13 6.5 57.5t5.5 87.5l8 7l71 -8h255l73 8l8 -7q1 -44 5 -87t6 -55l-46 -3q-8 52 -18.5 71.5t-31 24.5t-78.5 7q-5 -48 -9 -159.5t-4 -205.5q0 -29 11 -41t36 -12q18 0 29.5 1
t14.5 1l3 -3l-7 -42q-14 0 -52 1.5t-74 1.5t-71 -1.5t-48 -2.5z" />
    <glyph glyph-name="u" unicode="u" horiz-adv-x="575" 
d="M141.5 35q-46.5 44 -46.5 127v255q0 25 -6 33.5t-24 8.5l-27 -1l-2 3l6 39q11 0 40 -1t59 -1q22 0 51 2.5t38 3.5l-4 -40q-29 -4 -39 -13t-12 -31l-6 -229q0 -71 33 -109.5t95 -38.5q63 0 95.5 31.5t32.5 91.5q0 62 -1.5 140.5t-2.5 110.5q-2 27 -7 34.5t-22 7.5l-34 -1
l-1 3l6 39q10 0 37.5 -1t55.5 -1q23 0 49.5 2.5t34.5 3.5l-3 -40q-35 -5 -45 -13t-10 -30v-256q0 -83 -53.5 -128.5t-151.5 -45.5q-89 0 -135.5 44z" />
    <glyph glyph-name="v" unicode="v" horiz-adv-x="525" 
d="M159.5 162.5q-42.5 134.5 -81.5 250.5q-7 22 -24.5 33t-47.5 13l-2 3l6 38q11 0 40 -1t57 -1q30 0 72 3.5t55 4.5l3 -6l-3 -36q-44 -3 -57.5 -9t-13.5 -22t40.5 -157t55.5 -192h9q35 84 81.5 208t46.5 140t-12 22.5t-41 6.5h-40l-2 4l5 38q11 -1 47.5 -3t70.5 -2
q31 0 57 1t35 1l-7 -41q-24 -1 -33.5 -8.5t-18.5 -30.5l-169 -416l-74 -17q-12 41 -54.5 175.5z" />
    <glyph glyph-name="w" unicode="w" horiz-adv-x="793" 
d="M156.5 162.5q-40.5 134.5 -79.5 250.5q-8 23 -24.5 34t-45.5 12q0 1 -2 3l6 38q11 0 39 -1t55 -1q37 0 74.5 3.5t48.5 4.5l3 -6l-4 -36q-42 -3 -55 -9t-13 -22q0 -19 39.5 -159t54.5 -190h6q25 61 67 177q16 45 43 117l-13 39q-7 22 -23.5 31t-47.5 11l-2 3l6 38
q11 0 40.5 -1t57.5 -1q32 0 71 3.5t51 4.5l3 -6l-3 -36q-42 -3 -55.5 -9t-13.5 -22q0 -17 39.5 -157.5t54.5 -191.5h7q32 78 78 206.5t46 144.5q0 14 -11.5 20t-40.5 6h-38l-2 4l6 38q11 -1 46.5 -3t67.5 -2q30 0 55.5 1t33.5 1l-6 -41q-23 -2 -32.5 -9t-17.5 -30l-165 -416
l-71 -17q-2 12 -31.5 111t-63.5 203h-5l-109 -297l-72 -17q-12 41 -52.5 175.5z" />
    <glyph glyph-name="x" unicode="x" horiz-adv-x="566" 
d="M226 500.5q34 2.5 43 3.5l2 -6l-3 -33q-31 -1 -45.5 -7.5t-14.5 -18.5q0 -10 21.5 -42.5t66.5 -96.5l31 39q5 7 26.5 34t32.5 44.5t11 24.5q0 10 -11 15t-35 7l-2 3l5 36q5 0 38.5 -2.5t56.5 -2.5q27 0 51 1t32 2l3 -6l-5 -34q-36 -9 -56 -24.5t-55 -57.5l-96 -118
l114 -156q23 -31 48.5 -46.5t62.5 -18.5l2 -3l-6 -39q-11 0 -41 1t-62 1q-28 0 -73 -2.5t-59 -3.5l-3 6l3 35q31 2 45.5 7.5t14.5 18.5q0 6 -4.5 14.5t-11.5 17.5l-85 119l-70 -88q-22 -28 -30 -41t-8 -23q0 -20 45 -23l3 -4l-6 -38q-10 1 -42.5 3t-51.5 2q-27 0 -51.5 -1
t-33.5 -2l-3 6l5 37q32 9 61 34t69 72l88 105l-103 144q-21 29 -47 44.5t-63 20.5l-2 4l5 36q13 0 48.5 -1t72.5 -1q38 0 72 2.5z" />
    <glyph glyph-name="y" unicode="y" horiz-adv-x="475" 
d="M133 32q30 5 44 13t18 23t4 45v31q0 23 -5 41t-19 45l-75 144q-19 36 -29 50.5t-26 23.5t-46 12l-2 4l6 36q9 0 36.5 -1t57.5 -1q28 0 68 2.5t52 3.5l3 -6l-3 -33q-34 -2 -46.5 -7.5t-12.5 -19.5q0 -13 35.5 -86t50.5 -102h5l86 154q13 23 13 38q0 19 -49 22l-2 3l5 36
q6 0 40 -2.5t56 -2.5q26 0 48 1t30 2l3 -6l-5 -34q-27 -6 -42 -16t-26.5 -26t-37.5 -59l-81 -138q-11 -21 -14 -46t-3 -90q0 -26 8 -36t29 -10q13 0 24.5 1t15.5 1l2 -3l-8 -42q-12 1 -45 2t-67 1q-26 0 -59 -3.5t-43 -5.5z" />
    <glyph glyph-name="z" unicode="z" horiz-adv-x="490" 
d="M36 25l301 431l-132 -5q-56 -3 -78.5 -25t-28.5 -79l-46 -4q2 14 7.5 63t6.5 94l9 8l144 -9l218 -5l11 -25q-99 -124 -183.5 -244t-127.5 -186l156 7q42 2 67.5 32t37.5 94l47 5q-3 -15 -10.5 -67t-10.5 -99l-13 -13l-303 4l-59 -5z" />
    <glyph glyph-name="braceleft" unicode="{" horiz-adv-x="309" 
d="M135.5 -99.5q-33.5 33.5 -33.5 82.5q0 21 6 44.5t17 58.5q18 50 18 73q0 66 -97 88l4 21q40 11 66.5 32t26.5 51q0 23 -19 80q-12 40 -17 61t-5 41q0 49 33.5 82.5t92.5 33.5q16 0 34 -2.5t23 -3.5l3 -5l-8 -30q-5 1 -20 3t-26 2q-31 0 -46 -19.5t-15 -49.5q0 -26 13 -85
q14 -68 14 -94q0 -42 -21 -66t-52 -34v-6q73 -27 73 -105q0 -28 -14 -98q-13 -59 -13 -85q0 -30 15 -49t47 -19q13 0 29 2.5t21 3.5l3 -6l-8 -28q-4 -1 -19.5 -4.5t-34.5 -3.5q-57 0 -90.5 33.5z" />
    <glyph glyph-name="bar" unicode="|" horiz-adv-x="372" 
d="M152 -263v219t1 320l1 520l60 11l11 -6q-1 -56 -3.5 -231t-2.5 -279l1 -549l-59 -11z" />
    <glyph glyph-name="braceright" unicode="}" horiz-adv-x="309" 
d="M47 -130.5q-18 2.5 -23 3.5l-3 5l8 30q5 -1 20 -3t26 -2q31 0 46 19.5t15 49.5q0 26 -13 85q-14 68 -14 94q0 42 21 66t52 34v6q-73 27 -73 105q0 28 14 98q13 59 13 85q0 30 -15 49t-47 19q-12 0 -28.5 -2.5t-21.5 -3.5l-3 6l8 28q4 1 19.5 4.5t34.5 3.5
q57 0 90.5 -33.5t33.5 -82.5q0 -21 -6 -44.5t-17 -58.5q-18 -50 -18 -73q0 -66 97 -88l-4 -21q-40 -11 -66.5 -32t-26.5 -51q0 -23 19 -80q12 -40 17 -61t5 -41q0 -49 -33.5 -82.5t-92.5 -33.5q-16 0 -34 2.5z" />
    <glyph glyph-name="asciitilde" unicode="~" horiz-adv-x="506" 
d="M43 223v5l76 89l16 4q25 0 73 -10.5t56 -12.5q33 -8 64.5 -14t46.5 -6q11 0 25 12t24.5 25.5t13.5 17.5h6l22 -21v-5l-76 -89l-16 -4q-25 0 -73 10.5t-56 12.5q-33 8 -64.5 14t-46.5 6q-11 0 -25 -12t-24.5 -25.5t-13.5 -17.5h-6z" />
    <glyph glyph-name="uni00A0" unicode="&#xa0;" horiz-adv-x="198" 
 />
    <glyph glyph-name="exclamdown" unicode="&#xa1;" horiz-adv-x="247" 
d="M176.5 501.5q14.5 -16.5 14.5 -40.5q0 -26 -17 -44t-45 -18q-27 0 -42 16.5t-15 40.5q0 26 17.5 44t45.5 18q27 0 41.5 -16.5zM147 336l10 -313l-7 -10l-72 -15l-9 11l41 329l26 6z" />
    <glyph glyph-name="cent" unicode="&#xa2;" horiz-adv-x="424" 
d="M484 163q-3 -12 -10.5 -54t-10.5 -79l-6 -8l-28.5 -9.5t-60.5 -14.5t-82 -7q-32 0 -61 6l-14 -148l-26 -3l-5 7l14 152q-72 23 -112.5 82.5t-40.5 145.5q0 97 54 168t145 95l15 158l26 4l6 -9l-14 -146q24 4 55 4q30 0 62.5 -4t55 -9t28.5 -6l4 -6q-1 -5 -5 -23.5
t-9 -48.5t-7 -64l-50 -3q0 3 1 14t1 25q0 70 -112 70q-11 0 -29 -2l-37 -393q31 -16 73 -16q53 0 84.5 28.5t45.5 89.5zM147.5 150q18.5 -47 53.5 -75l34 367q-51 -18 -78.5 -65t-27.5 -118q0 -62 18.5 -109z" />
    <glyph glyph-name="sterling" unicode="&#xa3;" horiz-adv-x="525" 
d="M346.5 -7q-25.5 5 -70.5 17q-49 12 -77 17.5t-55 5.5q-44 0 -84 -30l-7 4l-15 34q104 69 104 163v48q-1 23 -13 31t-50 10l-4 6l7 34l60 11v17q0 71 24.5 124.5t68.5 83t102 29.5q30 0 59 -4t44 -11l5 -11l-23 -63l-19 -3q-61 33 -103 33q-87 0 -91 -124l-3 -78
q58 0 102.5 1t58.5 2l3 -3l-10 -53q-14 1 -56.5 2t-99.5 1l-2 -79q-5 -81 -64 -130l55 11q32 0 92 -12q58 -10 80 -10q68 0 75 75l18 -2q13 -30 13 -58q0 -40 -22 -67t-54 -27q-23 0 -48.5 5z" />
    <glyph glyph-name="currency" unicode="&#xa4;" horiz-adv-x="475" 
d="M73 176l-23 39l65 62q-25 36 -25 82q0 47 27 85l-70 69l2 12l39 26q6 -6 24 -25t43 -44q37 24 81 24t81 -24l68 75l13 -3l27 -40l-70 -69q28 -37 28 -86q0 -42 -23 -78l71 -66l-3 -11l-40 -30l-66 66q-38 -27 -86 -27q-47 0 -85 27q-25 -26 -43 -44t-24 -23zM306 289.5
q29 28.5 29 69.5t-29 70t-70 29t-69.5 -29t-28.5 -70q0 -40 29 -69t69 -29q41 0 70 28.5z" />
    <glyph glyph-name="yen" unicode="&#xa5;" horiz-adv-x="532" 
d="M163 33q35 6 48 16.5t15.5 28t2.5 70.5l-180 -1l-5 7l5 29h177q-9 32 -21 53l-24 43l-132 -1l-5 7l5 29h112l-24 47q-20 39 -32.5 57.5t-32 29.5t-52.5 12l-2 9l7 36q10 -1 37.5 -2t59.5 -1q33 0 74 3.5t46 3.5l5 -10l-3 -34q-40 -4 -51.5 -9t-11.5 -15t12 -36h-1
l80 -157l93 159q13 22 13 37t-53 20l-1 7l5 37q10 -1 42.5 -3.5t55.5 -2.5q26 0 49 1t31 2l5 -7l-6 -37q-27 -4 -41.5 -11.5t-24 -20t-31.5 -45.5l-42 -68l115 2l6 -9l-3 -30h-141l-35 -57q-8 -17 -10 -39l183 4l6 -9l-3 -30h-187l-1 -58q0 -28 6.5 -38t25.5 -10l19 1l27 1
l2 -8l-9 -38q-12 0 -44.5 1t-65.5 1q-25 0 -57.5 -4t-42.5 -6z" />
    <glyph glyph-name="brokenbar" unicode="&#xa6;" horiz-adv-x="372" 
d="M153 370l1 426l60 11l11 -6q-1 -42 -3 -163t-3 -262l-62 -9zM152 -263v429l64 12l3 -3l1 -433l-59 -11z" />
    <glyph glyph-name="section" unicode="&#xa7;" horiz-adv-x="512" 
d="M444 109.5q-33 -48.5 -84 -74.5q-2 -31 -24.5 -63.5t-60 -54.5t-81.5 -22q-50 0 -83.5 23t-33.5 57q0 22 5 49.5t10 35.5h15q10 -53 42 -85.5t76 -32.5q32 0 54.5 21t22.5 51q0 38 -29.5 69t-89.5 72q-48 35 -77.5 60t-50 59.5t-20.5 75.5q0 44 31 87.5t85 75.5
q2 37 22.5 68t53.5 49.5t71 18.5q39 0 69 -15t30 -34q0 -18 -6.5 -44.5t-12.5 -33.5h-14q-14 34 -43 56t-59 22q-24 0 -40 -17.5t-16 -44.5q0 -39 31 -70t93 -74q48 -34 77 -58.5t49.5 -56.5t20.5 -71q0 -50 -33 -98.5zM419 173q0 35 -29.5 66t-93.5 81q-62 47 -97 82
t-45 76q-34 -20 -48.5 -42.5t-14.5 -52.5q0 -37 30 -69.5t93 -81.5q61 -46 96 -81.5t46 -77.5q63 38 63 100z" />
    <glyph glyph-name="dieresis" unicode="&#xa8;" horiz-adv-x="398" 
d="M81 559q-11 13 -11 30q0 21 14.5 35.5t35.5 14.5q19 0 30 -12.5t11 -30.5q0 -21 -14.5 -35.5t-35.5 -14.5q-19 0 -30 13zM247 559q-11 13 -11 30q0 21 14.5 35.5t35.5 14.5q19 0 30 -12.5t11 -30.5q0 -21 -14.5 -35.5t-35.5 -14.5q-19 0 -30 13z" />
    <glyph glyph-name="copyright" unicode="&#xa9;" horiz-adv-x="693" 
d="M193 29q-70 41 -110.5 111t-40.5 153t40.5 153t110.5 111t153 41t153 -41t111 -111t41 -153t-41 -153t-111 -111t-153 -41t-153 41zM477.5 63.5q60.5 35.5 96 96.5t35.5 133t-35.5 133t-96 96.5t-131.5 35.5t-131.5 -35.5t-95.5 -96.5t-35 -133t35 -133t95.5 -96.5
t131.5 -35.5t131.5 35.5zM227.5 175q-38.5 44 -38.5 112q0 50 21.5 90t61 63t90.5 23q29 0 58.5 -5t37.5 -7l2 -4q-2 -7 -6.5 -32.5t-6.5 -57.5l-33 -2l1 24q0 44 -64 44q-45 0 -70.5 -30.5t-25.5 -88.5q0 -64 24.5 -100.5t73.5 -36.5q34 0 52.5 18t26.5 57l32 2
q-2 -8 -7 -35.5t-6 -51.5l-4 -7q-4 -2 -18 -6.5t-38 -8.5t-52 -4q-73 0 -111.5 44z" />
    <glyph glyph-name="ordfeminine" unicode="&#xaa;" horiz-adv-x="321" 
d="M190 393l-4 1q-50 -48 -71 -48q-36 0 -60.5 24.5t-24.5 61.5q0 19 10 33.5t26 18.5l122 30l1 20q0 29 -14.5 45t-40.5 16q-18 0 -35 -6.5t-27.5 -14t-13.5 -9.5l-5 2l-9 33q6 4 27.5 15t46 21.5t37.5 10.5q49 0 74 -23t25 -61q0 -15 -5 -57q-7 -68 -7 -79q0 -13 6.5 -20
t17.5 -7t21.5 5.5t13.5 7.5l9 -12q-2 -4 -10.5 -16t-21.5 -25t-27 -17q-56 0 -61 50zM158.5 405.5q14.5 6.5 26.5 16.5l2 62l-76 -22q-17 -5 -17 -23q0 -17 11.5 -28.5t28.5 -11.5q10 0 24.5 6.5z" />
    <glyph glyph-name="guillemotleft" unicode="&#xab;" horiz-adv-x="427" 
d="M260.5 146q-54.5 51 -70.5 66v15q16 15 70.5 68.5t101.5 104.5l22 -15l1 -10l-107 -149l107 -155l-1 -10l-22 -15q-47 49 -101.5 100zM94.5 146q-54.5 51 -70.5 66v15q16 15 70.5 68.5t101.5 104.5l22 -15l1 -10l-107 -149l107 -155l-1 -10l-22 -15q-47 49 -101.5 100z
" />
    <glyph glyph-name="logicalnot" unicode="&#xac;" horiz-adv-x="506" 
d="M393 36l1 200l-141 -1l-229 -1l-6 9l11 49l239 -1q50 0 108.5 2.5t75.5 3.5l6 -10q-1 -11 -4 -46t-4 -64q0 -51 0.5 -88t0.5 -48l-49 -11z" />
    <glyph glyph-name="uni00AD" unicode="&#xad;" horiz-adv-x="380" 
d="M64 218l6 52l174 20q30 3 45.5 5.5t19.5 3.5l7 -9l-5 -54l-240 -26z" />
    <glyph glyph-name="registered" unicode="&#xae;" horiz-adv-x="468" 
d="M131.5 330.5q-46.5 27.5 -74 74t-27.5 102.5t27.5 102.5t74 74t102.5 27.5t102.5 -27.5t74 -74t27.5 -102.5t-27.5 -102.5t-74 -74t-102.5 -27.5t-102.5 27.5zM318.5 361q38.5 23 61.5 61.5t23 84.5t-23 84.5t-61.5 61.5t-84.5 23t-84.5 -23t-61.5 -61.5t-23 -84.5
t23 -84.5t61.5 -61.5t84.5 -23t84.5 23zM260 439l-29 55h-25q-1 -14 -1 -33t3.5 -23.5t20.5 -4.5l2 -4l-2 -17l-32 1h-12q-15 0 -28 -1t-17 -1l2 21q17 1 21 8t4 30v111q0 11 -2.5 14.5t-9.5 3.5h-11l-2 4l3 17l43 -1h11l31 2q38 0 59.5 -14.5t21.5 -40.5q0 -24 -13 -38.5
t-35 -24.5l29 -43q21 -32 41 -32l3 -4q0 -12 -8 -14.5t-31 -2.5q-20 0 -37 32zM267 559q0 38 -52 38q-4 0 -5 -1.5t-1 -6.5q-2 -46 -2 -69q-1 0 29 -3q31 12 31 42z" />
    <glyph glyph-name="macron" unicode="&#xaf;" horiz-adv-x="398" 
d="M50 583l10 45l154 -1q31 0 73.5 2.5t55.5 3.5l6 -10l-7 -47l-142 -1l-144 -1z" />
    <glyph glyph-name="degree" unicode="&#xb0;" horiz-adv-x="302" 
d="M62 434q-37 37 -37 89q0 53 37 89.5t89 36.5q53 0 89.5 -36.5t36.5 -89.5q0 -52 -36.5 -89t-89.5 -37q-52 0 -89 37zM210.5 464q24.5 25 24.5 59q0 35 -24.5 59.5t-59.5 24.5q-34 0 -59 -24.5t-25 -59.5q0 -34 25 -59t59 -25q35 0 59.5 25z" />
    <glyph glyph-name="plusminus" unicode="&#xb1;" horiz-adv-x="506" 
d="M221 59l1 189l-198 -1l-6 9l11 49l193 -1l1 191l51 8l10 -6q-1 -19 -3.5 -81t-2.5 -112q50 0 116.5 2.5t87.5 3.5l6 -10l-8 -51l-202 -1l1 -184l-49 -11zM18 -66l11 49l239 -1q71 0 137 3q77 2 77 3l6 -10l-8 -51l-356 -1q-49 -1 -100 -1z" />
    <glyph glyph-name="uni00B2" unicode="&#xb2;" horiz-adv-x="329" 
d="M93 446q95 116 95 176q0 47 -51 47q-55 0 -92 -62h-7l-10 41q20 34 56 57t71 23q49 0 78.5 -23.5t29.5 -61.5t-32 -90.5t-112 -145.5l3 -5h82q32 0 45 11t21 46l38 4l-9 -45t-10 -66l-9 -6q-24 1 -87.5 3t-120.5 2l-42 -7l-6 25z" />
    <glyph glyph-name="uni00B3" unicode="&#xb3;" horiz-adv-x="293" 
d="M42.5 356q-10.5 13 -11.5 44l6 7q27 -8 53 -8q41 0 68.5 18.5t27.5 45.5q0 31 -25 45.5t-79 14.5l-5 5l-4 32l42 9q24 11 38.5 29t14.5 37t-12 30t-32 11q-17 0 -36.5 -7.5t-35.5 -20.5h-7l-10 37q14 11 48.5 27t64.5 16q39 0 64 -21t25 -54q0 -26 -19 -49.5t-51 -38.5
v-5q87 -24 87 -88q0 -30 -26 -60t-67.5 -49.5t-82.5 -19.5q-25 0 -35.5 13z" />
    <glyph glyph-name="acute" unicode="&#xb4;" horiz-adv-x="398" 
d="M149 523l-20 19q45 49 91 103t59 70l10 -2l38 -41l-1 -11q-15 -11 -65 -51.5t-103 -88.5z" />
    <glyph glyph-name="uni00B5" unicode="&#xb5;" horiz-adv-x="715" 
d="M180 387h-5q-4 -48 -14.5 -179t-10.5 -144t6 -18.5t20 -5.5h32l2 -3l-7 -40q-9 0 -34.5 1.5t-50.5 1.5q-20 0 -43 -2.5t-30 -3.5l4 41q26 3 37 15.5t15 43.5q8 68 21.5 191t13.5 138q0 20 -15.5 29.5t-53.5 11.5l-3 5l7 33q11 -1 39 -2.5t54 -1.5q22 0 40.5 1t24.5 2
q30 -93 58.5 -174.5t47 -130t23.5 -60.5h5q11 28 49.5 131t83.5 232q6 1 15.5 0.5t18.5 -0.5q11 -1 32 -1q16 0 46.5 2t40.5 3l2 -3l-5 -35q-35 -4 -49 -13.5t-14 -29.5t7 -127t14 -182q5 -45 13 -59t27 -14l23 1l2 -3l-7 -40q-8 0 -31 1t-49 1t-59 -3t-35 -3l4 41
q26 3 37 12t11 27t-10.5 143t-14.5 170h-5q-59 -151 -150 -395l-29 -6q-101 274 -151 401z" />
    <glyph glyph-name="paragraph" unicode="&#xb6;" horiz-adv-x="561" 
d="M130 -81q-39 24 -39 70q0 20 11.5 45.5t26.5 43.5h15q0 -66 26 -101t70 -35q42 0 63.5 18.5t29.5 59t8 114.5v444q-1 10 -4.5 12t-22.5 2q-49 0 -73.5 -40t-24.5 -107q0 -71 16 -119.5t53 -98.5v-15q-105 9 -174 67.5t-69 165.5q0 54 26 99t74 71t111 26q34 0 84 -2
l45 -2q36 0 73.5 1.5t51.5 1.5l-6 -42l-2 -4q-45 2 -61.5 -7.5t-18.5 -37.5q-6 -38 -8.5 -168t-2.5 -227q0 -90 -14 -145t-53.5 -84.5t-115.5 -29.5q-56 0 -95 24z" />
    <glyph glyph-name="periodcentered" unicode="&#xb7;" horiz-adv-x="238" 
d="M74.5 184.5q-14.5 16.5 -14.5 40.5q0 26 17 44t45 18q27 0 42 -16.5t15 -40.5q0 -26 -17.5 -44t-45.5 -18q-27 0 -41.5 16.5z" />
    <glyph glyph-name="cedilla" unicode="&#xb8;" horiz-adv-x="398" 
d="M120.5 -223q-21.5 10 -21.5 26t25 56h9q1 -27 15.5 -42t39.5 -15q20 0 34 10.5t14 27.5q0 16 -23 34.5t-62 40.5l33 108h43l-25 -73q7 -5 31.5 -21.5t39 -33.5t14.5 -34q0 -25 -18 -46.5t-46 -34.5t-56 -13q-25 0 -46.5 10z" />
    <glyph glyph-name="uni00B9" unicode="&#xb9;" horiz-adv-x="249" 
d="M39 379q31 2 44 13t13 38v209q0 22 -7.5 28.5t-25.5 6.5q-11 0 -20.5 -1t-12.5 -2l-3 3l3 32q53 7 74 10q84 12 78 12l5 -15q-12 -10 -17 -20.5t-7 -30.5q-3 -53 -4.5 -118t-1.5 -115q0 -24 6.5 -33.5t23.5 -9.5q11 0 20 1t12 1l2 -3l-7 -36q-9 0 -35 1t-53 1
q-23 0 -52.5 -3t-38.5 -4z" />
    <glyph glyph-name="ordmasculine" unicode="&#xba;" horiz-adv-x="338" 
d="M64 382.5q-36 39.5 -36 103.5q0 46 19.5 82.5t54.5 57.5t78 21q59 0 94.5 -39t35.5 -104q0 -70 -42.5 -115.5t-108.5 -45.5q-59 0 -95 39.5zM222 408.5q17 24.5 17 69.5q0 58 -20.5 90.5t-55.5 32.5q-31 0 -48 -24.5t-17 -69.5q0 -58 20.5 -90.5t55.5 -32.5q31 0 48 24.5
z" />
    <glyph glyph-name="guillemotright" unicode="&#xbb;" horiz-adv-x="427" 
d="M209 61l-1 10l107 149l-107 155l1 10l22 15q47 -49 101.5 -100t70.5 -66v-15q-16 -15 -70 -68.5t-102 -104.5zM43 61l-1 10l107 149l-107 155l1 10l22 15q47 -49 101.5 -100t70.5 -66v-15q-16 -15 -70 -68.5t-102 -104.5z" />
    <glyph glyph-name="onequarter" unicode="&#xbc;" horiz-adv-x="685" 
d="M39 295q31 2 44 13t13 38v209q0 22 -7.5 28.5t-25.5 6.5q-11 0 -20.5 -1t-12.5 -2l-3 3l3 32q53 7 74 10q84 12 78 12l5 -15q-12 -10 -17 -20.5t-7 -30.5q-3 -53 -4.5 -118t-1.5 -115q0 -24 6.5 -33.5t23.5 -9.5q11 0 20 1t12 1l2 -3l-7 -36q-9 0 -35 1t-53 1
q-23 0 -52.5 -3t-38.5 -4zM73 -76l-5 12q22 33 85 130t135 209l256 403l39 -19l5 -14q-29 -43 -118 -177.5t-144 -222.5q-71 -114 -132.5 -210.5t-82.5 -129.5zM534 -1q1 10 2.5 43t1.5 62l-154 3l2 34l172 235l3 1l39 -6v-219h55l5 -7l-6 -44l-54 2q1 -35 2 -62t2 -35
l-4 -6l-61 -7zM538 152v125h-6l-90 -125h96z" />
    <glyph glyph-name="onehalf" unicode="&#xbd;" horiz-adv-x="713" 
d="M39 295q31 2 44 13t13 38v209q0 22 -7.5 28.5t-25.5 6.5q-11 0 -20.5 -1t-12.5 -2l-3 3l3 32q53 7 74 10q84 12 78 12l5 -15q-12 -10 -17 -20.5t-7 -30.5q-3 -53 -4.5 -118t-1.5 -115q0 -24 6.5 -33.5t23.5 -9.5q11 0 20 1t12 1l2 -3l-7 -36q-9 0 -35 1t-53 1
q-23 0 -52.5 -3t-38.5 -4zM73 -76l-5 12q22 33 85 130t135 209l256 403l39 -19l5 -14q-29 -43 -118 -177.5t-144 -222.5q-71 -114 -132.5 -210.5t-82.5 -129.5zM477 95q95 116 95 176q0 47 -51 47q-55 0 -92 -62h-7l-10 41q20 34 56 57t71 23q49 0 78.5 -23.5t29.5 -61.5
t-32 -90.5t-112 -145.5l3 -5h82q32 0 45 11t21 46l38 4l-9 -45t-10 -66l-9 -6q-24 1 -87.5 3t-120.5 2l-42 -7l-6 25z" />
    <glyph glyph-name="threequarters" unicode="&#xbe;" horiz-adv-x="689" 
d="M42.5 272q-10.5 13 -11.5 44l6 7q27 -8 53 -8q41 0 68.5 18.5t27.5 45.5q0 31 -25 45.5t-79 14.5l-5 5l-4 32l42 9q24 11 38.5 29t14.5 37t-12 30t-32 11q-17 0 -36.5 -7.5t-35.5 -20.5h-7l-10 37q14 11 48.5 27t64.5 16q39 0 64 -21t25 -54q0 -26 -19 -49.5t-51 -38.5
v-5q87 -24 87 -88q0 -30 -26 -60t-67.5 -49.5t-82.5 -19.5q-25 0 -35.5 13zM77 -76l-5 12q22 33 85 130t135 209l256 403l39 -19l5 -14q-29 -43 -118 -177.5t-144 -222.5q-71 -114 -132.5 -210.5t-82.5 -129.5zM538 -1q1 10 2.5 43t1.5 62l-154 3l2 34l172 235l3 1l39 -6
v-219h55l5 -7l-6 -44l-54 2q1 -35 2 -62t2 -35l-4 -6l-61 -7zM542 152v125h-6l-90 -125h96z" />
    <glyph glyph-name="questiondown" unicode="&#xbf;" horiz-adv-x="291" 
d="M212.5 490.5q15.5 -15.5 15.5 -41.5q0 -27 -17.5 -44.5t-44.5 -17.5q-25 0 -41 16t-16 41q0 27 17.5 44.5t44.5 17.5q26 0 41.5 -15.5zM208 341l19 -82l-2 -11l-102 -63q-18 -11 -26 -24t-8 -31q0 -35 37 -52.5t127 -25.5l2 -8l-33 -52l-6 -4q-90 2 -145.5 38t-55.5 92
q0 37 30.5 68t107.5 71l2 5l-14 63l3 7l55 13z" />
    <glyph glyph-name="Agrave" unicode="&#xc0;" horiz-adv-x="584" 
d="M329 -3l4 39q51 4 70 12t19 26q0 20 -9 48l-33 109q-24 1 -104 1q-48 0 -109 -8l-37 -104q-9 -27 -9 -39q0 -22 14 -31.5t46 -9.5h57l2 -4l-6 -43q-12 1 -55 4t-84 3q-37 0 -68.5 -1t-41.5 -2l8 47q28 3 45 19.5t33 57.5l195 511l63 17h8q6 -24 30.5 -111t60 -206
t68.5 -219q12 -37 32 -52t64 -19l2 -4l-7 -41q-12 0 -43.5 1.5t-62.5 1.5q-48 0 -92.5 -4t-56.5 -6zM273 273q36 0 93 5l-79 262h-7l-95 -267h88zM227.5 749.5q-61.5 21.5 -78.5 27.5l-4 10l16 48l9 6q18 -10 79 -44t120 -65l-6 -24l-8 -5q-66 25 -127.5 46.5z" />
    <glyph glyph-name="Aacute" unicode="&#xc1;" horiz-adv-x="584" 
d="M329 -3l4 39q51 4 70 12t19 26q0 20 -9 48l-33 109q-24 1 -104 1q-48 0 -109 -8l-37 -104q-9 -27 -9 -39q0 -22 14 -31.5t46 -9.5h57l2 -4l-6 -43q-12 1 -55 4t-84 3q-37 0 -68.5 -1t-41.5 -2l8 47q28 3 45 19.5t33 57.5l195 511l63 17h8q6 -24 30.5 -111t60 -206
t68.5 -219q12 -37 32 -52t64 -19l2 -4l-7 -41q-12 0 -43.5 1.5t-62.5 1.5q-48 0 -92.5 -4t-56.5 -6zM273 273q36 0 93 5l-79 262h-7l-95 -267h88zM240 708l-6 24q59 31 120 65t79 44l9 -6l16 -48l-4 -10q-17 -6 -78.5 -27.5t-127.5 -46.5z" />
    <glyph glyph-name="Acircumflex" unicode="&#xc2;" horiz-adv-x="584" 
d="M329 -3l4 39q51 4 70 12t19 26q0 20 -9 48l-33 109q-24 1 -104 1q-48 0 -109 -8l-37 -104q-9 -27 -9 -39q0 -22 14 -31.5t46 -9.5h57l2 -4l-6 -43q-12 1 -55 4t-84 3q-37 0 -68.5 -1t-41.5 -2l8 47q28 3 45 19.5t33 57.5l195 511l63 17h8q6 -24 30.5 -111t60 -206
t68.5 -219q12 -37 32 -52t64 -19l2 -4l-7 -41q-12 0 -43.5 1.5t-62.5 1.5q-48 0 -92.5 -4t-56.5 -6zM273 273q36 0 93 5l-79 262h-7l-95 -267h88zM167 713l-14 22q41 31 83.5 65.5t54.5 45.5h14q12 -11 54.5 -45.5t83.5 -65.5l-14 -22l-9 -1q-67 39 -122 65
q-52 -24 -122 -65z" />
    <glyph glyph-name="Atilde" unicode="&#xc3;" horiz-adv-x="584" 
d="M329 -3l4 39q51 4 70 12t19 26q0 20 -9 48l-33 109q-24 1 -104 1q-48 0 -109 -8l-37 -104q-9 -27 -9 -39q0 -22 14 -31.5t46 -9.5h57l2 -4l-6 -43q-12 1 -55 4t-84 3q-37 0 -68.5 -1t-41.5 -2l8 47q28 3 45 19.5t33 57.5l195 511l63 17h8q6 -24 30.5 -111t60 -206
t68.5 -219q12 -37 32 -52t64 -19l2 -4l-7 -41q-12 0 -43.5 1.5t-62.5 1.5q-48 0 -92.5 -4t-56.5 -6zM273 273q36 0 93 5l-79 262h-7l-95 -267h88zM135 720v5l76 79l16 4q18 0 78 -18q9 -2 33.5 -8.5t34.5 -6.5t24 10t25 21l14 14h6l22 -21v-5l-76 -79l-16 -4q-18 0 -78 18
q-9 2 -33.5 8.5t-34.5 6.5q-11 0 -25 -10t-24.5 -21t-13.5 -14h-6z" />
    <glyph glyph-name="Adieresis" unicode="&#xc4;" horiz-adv-x="584" 
d="M329 -3l4 39q51 4 70 12t19 26q0 20 -9 48l-33 109q-24 1 -104 1q-48 0 -109 -8l-37 -104q-9 -27 -9 -39q0 -22 14 -31.5t46 -9.5h57l2 -4l-6 -43q-12 1 -55 4t-84 3q-37 0 -68.5 -1t-41.5 -2l8 47q28 3 45 19.5t33 57.5l195 511l63 17h8q6 -24 30.5 -111t60 -206
t68.5 -219q12 -37 32 -52t64 -19l2 -4l-7 -41q-12 0 -43.5 1.5t-62.5 1.5q-48 0 -92.5 -4t-56.5 -6zM273 273q36 0 93 5l-79 262h-7l-95 -267h88zM180 728q-11 13 -11 30q0 21 14.5 35.5t35.5 14.5q19 0 30 -12.5t11 -30.5q0 -21 -14.5 -35.5t-35.5 -14.5q-19 0 -30 13z
M346 728q-11 13 -11 30q0 21 14.5 35.5t35.5 14.5q19 0 30 -12.5t11 -30.5q0 -21 -14.5 -35.5t-35.5 -14.5q-19 0 -30 13z" />
    <glyph glyph-name="Aring" unicode="&#xc5;" horiz-adv-x="584" 
d="M329 -3l4 39q51 4 70 12t19 26q0 20 -9 48l-33 109q-24 1 -104 1q-48 0 -109 -8l-37 -104q-9 -27 -9 -39q0 -22 14 -31.5t46 -9.5h57l2 -4l-6 -43q-12 1 -55 4t-84 3q-37 0 -68.5 -1t-41.5 -2l8 47q28 3 45 19.5t33 57.5l195 511l63 17h8q6 -24 30.5 -111t60 -206
t68.5 -219q12 -37 32 -52t64 -19l2 -4l-7 -41q-12 0 -43.5 1.5t-62.5 1.5q-48 0 -92.5 -4t-56.5 -6zM273 273q36 0 93 5l-79 262h-7l-95 -267h88zM237 696q-20 22 -20 58q0 37 23 60.5t61 23.5t57.5 -22t19.5 -54q0 -36 -23 -62t-62 -26q-36 0 -56 22zM344 751
q0 22 -13.5 35t-37.5 13q-21 0 -32.5 -10.5t-11.5 -28.5q0 -24 16 -36t35 -12q44 0 44 39z" />
    <glyph glyph-name="AE" unicode="&#xc6;" horiz-adv-x="810" 
d="M362 44q20 5 28 14.5t8 28.5q0 18 -3 38.5t-4 27.5l-18 123l-99 -8l-91 -10l-71 -138q-16 -31 -16 -46q0 -34 55 -34h57l-5 -47q-13 1 -55.5 4t-82.5 3q-20 0 -40 -1.5t-28 -2.5l-7 35q3 3 12.5 14.5t23.5 31.5t27 44l247 457q-4 16 -25 16q-10 0 -20 -1t-14 -1l-2 4
l7 44h23q81 -3 136 -3q120 0 186.5 2.5t111.5 9.5l3 -6q-1 -6 -5.5 -28.5t-9.5 -59.5t-8 -78l-48 -4q0 5 1 17.5t1 25.5q0 35 -9.5 48.5t-40.5 18t-107 4.5q-33 0 -46.5 -2t-18 -8t-5.5 -21l31 -228l118 11l92 13l4 -5l-13 -53l-86 -3l-109 -9l28 -169q6 -38 24.5 -53
t59.5 -15q77 0 110 8t46.5 32t21.5 82l44 5l3 -5q-3 -14 -12 -64.5t-15 -103.5l-5 -6l-50 1q-114 6 -219 6h-34q-48 0 -92 -4t-56 -6l-2 7l2 39q41 3 61 8zM367 321l-30 218h-9l-118 -229l84 5z" />
    <glyph glyph-name="Ccedilla" unicode="&#xc7;" horiz-adv-x="626" 
d="M181 26q-68 38 -104.5 107.5t-36.5 163.5q0 100 45 180.5t124.5 126t179.5 45.5q37 0 75.5 -5.5t65 -11t33.5 -7.5l4 -6q-2 -6 -6.5 -29t-10 -60t-8.5 -78l-48 -4q1 5 2 18.5t1 30.5q0 93 -147 93q-66 0 -116 -32t-77 -90.5t-27 -137.5q0 -87 28.5 -153t80.5 -102.5
t120 -36.5t109.5 38.5t60.5 119.5l48 4q-3 -15 -13 -66.5t-14 -96.5l-6 -9q0 -1 -30.5 -11.5t-76 -19.5t-98.5 -9q-90 0 -158 38zM267.5 -223q-21.5 10 -21.5 26t25 56h9q1 -27 15.5 -42t39.5 -15q20 0 34 10.5t14 27.5q0 16 -23 34.5t-62 40.5l33 108h43l-25 -73
q7 -5 31.5 -21.5t39 -33.5t14.5 -34q0 -25 -18 -46.5t-46 -34.5t-56 -13q-25 0 -46.5 10z" />
    <glyph glyph-name="Egrave" unicode="&#xc8;" horiz-adv-x="591" 
d="M532 167q-17 -81 -27 -168l-5 -6q-210 7 -303 7q-74 0 -139 -10l6 46q45 6 61.5 23.5t16.5 60.5l1 420q0 32 -7.5 43t-29.5 11l-34 -2l-2 4l7 44q102 -3 139 -3q119 0 185 2.5t115 9.5l3 -6q-18 -79 -23 -166l-48 -4l2 43q0 35 -9 48.5t-39 18t-105 4.5q-35 0 -48 -2
t-17 -9.5t-5 -27.5l-8 -194l103 -1q39 0 122 11l4 -5l-14 -59q-111 3 -140 3q-33 0 -77 -7l-4 -191q0 -29 5 -40.5t20.5 -15.5t53.5 -4q84 0 119.5 8t50.5 32t23 82l44 5zM239.5 749.5q-61.5 21.5 -78.5 27.5l-4 10l16 48l9 6q18 -10 79 -44t120 -65l-6 -24l-8 -5
q-66 25 -127.5 46.5z" />
    <glyph glyph-name="Eacute" unicode="&#xc9;" horiz-adv-x="591" 
d="M532 167q-17 -81 -27 -168l-5 -6q-210 7 -303 7q-74 0 -139 -10l6 46q45 6 61.5 23.5t16.5 60.5l1 420q0 32 -7.5 43t-29.5 11l-34 -2l-2 4l7 44q102 -3 139 -3q119 0 185 2.5t115 9.5l3 -6q-18 -79 -23 -166l-48 -4l2 43q0 35 -9 48.5t-39 18t-105 4.5q-35 0 -48 -2
t-17 -9.5t-5 -27.5l-8 -194l103 -1q39 0 122 11l4 -5l-14 -59q-111 3 -140 3q-33 0 -77 -7l-4 -191q0 -29 5 -40.5t20.5 -15.5t53.5 -4q84 0 119.5 8t50.5 32t23 82l44 5zM252 708l-6 24q59 31 120 65t79 44l9 -6l16 -48l-4 -10q-17 -6 -78.5 -27.5t-127.5 -46.5z" />
    <glyph glyph-name="Ecircumflex" unicode="&#xca;" horiz-adv-x="591" 
d="M532 167q-17 -81 -27 -168l-5 -6q-210 7 -303 7q-74 0 -139 -10l6 46q45 6 61.5 23.5t16.5 60.5l1 420q0 32 -7.5 43t-29.5 11l-34 -2l-2 4l7 44q102 -3 139 -3q119 0 185 2.5t115 9.5l3 -6q-18 -79 -23 -166l-48 -4l2 43q0 35 -9 48.5t-39 18t-105 4.5q-35 0 -48 -2
t-17 -9.5t-5 -27.5l-8 -194l103 -1q39 0 122 11l4 -5l-14 -59q-111 3 -140 3q-33 0 -77 -7l-4 -191q0 -29 5 -40.5t20.5 -15.5t53.5 -4q84 0 119.5 8t50.5 32t23 82l44 5zM179 713l-14 22q41 31 83.5 65.5t54.5 45.5h14q12 -11 54.5 -45.5t83.5 -65.5l-14 -22l-9 -1
q-67 39 -122 65q-52 -24 -122 -65z" />
    <glyph glyph-name="Edieresis" unicode="&#xcb;" horiz-adv-x="591" 
d="M532 167q-17 -81 -27 -168l-5 -6q-210 7 -303 7q-74 0 -139 -10l6 46q45 6 61.5 23.5t16.5 60.5l1 420q0 32 -7.5 43t-29.5 11l-34 -2l-2 4l7 44q102 -3 139 -3q119 0 185 2.5t115 9.5l3 -6q-18 -79 -23 -166l-48 -4l2 43q0 35 -9 48.5t-39 18t-105 4.5q-35 0 -48 -2
t-17 -9.5t-5 -27.5l-8 -194l103 -1q39 0 122 11l4 -5l-14 -59q-111 3 -140 3q-33 0 -77 -7l-4 -191q0 -29 5 -40.5t20.5 -15.5t53.5 -4q84 0 119.5 8t50.5 32t23 82l44 5zM192 728q-11 13 -11 30q0 21 14.5 35.5t35.5 14.5q19 0 30 -12.5t11 -30.5q0 -21 -14.5 -35.5
t-35.5 -14.5q-19 0 -30 13zM358 728q-11 13 -11 30q0 21 14.5 35.5t35.5 14.5q19 0 30 -12.5t11 -30.5q0 -21 -14.5 -35.5t-35.5 -14.5q-19 0 -30 13z" />
    <glyph glyph-name="Igrave" unicode="&#xcc;" horiz-adv-x="361" 
d="M62 34q47 9 63.5 26.5t16.5 59.5l1 420q0 32 -7.5 43t-29.5 11l-42 -2l-2 4l7 44q16 0 25 -1l94 -2q45 0 115 9l-4 -45q-41 -5 -55.5 -16.5t-16.5 -40.5q-6 -117 -10 -244.5t-4 -187.5q0 -41 9 -54.5t35 -13.5q17 0 53 3l2 -4l-9 -46q-14 0 -22 1q-70 2 -109 2
q-49 0 -116 -12zM101.5 739.5q-61.5 21.5 -78.5 27.5l-4 10l16 48l9 6q18 -10 79 -44t120 -65l-6 -24l-8 -5q-66 25 -127.5 46.5z" />
    <glyph glyph-name="Iacute" unicode="&#xcd;" horiz-adv-x="361" 
d="M62 34q47 9 63.5 26.5t16.5 59.5l1 420q0 32 -7.5 43t-29.5 11l-42 -2l-2 4l7 44q16 0 25 -1l94 -2q45 0 115 9l-4 -45q-41 -5 -55.5 -16.5t-16.5 -40.5q-6 -117 -10 -244.5t-4 -187.5q0 -41 9 -54.5t35 -13.5q17 0 53 3l2 -4l-9 -46q-14 0 -22 1q-70 2 -109 2
q-49 0 -116 -12zM95 708l-6 24q59 31 120 65t79 44l9 -6l16 -48l-4 -10q-17 -6 -78.5 -27.5t-127.5 -46.5z" />
    <glyph glyph-name="Icircumflex" unicode="&#xce;" horiz-adv-x="361" 
d="M62 34q47 9 63.5 26.5t16.5 59.5l1 420q0 32 -7.5 43t-29.5 11l-42 -2l-2 4l7 44q16 0 25 -1l94 -2q45 0 115 9l-4 -45q-41 -5 -55.5 -16.5t-16.5 -40.5q-6 -117 -10 -244.5t-4 -187.5q0 -41 9 -54.5t35 -13.5q17 0 53 3l2 -4l-9 -46q-14 0 -22 1q-70 2 -109 2
q-49 0 -116 -12zM50 713l-14 22q41 31 83.5 65.5t54.5 45.5h14q12 -11 54.5 -45.5t83.5 -65.5l-14 -22l-9 -1q-67 39 -122 65q-52 -24 -122 -65z" />
    <glyph glyph-name="Eth" unicode="&#xd0;" horiz-adv-x="713" 
d="M260.5 -5q-48.5 5 -80.5 5q-31 0 -67.5 -5t-47.5 -7l6 46q37 7 52.5 17t20.5 32.5t5 73.5v147h-133l-7 7l7 32h133l1 197q0 32 -7.5 43t-29.5 11q-10 0 -20 -1t-14 -1l-2 4l7 44q11 -1 42 -2t63 -1q43 0 89 1.5t63 2.5q95 0 170 -38.5t117 -106.5t42 -154q0 -98 -46 -179
t-125 -128t-175 -47q-15 2 -63.5 7zM397 343l5 -7l-6 -32h-170l-5 -173q0 -37 11 -56.5t37.5 -27.5t77.5 -8q108 0 170 74.5t62 204.5q0 132 -79.5 203t-227.5 71q-21 0 -28 -4.5t-8 -17.5l-9 -227h170z" />
    <glyph glyph-name="Ntilde" unicode="&#xd1;" horiz-adv-x="719" 
d="M400.5 217.5q-82.5 122.5 -135.5 198t-67 95.5h-5l-5 -427q0 -22 7 -31t24 -9l51 1l2 -4l-9 -45q-11 1 -45 2.5t-61 1.5q-25 0 -54.5 -3.5t-38.5 -4.5l5 46q31 4 46 18.5t16 44.5l13 437q0 31 -18.5 44t-68.5 18l-3 5l8 37q9 -1 39 -3t47 -2q21 0 41 1.5t26 2.5
q74 -115 148.5 -225t124.5 -181t63 -90h5v405q0 43 -33 43l-38 -1l-2 4l9 45q10 -1 38 -2.5t57 -1.5q26 0 57.5 3.5t41.5 4.5l-5 -46q-35 -5 -51 -19.5t-17 -43.5l-14 -562l-29 -14q-87 135 -169.5 257.5zM208 720v5l76 79l16 4q18 0 78 -18q9 -2 33.5 -8.5t34.5 -6.5t24 10
t25 21l14 14h6l22 -21v-5l-76 -79l-16 -4q-18 0 -78 18q-9 2 -33.5 8.5t-34.5 6.5q-11 0 -25 -10t-24.5 -21t-13.5 -14h-6z" />
    <glyph glyph-name="Ograve" unicode="&#xd2;" horiz-adv-x="692" 
d="M173 27q-63 39 -98 109.5t-35 160.5q0 98 43.5 178.5t119 127t166.5 46.5q83 0 147 -39t100 -109t36 -160q0 -98 -44.5 -179t-121 -127.5t-169.5 -46.5q-81 0 -144 39zM460 72q49 33 76 92t27 135q0 85 -29 150.5t-80.5 102.5t-118.5 37q-61 0 -108.5 -33t-74 -92
t-26.5 -135q0 -85 28 -150.5t78.5 -102.5t115.5 -37q63 0 112 33zM271.5 749.5q-61.5 21.5 -78.5 27.5l-4 10l16 48l9 6q18 -10 79 -44t120 -65l-6 -24l-8 -5q-66 25 -127.5 46.5z" />
    <glyph glyph-name="Oacute" unicode="&#xd3;" horiz-adv-x="692" 
d="M173 27q-63 39 -98 109.5t-35 160.5q0 98 43.5 178.5t119 127t166.5 46.5q83 0 147 -39t100 -109t36 -160q0 -98 -44.5 -179t-121 -127.5t-169.5 -46.5q-81 0 -144 39zM460 72q49 33 76 92t27 135q0 85 -29 150.5t-80.5 102.5t-118.5 37q-61 0 -108.5 -33t-74 -92
t-26.5 -135q0 -85 28 -150.5t78.5 -102.5t115.5 -37q63 0 112 33zM284 708l-6 24q59 31 120 65t79 44l9 -6l16 -48l-4 -10q-17 -6 -78.5 -27.5t-127.5 -46.5z" />
    <glyph glyph-name="Ocircumflex" unicode="&#xd4;" horiz-adv-x="692" 
d="M173 27q-63 39 -98 109.5t-35 160.5q0 98 43.5 178.5t119 127t166.5 46.5q83 0 147 -39t100 -109t36 -160q0 -98 -44.5 -179t-121 -127.5t-169.5 -46.5q-81 0 -144 39zM460 72q49 33 76 92t27 135q0 85 -29 150.5t-80.5 102.5t-118.5 37q-61 0 -108.5 -33t-74 -92
t-26.5 -135q0 -85 28 -150.5t78.5 -102.5t115.5 -37q63 0 112 33zM211 713l-14 22q41 31 83.5 65.5t54.5 45.5h14q12 -11 54.5 -45.5t83.5 -65.5l-14 -22l-9 -1q-67 39 -122 65q-52 -24 -122 -65z" />
    <glyph glyph-name="Otilde" unicode="&#xd5;" horiz-adv-x="692" 
d="M173 27q-63 39 -98 109.5t-35 160.5q0 98 43.5 178.5t119 127t166.5 46.5q83 0 147 -39t100 -109t36 -160q0 -98 -44.5 -179t-121 -127.5t-169.5 -46.5q-81 0 -144 39zM460 72q49 33 76 92t27 135q0 85 -29 150.5t-80.5 102.5t-118.5 37q-61 0 -108.5 -33t-74 -92
t-26.5 -135q0 -85 28 -150.5t78.5 -102.5t115.5 -37q63 0 112 33zM179 720v5l76 79l16 4q18 0 78 -18q9 -2 33.5 -8.5t34.5 -6.5t24 10t25 21l14 14h6l22 -21v-5l-76 -79l-16 -4q-18 0 -78 18q-9 2 -33.5 8.5t-34.5 6.5q-11 0 -25 -10t-24.5 -21t-13.5 -14h-6z" />
    <glyph glyph-name="multiply" unicode="&#xd7;" horiz-adv-x="506" 
d="M102 83l-27 42q13 13 51.5 50.5t86.5 85.5l-145 144l2 11l43 26l140 -141q46 47 85.5 90t53.5 58l11 -3l31 -42l-142 -143q36 -36 83 -79t62 -56l-3 -12l-42 -30l-139 138q-49 -49 -88 -89t-52 -53z" />
    <glyph glyph-name="Oslash" unicode="&#xd8;" horiz-adv-x="692" 
d="M614.5 504q37.5 -71 37.5 -163q0 -98 -44.5 -179t-121 -127.5t-169.5 -46.5q-67 0 -121 27l-60 -113l-27 6l-2 10l59 113q-59 40 -92.5 109t-33.5 157q0 98 43.5 178.5t119 127t166.5 46.5q58 0 109 -20l42 79l29 -7l3 -12l-41 -76q66 -38 103.5 -109zM146 200
q20 -58 57 -98l239 458q-47 29 -107 29q-61 0 -108.5 -33t-74 -92t-26.5 -135q0 -71 20 -129zM460 72q49 33 76 92t27 135q0 77 -24 139t-68 100l-241 -460q51 -39 118 -39q63 0 112 33z" />
    <glyph glyph-name="Ugrave" unicode="&#xd9;" horiz-adv-x="681" 
d="M165 45.5q-57 57.5 -57 163.5v331q0 32 -7.5 43t-29.5 11q-10 0 -20 -1t-14 -1l-2 4l7 44q12 -1 45.5 -2t67.5 -1q27 0 61 3.5t44 5.5l-4 -45q-37 -5 -49.5 -16.5t-14.5 -40.5l-8 -294q0 -99 43 -152t124 -53q82 0 125 43.5t43 125.5q-1 80 -3 182.5t-3 143.5
q-2 35 -8.5 44.5t-28.5 9.5q-12 0 -25 -1t-18 -1l-2 4l7 44q12 -1 45.5 -2t67.5 -1q27 0 57.5 3.5t39.5 5.5l-4 -45q-30 -4 -44.5 -9.5t-19.5 -16t-5 -31.5v-336q0 -105 -65 -162.5t-183 -57.5q-105 0 -162 57.5zM276.5 749.5q-61.5 21.5 -78.5 27.5l-4 10l16 48l9 6
q18 -10 79 -44t120 -65l-6 -24l-8 -5q-66 25 -127.5 46.5z" />
    <glyph glyph-name="Uacute" unicode="&#xda;" horiz-adv-x="681" 
d="M165 45.5q-57 57.5 -57 163.5v331q0 32 -7.5 43t-29.5 11q-10 0 -20 -1t-14 -1l-2 4l7 44q12 -1 45.5 -2t67.5 -1q27 0 61 3.5t44 5.5l-4 -45q-37 -5 -49.5 -16.5t-14.5 -40.5l-8 -294q0 -99 43 -152t124 -53q82 0 125 43.5t43 125.5q-1 80 -3 182.5t-3 143.5
q-2 35 -8.5 44.5t-28.5 9.5q-12 0 -25 -1t-18 -1l-2 4l7 44q12 -1 45.5 -2t67.5 -1q27 0 57.5 3.5t39.5 5.5l-4 -45q-30 -4 -44.5 -9.5t-19.5 -16t-5 -31.5v-336q0 -105 -65 -162.5t-183 -57.5q-105 0 -162 57.5zM289 708l-6 24q59 31 120 65t79 44l9 -6l16 -48l-4 -10
q-17 -6 -78.5 -27.5t-127.5 -46.5z" />
    <glyph glyph-name="Ucircumflex" unicode="&#xdb;" horiz-adv-x="681" 
d="M165 45.5q-57 57.5 -57 163.5v331q0 32 -7.5 43t-29.5 11q-10 0 -20 -1t-14 -1l-2 4l7 44q12 -1 45.5 -2t67.5 -1q27 0 61 3.5t44 5.5l-4 -45q-37 -5 -49.5 -16.5t-14.5 -40.5l-8 -294q0 -99 43 -152t124 -53q82 0 125 43.5t43 125.5q-1 80 -3 182.5t-3 143.5
q-2 35 -8.5 44.5t-28.5 9.5q-12 0 -25 -1t-18 -1l-2 4l7 44q12 -1 45.5 -2t67.5 -1q27 0 57.5 3.5t39.5 5.5l-4 -45q-30 -4 -44.5 -9.5t-19.5 -16t-5 -31.5v-336q0 -105 -65 -162.5t-183 -57.5q-105 0 -162 57.5zM216 713l-14 22q41 31 83.5 65.5t54.5 45.5h14
q12 -11 54.5 -45.5t83.5 -65.5l-14 -22l-9 -1q-67 39 -122 65q-52 -24 -122 -65z" />
    <glyph glyph-name="Udieresis" unicode="&#xdc;" horiz-adv-x="681" 
d="M165 45.5q-57 57.5 -57 163.5v331q0 32 -7.5 43t-29.5 11q-10 0 -20 -1t-14 -1l-2 4l7 44q12 -1 45.5 -2t67.5 -1q27 0 61 3.5t44 5.5l-4 -45q-37 -5 -49.5 -16.5t-14.5 -40.5l-8 -294q0 -99 43 -152t124 -53q82 0 125 43.5t43 125.5q-1 80 -3 182.5t-3 143.5
q-2 35 -8.5 44.5t-28.5 9.5q-12 0 -25 -1t-18 -1l-2 4l7 44q12 -1 45.5 -2t67.5 -1q27 0 57.5 3.5t39.5 5.5l-4 -45q-30 -4 -44.5 -9.5t-19.5 -16t-5 -31.5v-336q0 -105 -65 -162.5t-183 -57.5q-105 0 -162 57.5zM229 728q-11 13 -11 30q0 21 14.5 35.5t35.5 14.5
q19 0 30 -12.5t11 -30.5q0 -21 -14.5 -35.5t-35.5 -14.5q-19 0 -30 13zM395 728q-11 13 -11 30q0 21 14.5 35.5t35.5 14.5q19 0 30 -12.5t11 -30.5q0 -21 -14.5 -35.5t-35.5 -14.5q-19 0 -30 13z" />
    <glyph glyph-name="Thorn" unicode="&#xde;" horiz-adv-x="543" 
d="M62 34q47 9 63.5 26.5t16.5 59.5l1 420q0 32 -7.5 43t-29.5 11q-13 0 -25.5 -1t-16.5 -1l-2 4l7 44q13 -1 48 -2t71 -1q29 0 66.5 3.5t48.5 5.5l-4 -45q-42 -5 -56 -16.5t-16 -40.5l-1 -20q-2 -16 -1 -21h82q103 0 158.5 -42t55.5 -121q0 -50 -33 -94.5t-87.5 -71
t-116.5 -26.5h-71v-36q0 -41 9 -54.5t35 -13.5q18 0 33 1t20 2l2 -4l-9 -46q-14 1 -52.5 2t-78.5 1q-32 0 -68.5 -5t-47.5 -7zM406.5 232q30.5 33 30.5 89q0 69 -45 101t-143 32q-17 0 -21 -1.5t-6 -6.5q-6 -140 -8 -237q18 -6 49 -11t53 -6q60 7 90.5 40z" />
    <glyph glyph-name="germandbls" unicode="&#xdf;" horiz-adv-x="646" 
d="M357 -3q-29 6 -46 12.5t-21 8.5l-5 9q1 11 5 49t6 78l44 4q0 -50 8 -75t28.5 -34.5t62.5 -9.5q41 0 66.5 26.5t25.5 69.5q0 51 -34.5 78t-101.5 27q-20 0 -41 -2.5t-27 -3.5l-17 27l147 190h-199q-27 0 -37 -1.5t-13 -7t-4 -20.5l-11 -327q0 -31 7 -41.5t27 -10.5
q10 0 19.5 1t12.5 1l3 -5l-8 -43q-10 1 -38 2t-59 1q-29 0 -61 -3.5t-42 -5.5l5 41q38 7 50.5 20.5t12.5 47.5l1 317q0 25 -6 33.5t-24 8.5l-27 -1l-2 4l6 38q19 0 69 -1t98 -1q73 0 174 2t133 3l12 -20l-143 -178l28 -1q75 -2 123 -42t48 -101q0 -49 -24.5 -87.5t-68 -60.5
t-98.5 -22q-35 0 -64 6z" />
    <glyph glyph-name="agrave" unicode="&#xe0;" horiz-adv-x="510" 
d="M194.5 653.5q-50.5 40.5 -65.5 51.5l-1 11l38 41l10 2q13 -16 59 -69.5t91 -102.5l-20 -19l-9 -2q-52 47 -102.5 87.5zM281 -2l3 36q42 3 56.5 9t14.5 20q0 16 -7 34l-24 77q-20 1 -83 1q-29 0 -86 -6l-28 -74q-7 -23 -7 -28q0 -16 11 -23t36 -7h43l3 -4l-6 -38
q-10 1 -45.5 3t-69.5 2q-32 0 -57.5 -1t-34.5 -1l6 41q22 3 35 15.5t26 42.5l157 397l71 13l7 -1q0 -4 45.5 -158t81.5 -255q10 -29 25.5 -40.5t49.5 -14.5l2 -4l-5 -36q-10 0 -37 1t-54 1q-41 0 -78 -3t-48 -4zM239 216q35 0 73 4l-61 194h-7l-73 -198h68z" />
    <glyph glyph-name="aacute" unicode="&#xe1;" horiz-adv-x="510" 
d="M176 568l-20 19q45 49 91 103t59 70l10 -2l38 -41l-1 -11q-15 -11 -65 -51.5t-103 -88.5zM281 -2l3 36q42 3 56.5 9t14.5 20q0 16 -7 34l-24 77q-20 1 -83 1q-29 0 -86 -6l-28 -74q-7 -23 -7 -28q0 -16 11 -23t36 -7h43l3 -4l-6 -38q-10 1 -45.5 3t-69.5 2
q-32 0 -57.5 -1t-34.5 -1l6 41q22 3 35 15.5t26 42.5l157 397l71 13l7 -1q0 -4 45.5 -158t81.5 -255q10 -29 25.5 -40.5t49.5 -14.5l2 -4l-5 -36q-10 0 -37 1t-54 1q-41 0 -78 -3t-48 -4zM239 216q35 0 73 4l-61 194h-7l-73 -198h68z" />
    <glyph glyph-name="acircumflex" unicode="&#xe2;" horiz-adv-x="510" 
d="M130 552l-14 22q41 43 83.5 91t54.5 62h14q12 -14 54.5 -62.5t83.5 -90.5l-14 -22l-9 -1q-38 34 -101 81l-21 16q-78 -58 -122 -97zM281 -2l3 36q42 3 56.5 9t14.5 20q0 16 -7 34l-24 77q-20 1 -83 1q-29 0 -86 -6l-28 -74q-7 -23 -7 -28q0 -16 11 -23t36 -7h43l3 -4
l-6 -38q-10 1 -45.5 3t-69.5 2q-32 0 -57.5 -1t-34.5 -1l6 41q22 3 35 15.5t26 42.5l157 397l71 13l7 -1q0 -4 45.5 -158t81.5 -255q10 -29 25.5 -40.5t49.5 -14.5l2 -4l-5 -36q-10 0 -37 1t-54 1q-41 0 -78 -3t-48 -4zM239 216q35 0 73 4l-61 194h-7l-73 -198h68z" />
    <glyph glyph-name="atilde" unicode="&#xe3;" horiz-adv-x="510" 
d="M90 613v5l76 89l16 4q18 0 78 -18q9 -2 33.5 -8.5t34.5 -6.5t24 12t25 25.5t14 17.5h6l22 -21v-5l-76 -89l-16 -4q-18 0 -78 18q-9 2 -33.5 8.5t-34.5 6.5q-11 0 -25 -12t-24.5 -25.5t-13.5 -17.5h-6zM281 -2l3 36q42 3 56.5 9t14.5 20q0 16 -7 34l-24 77q-20 1 -83 1
q-29 0 -86 -6l-28 -74q-7 -23 -7 -28q0 -16 11 -23t36 -7h43l3 -4l-6 -38q-10 1 -45.5 3t-69.5 2q-32 0 -57.5 -1t-34.5 -1l6 41q22 3 35 15.5t26 42.5l157 397l71 13l7 -1q0 -4 45.5 -158t81.5 -255q10 -29 25.5 -40.5t49.5 -14.5l2 -4l-5 -36q-10 0 -37 1t-54 1
q-41 0 -78 -3t-48 -4zM239 216q35 0 73 4l-61 194h-7l-73 -198h68z" />
    <glyph glyph-name="adieresis" unicode="&#xe4;" horiz-adv-x="510" 
d="M137 604q-11 13 -11 30q0 21 14.5 35.5t35.5 14.5q19 0 30 -12.5t11 -30.5q0 -21 -14.5 -35.5t-35.5 -14.5q-19 0 -30 13zM303 604q-11 13 -11 30q0 21 14.5 35.5t35.5 14.5q19 0 30 -12.5t11 -30.5q0 -21 -14.5 -35.5t-35.5 -14.5q-19 0 -30 13zM281 -2l3 36
q42 3 56.5 9t14.5 20q0 16 -7 34l-24 77q-20 1 -83 1q-29 0 -86 -6l-28 -74q-7 -23 -7 -28q0 -16 11 -23t36 -7h43l3 -4l-6 -38q-10 1 -45.5 3t-69.5 2q-32 0 -57.5 -1t-34.5 -1l6 41q22 3 35 15.5t26 42.5l157 397l71 13l7 -1q0 -4 45.5 -158t81.5 -255q10 -29 25.5 -40.5
t49.5 -14.5l2 -4l-5 -36q-10 0 -37 1t-54 1q-41 0 -78 -3t-48 -4zM239 216q35 0 73 4l-61 194h-7l-73 -198h68z" />
    <glyph glyph-name="aring" unicode="&#xe5;" horiz-adv-x="510" 
d="M200.5 590.5q-20.5 21.5 -20.5 58.5t23.5 60.5t60.5 23.5q35 0 56 -20.5t21 -55.5q0 -38 -24 -63t-61 -25q-35 0 -55.5 21.5zM295.5 617q11.5 10 11.5 29q0 22 -14 35t-37 13q-21 0 -32.5 -10t-11.5 -29q0 -20 14.5 -34t36.5 -14q21 0 32.5 10zM281 -2l3 36q42 3 56.5 9
t14.5 20q0 16 -7 34l-24 77q-20 1 -83 1q-29 0 -86 -6l-28 -74q-7 -23 -7 -28q0 -16 11 -23t36 -7h43l3 -4l-6 -38q-10 1 -45.5 3t-69.5 2q-32 0 -57.5 -1t-34.5 -1l6 41q22 3 35 15.5t26 42.5l157 397l71 13l7 -1q0 -4 45.5 -158t81.5 -255q10 -29 25.5 -40.5t49.5 -14.5
l2 -4l-5 -36q-10 0 -37 1t-54 1q-41 0 -78 -3t-48 -4zM239 216q35 0 73 4l-61 194h-7l-73 -198h68z" />
    <glyph glyph-name="ae" unicode="&#xe6;" horiz-adv-x="699" 
d="M323.5 45.5q14.5 7.5 14.5 27.5q0 12 -2 26.5t-3 20.5l-13 88l-79 -6l-73 -10l-53 -97q-12 -23 -12 -34q0 -13 10.5 -18.5t34.5 -5.5l42 -1l-5 -41q-11 1 -49 3t-70 2q-17 0 -34 -1t-23 -2l-5 34q3 0 19.5 20t31.5 46l195 348q-2 8 -7 11t-14 3l-27 -1l-3 4l6 38h28
q52 -2 120 -2q179 0 249 9l3 -5q-2 -11 -9 -50t-10 -84l-48 -4q0 4 1 13.5t1 19.5q0 26 -8 36.5t-32 14t-83 3.5q-25 0 -35.5 -1.5t-14 -6.5t-4.5 -16l24 -166l92 9l77 12l4 -6l-10 -49l-72 -3l-85 -7l21 -121q5 -29 20 -41t46 -12q60 0 85.5 6t36.5 24.5t17 63.5l45 4l3 -5
q-3 -11 -10.5 -51.5t-11.5 -84.5l-5 -5l-48 1q-98 4 -178 4h-29q-40 0 -76.5 -3t-46.5 -4l-2 5l2 36q47 4 61.5 11.5zM314 252l-23 161h-8l-91 -170l65 4z" />
    <glyph glyph-name="ccedilla" unicode="&#xe7;" horiz-adv-x="533" 
d="M484 163q-3 -12 -10.5 -54t-10.5 -79l-6 -8q-5 -2 -25.5 -8.5t-54.5 -13.5t-74 -9l-14 -41q7 -5 31.5 -21.5t39 -33.5t14.5 -34q0 -25 -18 -46.5t-46 -34.5t-56 -13q-25 0 -46.5 10t-21.5 26t25 56h9q1 -27 16 -42t39 -15q20 0 34 10.5t14 27.5q0 16 -23 34.5t-62 40.5
l23 77q-102 8 -161 72t-59 169q0 79 36.5 141.5t102 97.5t148.5 35q30 0 62.5 -4t55 -9t28.5 -6l4 -6q-1 -5 -5 -23.5t-9 -48.5t-7 -64l-50 -3q0 3 1 14t1 25q0 70 -112 70q-78 0 -123 -51.5t-45 -141.5q0 -100 47.5 -159t127.5 -59q53 0 84.5 28.5t45.5 89.5z" />
    <glyph glyph-name="egrave" unicode="&#xe8;" horiz-adv-x="508" 
d="M195 654q-50 40 -65 51l-1 11l38 41l10 2q13 -16 59 -69.5t91 -102.5l-20 -19l-9 -2q-53 48 -103 88zM59 34q37 4 50 18t13 48l1 317q0 25 -6 33.5t-24 8.5l-27 -1l-2 4l6 38q12 0 47 -1t76 -1q167 0 247 9l3 -5q-2 -11 -9 -50t-10 -84l-48 -4q0 4 1 13.5t1 19.5
q0 26 -7.5 36.5t-31 14t-81.5 3.5q-27 0 -37 -1.5t-13 -7t-4 -20.5l-6 -142l82 -1q18 0 53 3.5t46 4.5l4 -5l-12 -52q-11 0 -43.5 1t-68.5 1q-28 0 -63 -5q-3 -76 -3 -137q0 -23 3.5 -32t16 -12t41.5 -3q65 0 93 6t39.5 24.5t18.5 63.5l44 4l4 -5q-3 -11 -10.5 -51.5
t-11.5 -84.5l-6 -5q-27 1 -112 3t-138 2q-41 0 -76 -3.5l-45 -4.5z" />
    <glyph glyph-name="eacute" unicode="&#xe9;" horiz-adv-x="508" 
d="M177 568l-20 19q45 49 91 103t59 70l10 -2l38 -41l-1 -11q-15 -11 -65 -51.5t-103 -88.5zM59 34q37 4 50 18t13 48l1 317q0 25 -6 33.5t-24 8.5l-27 -1l-2 4l6 38q12 0 47 -1t76 -1q167 0 247 9l3 -5q-2 -11 -9 -50t-10 -84l-48 -4q0 4 1 13.5t1 19.5q0 26 -7.5 36.5
t-31 14t-81.5 3.5q-27 0 -37 -1.5t-13 -7t-4 -20.5l-6 -142l82 -1q18 0 53 3.5t46 4.5l4 -5l-12 -52q-11 0 -43.5 1t-68.5 1q-28 0 -63 -5q-3 -76 -3 -137q0 -23 3.5 -32t16 -12t41.5 -3q65 0 93 6t39.5 24.5t18.5 63.5l44 4l4 -5q-3 -11 -10.5 -51.5t-11.5 -84.5l-6 -5
q-27 1 -112 3t-138 2q-41 0 -76 -3.5l-45 -4.5z" />
    <glyph glyph-name="ecircumflex" unicode="&#xea;" horiz-adv-x="508" 
d="M131 552l-14 22q41 43 83.5 91t54.5 62h14q12 -14 54.5 -62.5t83.5 -90.5l-14 -22l-9 -1q-38 34 -101 81l-21 16q-78 -58 -122 -97zM59 34q37 4 50 18t13 48l1 317q0 25 -6 33.5t-24 8.5l-27 -1l-2 4l6 38q12 0 47 -1t76 -1q167 0 247 9l3 -5q-2 -11 -9 -50t-10 -84
l-48 -4q0 4 1 13.5t1 19.5q0 26 -7.5 36.5t-31 14t-81.5 3.5q-27 0 -37 -1.5t-13 -7t-4 -20.5l-6 -142l82 -1q18 0 53 3.5t46 4.5l4 -5l-12 -52q-11 0 -43.5 1t-68.5 1q-28 0 -63 -5q-3 -76 -3 -137q0 -23 3.5 -32t16 -12t41.5 -3q65 0 93 6t39.5 24.5t18.5 63.5l44 4l4 -5
q-3 -11 -10.5 -51.5t-11.5 -84.5l-6 -5q-27 1 -112 3t-138 2q-41 0 -76 -3.5l-45 -4.5z" />
    <glyph glyph-name="edieresis" unicode="&#xeb;" horiz-adv-x="508" 
d="M138 604q-11 13 -11 30q0 21 14.5 35.5t35.5 14.5q19 0 30 -12.5t11 -30.5q0 -21 -14.5 -35.5t-35.5 -14.5q-19 0 -30 13zM304 604q-11 13 -11 30q0 21 14.5 35.5t35.5 14.5q19 0 30 -12.5t11 -30.5q0 -21 -14.5 -35.5t-35.5 -14.5q-19 0 -30 13zM59 34q37 4 50 18t13 48
l1 317q0 25 -6 33.5t-24 8.5l-27 -1l-2 4l6 38q12 0 47 -1t76 -1q167 0 247 9l3 -5q-2 -11 -9 -50t-10 -84l-48 -4q0 4 1 13.5t1 19.5q0 26 -7.5 36.5t-31 14t-81.5 3.5q-27 0 -37 -1.5t-13 -7t-4 -20.5l-6 -142l82 -1q18 0 53 3.5t46 4.5l4 -5l-12 -52q-11 0 -43.5 1
t-68.5 1q-28 0 -63 -5q-3 -76 -3 -137q0 -23 3.5 -32t16 -12t41.5 -3q65 0 93 6t39.5 24.5t18.5 63.5l44 4l4 -5q-3 -11 -10.5 -51.5t-11.5 -84.5l-6 -5q-27 1 -112 3t-138 2q-41 0 -76 -3.5l-45 -4.5z" />
    <glyph glyph-name="igrave" unicode="&#xec;" horiz-adv-x="319" 
d="M101.5 654q-50.5 40 -65.5 51l-1 11l38 41l10 2q13 -16 59 -69.5t91 -102.5l-20 -19l-9 -2q-52 48 -102.5 88zM58 32q38 7 51 20.5t13 46.5l1 318q0 25 -6 33.5t-24 8.5l-33 -1l-2 4l5 38q6 0 32.5 -1t69.5 -1q23 0 56.5 3t43.5 4l-4 -41q-33 -4 -44 -12.5t-13 -31.5
q-4 -80 -7.5 -177t-3.5 -150q0 -32 7 -43t28 -11q14 0 25.5 1t15.5 2l2 -4l-7 -40q-12 0 -45 1t-66 1q-27 0 -58.5 -3.5t-41.5 -5.5z" />
    <glyph glyph-name="iacute" unicode="&#xed;" horiz-adv-x="319" 
d="M83 568l-20 19q45 49 91 103t59 70l10 -2l38 -41l-1 -11q-15 -11 -65.5 -51.5t-102.5 -88.5zM58 32q38 7 51 20.5t13 46.5l1 318q0 25 -6 33.5t-24 8.5l-33 -1l-2 4l5 38q6 0 32.5 -1t69.5 -1q23 0 56.5 3t43.5 4l-4 -41q-33 -4 -44 -12.5t-13 -31.5q-4 -80 -7.5 -177
t-3.5 -150q0 -32 7 -43t28 -11q14 0 25.5 1t15.5 2l2 -4l-7 -40q-12 0 -45 1t-66 1q-27 0 -58.5 -3.5t-41.5 -5.5z" />
    <glyph glyph-name="icircumflex" unicode="&#xee;" horiz-adv-x="319" 
d="M37 552l-14 22q41 42 83.5 90.5t54.5 62.5h14q12 -14 54.5 -62t83.5 -91l-14 -22l-9 -1q-38 34 -101 81l-21 16q-78 -58 -122 -97zM58 32q38 7 51 20.5t13 46.5l1 318q0 25 -6 33.5t-24 8.5l-33 -1l-2 4l5 38q6 0 32.5 -1t69.5 -1q23 0 56.5 3t43.5 4l-4 -41
q-33 -4 -44 -12.5t-13 -31.5q-4 -80 -7.5 -177t-3.5 -150q0 -32 7 -43t28 -11q14 0 25.5 1t15.5 2l2 -4l-7 -40q-12 0 -45 1t-66 1q-27 0 -58.5 -3.5t-41.5 -5.5z" />
    <glyph glyph-name="eth" unicode="&#xf0;" horiz-adv-x="605" 
d="M225.5 -3.5q-39.5 3.5 -66.5 3.5q-26 0 -57 -3.5t-40 -5.5l5 42q29 5 41.5 12.5t17 24.5t4.5 54v109h-106l-6 5l7 32h105v147q0 25 -5.5 33.5t-23.5 8.5q-8 0 -16 -1t-11 -1l-3 5l6 38q10 0 36.5 -1t54.5 -1q35 0 73 1.5t53 1.5q79 0 139.5 -29t94.5 -82t34 -122
q0 -78 -37.5 -141t-102.5 -99.5t-144 -36.5q-13 2 -52.5 5.5zM335 270l5 -5l-5 -32h-131l-3 -127q0 -27 8 -41t28 -20t58 -6q84 0 131.5 55t47.5 154q0 101 -60 153.5t-174 52.5q-16 0 -21.5 -3.5t-6.5 -14.5l-7 -166h130z" />
    <glyph glyph-name="ntilde" unicode="&#xf1;" horiz-adv-x="614" 
d="M142 613v5l76 89l16 4q18 0 78 -18q9 -2 33.5 -8.5t34.5 -6.5t24 12t25 25.5t14 17.5h6l22 -21v-5l-76 -89l-16 -4q-18 0 -78 18q-9 2 -33.5 8.5t-34.5 6.5q-11 0 -25 -12t-24.5 -25.5t-13.5 -17.5h-6zM461 425q0 33 -27 33h-30l-2 4l7 39q9 -1 34 -2t51 -1
q22 0 49.5 2.5t35.5 3.5l-4 -41q-29 -4 -41.5 -15.5t-13.5 -34.5l-12 -430l-39 -11q-95 139 -192 272t-97 131h-5l-3 -303q0 -19 6 -26t20 -7l40 1l3 -3l-8 -40q-9 1 -35.5 2t-55.5 1q-23 0 -49 -2.5t-34 -3.5l5 41q25 3 37 14.5t13 34.5l11 330q0 25 -14.5 34.5t-55.5 14.5
l-4 5l7 34q8 -1 30.5 -2.5t45.5 -1.5q22 0 39 1t22 2q81 -119 171.5 -243t90.5 -122h5z" />
    <glyph glyph-name="ograve" unicode="&#xf2;" horiz-adv-x="585" 
d="M232 654q-50 40 -65 51l-1 11l38 41l10 2q13 -16 59 -69.5t91 -102.5l-20 -19l-9 -2q-53 48 -103 88zM150.5 21q-52.5 30 -81 85t-28.5 127q0 78 35.5 140.5t97 98t137.5 35.5q69 0 122 -30t82 -84.5t29 -126.5q0 -78 -35.5 -140.5t-98 -98.5t-139.5 -36q-68 0 -120.5 30
zM413 91.5q45 52.5 45 139.5q0 66 -21.5 116t-61 77t-91.5 27q-71 0 -114.5 -52t-43.5 -139q0 -66 21 -116t59.5 -77.5t88.5 -27.5q73 0 118 52.5z" />
    <glyph glyph-name="oacute" unicode="&#xf3;" horiz-adv-x="585" 
d="M214 568l-20 19q45 49 91 103t59 70l10 -2l38 -41l-1 -11q-15 -11 -65 -52t-103 -88zM150.5 21q-52.5 30 -81 85t-28.5 127q0 78 35.5 140.5t97 98t137.5 35.5q69 0 122 -30t82 -84.5t29 -126.5q0 -78 -35.5 -140.5t-98 -98.5t-139.5 -36q-68 0 -120.5 30zM413 91.5
q45 52.5 45 139.5q0 66 -21.5 116t-61 77t-91.5 27q-71 0 -114.5 -52t-43.5 -139q0 -66 21 -116t59.5 -77.5t88.5 -27.5q73 0 118 52.5z" />
    <glyph glyph-name="ocircumflex" unicode="&#xf4;" horiz-adv-x="585" 
d="M168 552l-14 22q41 42 83.5 90.5t54.5 62.5h14q12 -14 54.5 -62t83.5 -91l-14 -22l-9 -1q-38 34 -101 81l-21 16q-78 -58 -122 -97zM150.5 21q-52.5 30 -81 85t-28.5 127q0 78 35.5 140.5t97 98t137.5 35.5q69 0 122 -30t82 -84.5t29 -126.5q0 -78 -35.5 -140.5
t-98 -98.5t-139.5 -36q-68 0 -120.5 30zM413 91.5q45 52.5 45 139.5q0 66 -21.5 116t-61 77t-91.5 27q-71 0 -114.5 -52t-43.5 -139q0 -66 21 -116t59.5 -77.5t88.5 -27.5q73 0 118 52.5z" />
    <glyph glyph-name="otilde" unicode="&#xf5;" horiz-adv-x="585" 
d="M128 613v5l76 89l16 4q18 0 78 -18q9 -2 33.5 -8.5t34.5 -6.5t24 12t25 25.5t14 17.5h6l22 -21v-5l-76 -89l-16 -4q-18 0 -78 18q-9 2 -33.5 8.5t-34.5 6.5q-11 0 -25 -12t-24.5 -25.5t-13.5 -17.5h-6zM150.5 21q-52.5 30 -81 85t-28.5 127q0 78 35.5 140.5t97 98
t137.5 35.5q69 0 122 -30t82 -84.5t29 -126.5q0 -78 -35.5 -140.5t-98 -98.5t-139.5 -36q-68 0 -120.5 30zM413 91.5q45 52.5 45 139.5q0 66 -21.5 116t-61 77t-91.5 27q-71 0 -114.5 -52t-43.5 -139q0 -66 21 -116t59.5 -77.5t88.5 -27.5q73 0 118 52.5z" />
    <glyph glyph-name="divide" unicode="&#xf7;" horiz-adv-x="506" 
d="M203.5 394.5q-14.5 16.5 -14.5 40.5q0 26 17 44t45 18q27 0 42 -16.5t15 -40.5q0 -26 -17.5 -44t-45.5 -18q-27 0 -41.5 16.5zM18 243l11 49l239 -1q50 0 121 2.5t93 3.5l6 -10l-8 -51l-227 -1l-229 -1zM203.5 45.5q-14.5 16.5 -14.5 40.5q0 26 17 44t45 18
q27 0 42 -16.5t15 -40.5q0 -26 -17.5 -44t-45.5 -18q-27 0 -41.5 16.5z" />
    <glyph glyph-name="oslash" unicode="&#xf8;" horiz-adv-x="585" 
d="M515 393q29 -55 29 -127q0 -78 -35.5 -140.5t-98 -98.5t-139.5 -36q-58 0 -103 21l-51 -89l-25 7l-2 8l50 89q-47 31 -73 84.5t-26 121.5q0 78 35.5 140.5t97 98t137.5 35.5q47 0 92 -16l35 62l27 -8l2 -10l-34 -58q53 -29 82 -84zM169.5 399q-43.5 -52 -43.5 -139
q0 -106 52 -167l190 336q-38 22 -84 22q-71 0 -114.5 -52zM413 91.5q45 52.5 45 139.5q0 58 -17 103.5t-47 74.5l-192 -339q40 -31 93 -31q73 0 118 52.5z" />
    <glyph glyph-name="ugrave" unicode="&#xf9;" horiz-adv-x="575" 
d="M227.5 654q-50.5 40 -65.5 51l-1 11l38 41l10 2q13 -16 59 -69.5t91 -102.5l-20 -19l-9 -2q-52 48 -102.5 88zM141.5 35q-46.5 44 -46.5 127v255q0 25 -6 33.5t-24 8.5l-27 -1l-2 3l6 39q11 0 40 -1t59 -1q22 0 51 2.5t38 3.5l-4 -40q-29 -4 -39 -13t-12 -31l-6 -229
q0 -71 33 -109.5t95 -38.5q63 0 95.5 31.5t32.5 91.5q0 62 -1.5 140.5t-2.5 110.5q-2 27 -7 34.5t-22 7.5l-34 -1l-1 3l6 39q10 0 37.5 -1t55.5 -1q23 0 49.5 2.5t34.5 3.5l-3 -40q-35 -5 -45 -13t-10 -30v-256q0 -83 -53.5 -128.5t-151.5 -45.5q-89 0 -135.5 44z" />
    <glyph glyph-name="uacute" unicode="&#xfa;" horiz-adv-x="575" 
d="M209 568l-20 19q45 49 91 103t59 70l10 -2l38 -41l-1 -11q-15 -11 -65 -51.5t-103 -88.5zM141.5 35q-46.5 44 -46.5 127v255q0 25 -6 33.5t-24 8.5l-27 -1l-2 3l6 39q11 0 40 -1t59 -1q22 0 51 2.5t38 3.5l-4 -40q-29 -4 -39 -13t-12 -31l-6 -229q0 -71 33 -109.5
t95 -38.5q63 0 95.5 31.5t32.5 91.5q0 62 -1.5 140.5t-2.5 110.5q-2 27 -7 34.5t-22 7.5l-34 -1l-1 3l6 39q10 0 37.5 -1t55.5 -1q23 0 49.5 2.5t34.5 3.5l-3 -40q-35 -5 -45 -13t-10 -30v-256q0 -83 -53.5 -128.5t-151.5 -45.5q-89 0 -135.5 44z" />
    <glyph glyph-name="ucircumflex" unicode="&#xfb;" horiz-adv-x="575" 
d="M163 552l-14 22q41 43 83.5 91t54.5 62h14q12 -14 54.5 -62.5t83.5 -90.5l-14 -22l-9 -1q-38 34 -101 81l-21 16q-78 -58 -122 -97zM141.5 35q-46.5 44 -46.5 127v255q0 25 -6 33.5t-24 8.5l-27 -1l-2 3l6 39q11 0 40 -1t59 -1q22 0 51 2.5t38 3.5l-4 -40q-29 -4 -39 -13
t-12 -31l-6 -229q0 -71 33 -109.5t95 -38.5q63 0 95.5 31.5t32.5 91.5q0 62 -1.5 140.5t-2.5 110.5q-2 27 -7 34.5t-22 7.5l-34 -1l-1 3l6 39q10 0 37.5 -1t55.5 -1q23 0 49.5 2.5t34.5 3.5l-3 -40q-35 -5 -45 -13t-10 -30v-256q0 -83 -53.5 -128.5t-151.5 -45.5
q-89 0 -135.5 44z" />
    <glyph glyph-name="udieresis" unicode="&#xfc;" horiz-adv-x="575" 
d="M170 604q-11 13 -11 30q0 21 14.5 35.5t35.5 14.5q19 0 30 -12.5t11 -30.5q0 -21 -14.5 -35.5t-35.5 -14.5q-19 0 -30 13zM336 604q-11 13 -11 30q0 21 14.5 35.5t35.5 14.5q19 0 30 -12.5t11 -30.5q0 -21 -14.5 -35.5t-35.5 -14.5q-19 0 -30 13zM141.5 35
q-46.5 44 -46.5 127v255q0 25 -6 33.5t-24 8.5l-27 -1l-2 3l6 39q11 0 40 -1t59 -1q22 0 51 2.5t38 3.5l-4 -40q-29 -4 -39 -13t-12 -31l-6 -229q0 -71 33 -109.5t95 -38.5q63 0 95.5 31.5t32.5 91.5q0 62 -1.5 140.5t-2.5 110.5q-2 27 -7 34.5t-22 7.5l-34 -1l-1 3l6 39
q10 0 37.5 -1t55.5 -1q23 0 49.5 2.5t34.5 3.5l-3 -40q-35 -5 -45 -13t-10 -30v-256q0 -83 -53.5 -128.5t-151.5 -45.5q-89 0 -135.5 44z" />
    <glyph glyph-name="thorn" unicode="&#xfe;" horiz-adv-x="473" 
d="M58 32q38 7 51 20.5t13 46.5l1 318q0 25 -6 33.5t-24 8.5l-33 -1l-2 4l5 38q6 0 32.5 -1t69.5 -1q23 0 56.5 3t43.5 4l-4 -41q-34 -4 -44.5 -12.5t-12.5 -29.5l-2 -27h66q87 0 132.5 -33.5t45.5 -97.5q0 -40 -26.5 -74.5t-71.5 -55t-97 -20.5h-58v-26q0 -29 7 -39t28 -10
q15 0 26.5 1t15.5 2l2 -4l-7 -40q-12 0 -45 1t-67 1q-27 0 -58.5 -3.5t-41.5 -5.5zM366 252q0 50 -35 73.5t-110 23.5q-13 0 -16.5 -1.5t-4.5 -6.5q-6 -120 -6 -172q15 -4 38.5 -8t40.5 -5q93 12 93 96z" />
    <glyph glyph-name="ydieresis" unicode="&#xff;" horiz-adv-x="475" 
d="M120 604q-11 13 -11 30q0 21 14.5 35.5t35.5 14.5q19 0 30 -12.5t11 -30.5q0 -21 -14.5 -35.5t-35.5 -14.5q-19 0 -30 13zM286 604q-11 13 -11 30q0 21 14.5 35.5t35.5 14.5q19 0 30 -12.5t11 -30.5q0 -21 -14.5 -35.5t-35.5 -14.5q-19 0 -30 13zM133 32q30 5 44 13
t18 23t4 45v31q0 23 -5 41t-19 45l-75 144q-19 36 -29 50.5t-26 23.5t-46 12l-2 4l6 36q9 0 36.5 -1t57.5 -1q28 0 68 2.5t52 3.5l3 -6l-3 -33q-34 -2 -46.5 -7.5t-12.5 -19.5q0 -13 35.5 -86t50.5 -102h5l86 154q13 23 13 38q0 19 -49 22l-2 3l5 36q6 0 40 -2.5t56 -2.5
q26 0 48 1t30 2l3 -6l-5 -34q-27 -6 -42 -16t-26.5 -26t-37.5 -59l-81 -138q-11 -21 -14 -46t-3 -90q0 -26 8 -36t29 -10q13 0 24.5 1t15.5 1l2 -3l-8 -42q-12 1 -45 2t-67 1q-26 0 -59 -3.5t-43 -5.5z" />
    <glyph glyph-name="Amacron" unicode="&#x100;" horiz-adv-x="584" 
d="M329 -3l4 39q51 4 70 12t19 26q0 20 -9 48l-33 109q-24 1 -104 1q-48 0 -109 -8l-37 -104q-9 -27 -9 -39q0 -22 14 -31.5t46 -9.5h57l2 -4l-6 -43q-12 1 -55 4t-84 3q-37 0 -68.5 -1t-41.5 -2l8 47q28 3 45 19.5t33 57.5l195 511l63 17h8q6 -24 30.5 -111t60 -206
t68.5 -219q12 -37 32 -52t64 -19l2 -4l-7 -41q-12 0 -43.5 1.5t-62.5 1.5q-48 0 -92.5 -4t-56.5 -6zM273 273q36 0 93 5l-79 262h-7l-95 -267h88zM148 728l10 45l154 -1q31 0 73.5 2.5t55.5 3.5l6 -10l-7 -47l-142 -1l-144 -1z" />
    <glyph glyph-name="amacron" unicode="&#x101;" horiz-adv-x="510" 
d="M105 628l10 45l154 -1q31 0 73.5 2.5t55.5 3.5l6 -10l-7 -47l-142 -1l-144 -1zM281 -2l3 36q42 3 56.5 9t14.5 20q0 16 -7 34l-24 77q-20 1 -83 1q-29 0 -86 -6l-28 -74q-7 -23 -7 -28q0 -16 11 -23t36 -7h43l3 -4l-6 -38q-10 1 -45.5 3t-69.5 2q-32 0 -57.5 -1t-34.5 -1
l6 41q22 3 35 15.5t26 42.5l157 397l71 13l7 -1q0 -4 45.5 -158t81.5 -255q10 -29 25.5 -40.5t49.5 -14.5l2 -4l-5 -36q-10 0 -37 1t-54 1q-41 0 -78 -3t-48 -4zM239 216q35 0 73 4l-61 194h-7l-73 -198h68z" />
    <glyph glyph-name="Abreve" unicode="&#x102;" horiz-adv-x="584" 
d="M329 -3l4 39q51 4 70 12t19 26q0 20 -9 48l-33 109q-24 1 -104 1q-48 0 -109 -8l-37 -104q-9 -27 -9 -39q0 -22 14 -31.5t46 -9.5h57l2 -4l-6 -43q-12 1 -55 4t-84 3q-37 0 -68.5 -1t-41.5 -2l8 47q28 3 45 19.5t33 57.5l195 511l63 17h8q6 -24 30.5 -111t60 -206
t68.5 -219q12 -37 32 -52t64 -19l2 -4l-7 -41q-12 0 -43.5 1.5t-62.5 1.5q-48 0 -92.5 -4t-56.5 -6zM273 273q36 0 93 5l-79 262h-7l-95 -267h88zM219 738q-30 28 -42 70l16 10h8q12 -24 38 -37t58 -13t58 13t38 37h8l16 -10q-12 -42 -42 -70t-78 -28t-78 28z" />
    <glyph glyph-name="abreve" unicode="&#x103;" horiz-adv-x="510" 
d="M177 616q-30 33 -42 81l16 10h8q12 -32 38 -49t58 -17t58 17t38 49h8l16 -10q-12 -48 -42 -81t-78 -33t-78 33zM281 -2l3 36q42 3 56.5 9t14.5 20q0 16 -7 34l-24 77q-20 1 -83 1q-29 0 -86 -6l-28 -74q-7 -23 -7 -28q0 -16 11 -23t36 -7h43l3 -4l-6 -38q-10 1 -45.5 3
t-69.5 2q-32 0 -57.5 -1t-34.5 -1l6 41q22 3 35 15.5t26 42.5l157 397l71 13l7 -1q0 -4 45.5 -158t81.5 -255q10 -29 25.5 -40.5t49.5 -14.5l2 -4l-5 -36q-10 0 -37 1t-54 1q-41 0 -78 -3t-48 -4zM239 216q35 0 73 4l-61 194h-7l-73 -198h68z" />
    <glyph glyph-name="Aogonek" unicode="&#x104;" horiz-adv-x="584" 
d="M329 -3l4 39q51 4 70 12t19 26q0 20 -9 48l-33 109q-24 1 -104 1q-48 0 -109 -8l-37 -104q-9 -27 -9 -39q0 -22 14 -31.5t46 -9.5h57l2 -4l-6 -43q-12 1 -55 4t-84 3q-37 0 -68.5 -1t-41.5 -2l8 47q28 3 45 19.5t33 57.5l195 511l63 17h8q6 -24 30.5 -111t60 -206
t68.5 -219q12 -37 32 -52t64 -19l2 -4l-7 -41q-12 0 -43.5 1.5t-62.5 1.5q-48 0 -92.5 -4t-56.5 -6zM273 273q36 0 93 5l-79 262h-7l-95 -267h88zM414 -216q-31 25 -31 66q0 25 10 46t38 53t89 93h42q-49 -51 -73 -79.5t-33.5 -48t-9.5 -39.5q0 -26 15.5 -41.5t42.5 -15.5
q17 0 39 6.5t38 16.5l13 -19q-21 -20 -49 -38t-51 -25q-49 0 -80 25z" />
    <glyph glyph-name="aogonek" unicode="&#x105;" horiz-adv-x="510" 
d="M515 -180q-21 -20 -48.5 -37t-49.5 -24q-48 0 -78 24.5t-30 63.5q0 21 7.5 39.5t28.5 44t64 69.5q-40 0 -77 -3t-48 -4l-3 5l3 36q42 3 56.5 9t14.5 20q0 16 -7 34l-24 77q-20 1 -83 1q-29 0 -86 -6l-28 -74q-7 -23 -7 -28q0 -16 11 -23t36 -7h43l3 -4l-6 -38
q-10 1 -45.5 3t-69.5 2q-32 0 -57.5 -1t-34.5 -1l6 41q22 3 35 15.5t26 42.5l157 397l71 13l7 -1q0 -4 45.5 -158t81.5 -255q10 -29 25.5 -40.5t49.5 -14.5l2 -4l-5 -36q-4 0 -18 0.5t-33 0.5q-47 -50 -63 -76.5t-16 -51.5q0 -26 15 -40.5t41 -14.5q16 0 37.5 6.5t37.5 15.5
zM312 220l-61 194h-7l-73 -198h68q35 0 73 4z" />
    <glyph glyph-name="Cacute" unicode="&#x106;" horiz-adv-x="626" 
d="M181 26q-68 38 -104.5 107.5t-36.5 163.5q0 100 45 180.5t124.5 126t179.5 45.5q37 0 75.5 -5.5t65 -11t33.5 -7.5l4 -6q-2 -6 -6.5 -29t-10 -60t-8.5 -78l-48 -4q1 5 2 18.5t1 30.5q0 93 -147 93q-66 0 -116 -32t-77 -90.5t-27 -137.5q0 -87 28.5 -153t80.5 -102.5
t120 -36.5t109.5 38.5t60.5 119.5l48 4q-3 -15 -13 -66.5t-14 -96.5l-6 -9q0 -1 -30.5 -11.5t-76 -19.5t-98.5 -9q-90 0 -158 38zM301 708l-6 24q59 31 120 65t79 44l9 -6l16 -48l-4 -10q-17 -6 -78.5 -27.5t-127.5 -46.5z" />
    <glyph glyph-name="cacute" unicode="&#x107;" horiz-adv-x="533" 
d="M218 568l-20 19q45 49 91 103t59 70l10 -2l38 -41l-1 -11q-15 -11 -65 -51.5t-103 -88.5zM107 56q-66 65 -66 177q0 79 36.5 141.5t102 97.5t148.5 35q30 0 62.5 -4t55 -9t28.5 -6l4 -6q-1 -5 -5 -23.5t-9 -48.5t-7 -64l-50 -3q0 3 1 14t1 25q0 70 -112 70
q-78 0 -123 -51.5t-45 -141.5q0 -100 47.5 -159t127.5 -59q53 0 84.5 28.5t45.5 89.5l50 4q-3 -12 -10.5 -54t-10.5 -79l-6 -8l-28.5 -9.5t-60.5 -14.5t-82 -7q-113 0 -179 65z" />
    <glyph glyph-name="Ccircumflex" unicode="&#x108;" horiz-adv-x="626" 
d="M181 26q-68 38 -104.5 107.5t-36.5 163.5q0 100 45 180.5t124.5 126t179.5 45.5q37 0 75.5 -5.5t65 -11t33.5 -7.5l4 -6q-2 -6 -6.5 -29t-10 -60t-8.5 -78l-48 -4q1 5 2 18.5t1 30.5q0 93 -147 93q-66 0 -116 -32t-77 -90.5t-27 -137.5q0 -87 28.5 -153t80.5 -102.5
t120 -36.5t109.5 38.5t60.5 119.5l48 4q-3 -15 -13 -66.5t-14 -96.5l-6 -9q0 -1 -30.5 -11.5t-76 -19.5t-98.5 -9q-90 0 -158 38zM210 702l-14 22q41 42 83.5 90.5t54.5 62.5h14q12 -14 54.5 -62t83.5 -91l-14 -22l-9 -1q-38 34 -101 81l-21 16q-78 -58 -122 -97z" />
    <glyph glyph-name="ccircumflex" unicode="&#x109;" horiz-adv-x="533" 
d="M172 552l-14 22q41 43 83.5 91t54.5 62h14q12 -14 54.5 -62t83.5 -91l-14 -22l-9 -1q-38 34 -101 81l-21 16q-78 -58 -122 -97zM107 56q-66 65 -66 177q0 79 36.5 141.5t102 97.5t148.5 35q30 0 62.5 -4t55 -9t28.5 -6l4 -6q-1 -5 -5 -23.5t-9 -48.5t-7 -64l-50 -3
q0 3 1 14t1 25q0 70 -112 70q-78 0 -123 -51.5t-45 -141.5q0 -100 47.5 -159t127.5 -59q53 0 84.5 28.5t45.5 89.5l50 4q-3 -12 -10.5 -54t-10.5 -79l-6 -8l-28.5 -9.5t-60.5 -14.5t-82 -7q-113 0 -179 65z" />
    <glyph glyph-name="Cdotaccent" unicode="&#x10a;" horiz-adv-x="626" 
d="M181 26q-68 38 -104.5 107.5t-36.5 163.5q0 100 45 180.5t124.5 126t179.5 45.5q37 0 75.5 -5.5t65 -11t33.5 -7.5l4 -6q-2 -6 -6.5 -29t-10 -60t-8.5 -78l-48 -4q1 5 2 18.5t1 30.5q0 93 -147 93q-66 0 -116 -32t-77 -90.5t-27 -137.5q0 -87 28.5 -153t80.5 -102.5
t120 -36.5t109.5 38.5t60.5 119.5l48 4q-3 -15 -13 -66.5t-14 -96.5l-6 -9q0 -1 -30.5 -11.5t-76 -19.5t-98.5 -9q-90 0 -158 38zM318 724q-13 15 -13 36q0 24 17 41.5t42 17.5q23 0 36 -15t13 -36q0 -24 -17 -41.5t-42 -17.5q-23 0 -36 15z" />
    <glyph glyph-name="cdotaccent" unicode="&#x10b;" horiz-adv-x="533" 
d="M256 642q-13 15 -13 36q0 24 17 41.5t42 17.5q23 0 36 -15t13 -36q0 -24 -17 -41.5t-42 -17.5q-23 0 -36 15zM107 56q-66 65 -66 177q0 79 36.5 141.5t102 97.5t148.5 35q30 0 62.5 -4t55 -9t28.5 -6l4 -6q-1 -5 -5 -23.5t-9 -48.5t-7 -64l-50 -3q0 3 1 14t1 25
q0 70 -112 70q-78 0 -123 -51.5t-45 -141.5q0 -100 47.5 -159t127.5 -59q53 0 84.5 28.5t45.5 89.5l50 4q-3 -12 -10.5 -54t-10.5 -79l-6 -8l-28.5 -9.5t-60.5 -14.5t-82 -7q-113 0 -179 65z" />
    <glyph glyph-name="Ccaron" unicode="&#x10c;" horiz-adv-x="626" 
d="M181 26q-68 38 -104.5 107.5t-36.5 163.5q0 100 45 180.5t124.5 126t179.5 45.5q37 0 75.5 -5.5t65 -11t33.5 -7.5l4 -6q-2 -6 -6.5 -29t-10 -60t-8.5 -78l-48 -4q1 5 2 18.5t1 30.5q0 93 -147 93q-66 0 -116 -32t-77 -90.5t-27 -137.5q0 -87 28.5 -153t80.5 -102.5
t120 -36.5t109.5 38.5t60.5 119.5l48 4q-3 -15 -13 -66.5t-14 -96.5l-6 -9q0 -1 -30.5 -11.5t-76 -19.5t-98.5 -9q-90 0 -158 38zM297.5 749.5q-42.5 34.5 -83.5 65.5l14 22l9 1q67 -39 122 -65q52 24 122 65l9 -1l14 -22q-41 -31 -83.5 -65.5t-54.5 -45.5h-14
q-12 11 -54.5 45.5z" />
    <glyph glyph-name="ccaron" unicode="&#x10d;" horiz-adv-x="533" 
d="M232.5 636.5q-44.5 50.5 -87.5 94.5l16 23l8 1q60 -52 128 -101q83 62 128 101l8 -1l16 -23q-43 -44 -87.5 -94.5t-57.5 -65.5h-14q-13 15 -57.5 65.5zM107 56q-66 65 -66 177q0 79 36.5 141.5t102 97.5t148.5 35q30 0 62.5 -4t55 -9t28.5 -6l4 -6q-1 -5 -5 -23.5
t-9 -48.5t-7 -64l-50 -3q0 3 1 14t1 25q0 70 -112 70q-78 0 -123 -51.5t-45 -141.5q0 -100 47.5 -159t127.5 -59q53 0 84.5 28.5t45.5 89.5l50 4q-3 -12 -10.5 -54t-10.5 -79l-6 -8l-28.5 -9.5t-60.5 -14.5t-82 -7q-113 0 -179 65z" />
    <glyph glyph-name="Dcaron" unicode="&#x10e;" horiz-adv-x="703" 
d="M253.5 -5q-48.5 5 -80.5 5q-31 0 -67.5 -5t-47.5 -7l6 46q46 9 62 26.5t16 59.5l1 420q0 32 -7.5 43t-29.5 11q-10 0 -20 -1t-14 -1l-2 4l7 44q11 -1 42 -2t63 -1q43 0 89 1.5t63 2.5q96 0 171 -37.5t116.5 -105.5t41.5 -156q0 -98 -46 -179t-125 -128t-175 -47
q-15 2 -63.5 7zM237 587.5q-7 -4.5 -8 -17.5q-15 -385 -15 -439q0 -38 10.5 -57t37 -27t78.5 -8q108 0 170 74.5t62 204.5q0 132 -79.5 203t-227.5 71q-21 0 -28 -4.5zM269.5 749.5q-42.5 34.5 -83.5 65.5l14 22l9 1q67 -39 122 -65q52 24 122 65l9 -1l14 -22
q-41 -31 -83.5 -65.5t-54.5 -45.5h-14q-12 11 -54.5 45.5z" />
    <glyph glyph-name="dcaron" unicode="&#x10f;" horiz-adv-x="596" 
d="M233.5 636.5q-44.5 50.5 -87.5 94.5l16 23l8 1q60 -52 128 -101q83 62 128 101l8 -1l16 -23q-43 -44 -87.5 -94.5t-57.5 -65.5h-14q-13 15 -57.5 65.5zM218.5 -3.5q-39.5 3.5 -66.5 3.5q-26 0 -57 -3.5t-40 -5.5l5 42q36 6 49 20t13 46l1 318q0 25 -6 33.5t-23 8.5
q-9 0 -17 -1t-11 -1l-2 5l6 38q10 0 36.5 -1t53.5 -1q36 0 74 1.5t52 1.5q80 0 141 -29t94.5 -81.5t33.5 -122.5q0 -78 -37.5 -141t-102.5 -99.5t-144 -36.5q-13 2 -52.5 5.5zM211.5 450.5q-5.5 -3.5 -6.5 -14.5q-12 -281 -12 -330q0 -27 8 -41.5t28 -20t59 -5.5
q84 0 131.5 55t47.5 154q0 101 -60 153.5t-174 52.5q-16 0 -21.5 -3.5z" />
    <glyph glyph-name="Dcroat" unicode="&#x110;" horiz-adv-x="713" 
d="M260.5 -5q-48.5 5 -80.5 5q-31 0 -67.5 -5t-47.5 -7l6 46q37 7 52.5 17t20.5 32.5t5 73.5v147h-133l-7 7l7 32h133l1 197q0 32 -7.5 43t-29.5 11q-10 0 -20 -1t-14 -1l-2 4l7 44q11 -1 42 -2t63 -1q43 0 89 1.5t63 2.5q95 0 170 -38.5t117 -106.5t42 -154q0 -98 -46 -179
t-125 -128t-175 -47q-15 2 -63.5 7zM397 343l5 -7l-6 -32h-170l-5 -173q0 -37 11 -56.5t37.5 -27.5t77.5 -8q108 0 170 74.5t62 204.5q0 132 -79.5 203t-227.5 71q-21 0 -28 -4.5t-8 -17.5l-9 -227h170z" />
    <glyph glyph-name="dcroat" unicode="&#x111;" horiz-adv-x="605" 
d="M225.5 -3.5q-39.5 3.5 -66.5 3.5q-26 0 -57 -3.5t-40 -5.5l5 42q29 5 41.5 12.5t17 24.5t4.5 54v109h-106l-6 5l7 32h105v147q0 25 -5.5 33.5t-23.5 8.5q-8 0 -16 -1t-11 -1l-3 5l6 38q10 0 36.5 -1t54.5 -1q35 0 73 1.5t53 1.5q79 0 139.5 -29t94.5 -82t34 -122
q0 -78 -37.5 -141t-102.5 -99.5t-144 -36.5q-13 2 -52.5 5.5zM335 270l5 -5l-5 -32h-131l-3 -127q0 -27 8 -41t28 -20t58 -6q84 0 131.5 55t47.5 154q0 101 -60 153.5t-174 52.5q-16 0 -21.5 -3.5t-6.5 -14.5l-7 -166h130z" />
    <glyph glyph-name="Emacron" unicode="&#x112;" horiz-adv-x="591" 
d="M532 167q-17 -81 -27 -168l-5 -6q-210 7 -303 7q-74 0 -139 -10l6 46q45 6 61.5 23.5t16.5 60.5l1 420q0 32 -7.5 43t-29.5 11l-34 -2l-2 4l7 44q102 -3 139 -3q119 0 185 2.5t115 9.5l3 -6q-18 -79 -23 -166l-48 -4l2 43q0 35 -9 48.5t-39 18t-105 4.5q-35 0 -48 -2
t-17 -9.5t-5 -27.5l-8 -194l103 -1q39 0 122 11l4 -5l-14 -59q-111 3 -140 3q-33 0 -77 -7l-4 -191q0 -29 5 -40.5t20.5 -15.5t53.5 -4q84 0 119.5 8t50.5 32t23 82l44 5zM160 728l10 45l154 -1q31 0 73.5 2.5t55.5 3.5l6 -10l-7 -47l-142 -1l-144 -1z" />
    <glyph glyph-name="emacron" unicode="&#x113;" horiz-adv-x="508" 
d="M106 628l10 45l154 -1q31 0 73.5 2.5t55.5 3.5l6 -10l-7 -47l-142 -1l-144 -1zM59 34q37 4 50 18t13 48l1 317q0 25 -6 33.5t-24 8.5l-27 -1l-2 4l6 38q12 0 47 -1t76 -1q167 0 247 9l3 -5q-2 -11 -9 -50t-10 -84l-48 -4q0 4 1 13.5t1 19.5q0 26 -7.5 36.5t-31 14
t-81.5 3.5q-27 0 -37 -1.5t-13 -7t-4 -20.5l-6 -142l82 -1q18 0 53 3.5t46 4.5l4 -5l-12 -52q-11 0 -43.5 1t-68.5 1q-28 0 -63 -5q-3 -76 -3 -137q0 -23 3.5 -32t16 -12t41.5 -3q65 0 93 6t39.5 24.5t18.5 63.5l44 4l4 -5q-3 -11 -10.5 -51.5t-11.5 -84.5l-6 -5
q-27 1 -112 3t-138 2q-41 0 -76 -3.5l-45 -4.5z" />
    <glyph glyph-name="Ebreve" unicode="&#x114;" horiz-adv-x="591" 
d="M532 167q-17 -81 -27 -168l-5 -6q-210 7 -303 7q-74 0 -139 -10l6 46q45 6 61.5 23.5t16.5 60.5l1 420q0 32 -7.5 43t-29.5 11l-34 -2l-2 4l7 44q102 -3 139 -3q119 0 185 2.5t115 9.5l3 -6q-18 -79 -23 -166l-48 -4l2 43q0 35 -9 48.5t-39 18t-105 4.5q-35 0 -48 -2
t-17 -9.5t-5 -27.5l-8 -194l103 -1q39 0 122 11l4 -5l-14 -59q-111 3 -140 3q-33 0 -77 -7l-4 -191q0 -29 5 -40.5t20.5 -15.5t53.5 -4q84 0 119.5 8t50.5 32t23 82l44 5zM249 746q-30 33 -42 81l16 10h8q12 -32 38 -49t58 -17t58 17t38 49h8l16 -10q-12 -48 -42 -81
t-78 -33t-78 33z" />
    <glyph glyph-name="ebreve" unicode="&#x115;" horiz-adv-x="508" 
d="M201 606q-30 33 -42 81l16 10h8q12 -32 38 -49t58 -17t58 17t38 49h8l16 -10q-12 -48 -42 -81t-78 -33t-78 33zM59 34q37 4 50 18t13 48l1 317q0 25 -6 33.5t-24 8.5l-27 -1l-2 4l6 38q12 0 47 -1t76 -1q167 0 247 9l3 -5q-2 -11 -9 -50t-10 -84l-48 -4q0 4 1 13.5
t1 19.5q0 26 -7.5 36.5t-31 14t-81.5 3.5q-27 0 -37 -1.5t-13 -7t-4 -20.5l-6 -142l82 -1q18 0 53 3.5t46 4.5l4 -5l-12 -52q-11 0 -43.5 1t-68.5 1q-28 0 -63 -5q-3 -76 -3 -137q0 -23 3.5 -32t16 -12t41.5 -3q65 0 93 6t39.5 24.5t18.5 63.5l44 4l4 -5q-3 -11 -10.5 -51.5
t-11.5 -84.5l-6 -5q-27 1 -112 3t-138 2q-41 0 -76 -3.5l-45 -4.5z" />
    <glyph glyph-name="Edotaccent" unicode="&#x116;" horiz-adv-x="591" 
d="M532 167q-17 -81 -27 -168l-5 -6q-210 7 -303 7q-74 0 -139 -10l6 46q45 6 61.5 23.5t16.5 60.5l1 420q0 32 -7.5 43t-29.5 11l-34 -2l-2 4l7 44q102 -3 139 -3q119 0 185 2.5t115 9.5l3 -6q-18 -79 -23 -166l-48 -4l2 43q0 35 -9 48.5t-39 18t-105 4.5q-35 0 -48 -2
t-17 -9.5t-5 -27.5l-8 -194l103 -1q39 0 122 11l4 -5l-14 -59q-111 3 -140 3q-33 0 -77 -7l-4 -191q0 -29 5 -40.5t20.5 -15.5t53.5 -4q84 0 119.5 8t50.5 32t23 82l44 5zM269 724q-13 15 -13 36q0 24 17 41.5t42 17.5q23 0 36 -15t13 -36q0 -24 -17 -41.5t-42 -17.5
q-23 0 -36 15z" />
    <glyph glyph-name="edotaccent" unicode="&#x117;" horiz-adv-x="508" 
d="M215 642q-13 15 -13 36q0 24 17 41.5t42 17.5q23 0 36 -15t13 -36q0 -24 -17 -41.5t-42 -17.5q-23 0 -36 15zM59 34q37 4 50 18t13 48l1 317q0 25 -6 33.5t-24 8.5l-27 -1l-2 4l6 38q12 0 47 -1t76 -1q167 0 247 9l3 -5q-2 -11 -9 -50t-10 -84l-48 -4q0 4 1 13.5t1 19.5
q0 26 -7.5 36.5t-31 14t-81.5 3.5q-27 0 -37 -1.5t-13 -7t-4 -20.5l-6 -142l82 -1q18 0 53 3.5t46 4.5l4 -5l-12 -52q-11 0 -43.5 1t-68.5 1q-28 0 -63 -5q-3 -76 -3 -137q0 -23 3.5 -32t16 -12t41.5 -3q65 0 93 6t39.5 24.5t18.5 63.5l44 4l4 -5q-3 -11 -10.5 -51.5
t-11.5 -84.5l-6 -5q-27 1 -112 3t-138 2q-41 0 -76 -3.5l-45 -4.5z" />
    <glyph glyph-name="Eogonek" unicode="&#x118;" horiz-adv-x="591" 
d="M532 167q-17 -81 -27 -168l-5 -6q-210 7 -303 7q-74 0 -139 -10l6 46q45 6 61.5 23.5t16.5 60.5l1 420q0 32 -7.5 43t-29.5 11l-34 -2l-2 4l7 44q102 -3 139 -3q119 0 185 2.5t115 9.5l3 -6q-18 -79 -23 -166l-48 -4l2 43q0 35 -9 48.5t-39 18t-105 4.5q-35 0 -48 -2
t-17 -9.5t-5 -27.5l-8 -194l103 -1q39 0 122 11l4 -5l-14 -59q-111 3 -140 3q-33 0 -77 -7l-4 -191q0 -29 5 -40.5t20.5 -15.5t53.5 -4q84 0 119.5 8t50.5 32t23 82l44 5zM348 -216q-31 25 -31 66q0 25 10 46t38 53t89 93h42q-49 -51 -73 -79.5t-33.5 -48t-9.5 -39.5
q0 -26 15.5 -41.5t42.5 -15.5q17 0 39 6.5t38 16.5l13 -19q-21 -20 -49 -38t-51 -25q-49 0 -80 25z" />
    <glyph glyph-name="eogonek" unicode="&#x119;" horiz-adv-x="508" 
d="M460 -186q-21 -20 -49 -38t-51 -25q-49 0 -80 25t-31 66q0 22 7.5 40.5t28.5 44t64 70.5l-51 1q-86 2 -123 2q-41 0 -76 -3.5l-45 -4.5l5 42q37 4 50 18t13 48l1 317q0 25 -6 33.5t-24 8.5l-27 -1l-2 4l6 38q12 0 47 -1t76 -1q167 0 247 9l3 -5q-2 -11 -9 -50t-10 -84
l-48 -4q0 4 1 13.5t1 19.5q0 26 -7.5 36.5t-31 14t-81.5 3.5q-27 0 -37 -1.5t-13 -7t-4 -20.5l-6 -142l82 -1q18 0 53 3.5t46 4.5l4 -5l-12 -52q-11 0 -43.5 1t-68.5 1q-28 0 -63 -5q-3 -76 -3 -137q0 -23 3.5 -32t16 -12t41.5 -3q65 0 93 6t39.5 24.5t18.5 63.5l44 4l4 -5
q-3 -11 -10.5 -51.5t-11.5 -84.5l-6 -5l-33 1q-48 -51 -64 -77.5t-16 -51.5q0 -26 15.5 -41.5t42.5 -15.5q17 0 39 6.5t38 16.5z" />
    <glyph glyph-name="Ecaron" unicode="&#x11a;" horiz-adv-x="591" 
d="M532 167q-17 -81 -27 -168l-5 -6q-210 7 -303 7q-74 0 -139 -10l6 46q45 6 61.5 23.5t16.5 60.5l1 420q0 32 -7.5 43t-29.5 11l-34 -2l-2 4l7 44q102 -3 139 -3q119 0 185 2.5t115 9.5l3 -6q-18 -79 -23 -166l-48 -4l2 43q0 35 -9 48.5t-39 18t-105 4.5q-35 0 -48 -2
t-17 -9.5t-5 -27.5l-8 -194l103 -1q39 0 122 11l4 -5l-14 -59q-111 3 -140 3q-33 0 -77 -7l-4 -191q0 -29 5 -40.5t20.5 -15.5t53.5 -4q84 0 119.5 8t50.5 32t23 82l44 5zM248.5 749.5q-42.5 34.5 -83.5 65.5l14 22l9 1q67 -39 122 -65q52 24 122 65l9 -1l14 -22
q-41 -31 -83.5 -65.5t-54.5 -45.5h-14q-12 11 -54.5 45.5z" />
    <glyph glyph-name="ecaron" unicode="&#x11b;" horiz-adv-x="508" 
d="M191.5 636.5q-44.5 50.5 -87.5 94.5l16 23l8 1q60 -52 128 -101q83 62 128 101l8 -1l16 -23q-43 -44 -87.5 -94.5t-57.5 -65.5h-14q-13 15 -57.5 65.5zM59 34q37 4 50 18t13 48l1 317q0 25 -6 33.5t-24 8.5l-27 -1l-2 4l6 38q12 0 47 -1t76 -1q167 0 247 9l3 -5
q-2 -11 -9 -50t-10 -84l-48 -4q0 4 1 13.5t1 19.5q0 26 -7.5 36.5t-31 14t-81.5 3.5q-27 0 -37 -1.5t-13 -7t-4 -20.5l-6 -142l82 -1q18 0 53 3.5t46 4.5l4 -5l-12 -52q-11 0 -43.5 1t-68.5 1q-28 0 -63 -5q-3 -76 -3 -137q0 -23 3.5 -32t16 -12t41.5 -3q65 0 93 6
t39.5 24.5t18.5 63.5l44 4l4 -5q-3 -11 -10.5 -51.5t-11.5 -84.5l-6 -5q-27 1 -112 3t-138 2q-41 0 -76 -3.5l-45 -4.5z" />
    <glyph glyph-name="Gcircumflex" unicode="&#x11c;" horiz-adv-x="667" 
d="M178 26q-66 38 -102 107.5t-36 163.5q0 103 44 183t124 124.5t183 44.5q37 0 80 -5.5t74 -11t40 -7.5l4 -6q-2 -6 -7 -29t-10.5 -60t-8.5 -78l-47 -4q1 5 2 19.5t1 34.5q0 46 -35.5 67t-115.5 21q-114 0 -177.5 -68.5t-63.5 -192.5q0 -87 28 -153t80 -102t120 -36
q36 0 66 8.5t50.5 18.5t20.5 11v122q0 34 -10.5 44t-44.5 10h-69l-2 4l9 50q12 -1 51 -2.5t76 -1.5q27 0 53 2t33 3l4 -22q-18 -15 -24.5 -47.5t-6.5 -106.5q0 -58 7 -88l-6 -9q0 -1 -35.5 -13.5t-87 -22.5t-107.5 -10q-88 0 -154 38zM248 692l-14 22q41 42 83.5 90.5
t54.5 62.5h14q12 -14 54.5 -62t83.5 -91l-14 -22l-9 -1q-38 34 -101 81l-21 16q-78 -58 -122 -97z" />
    <glyph glyph-name="gcircumflex" unicode="&#x11d;" horiz-adv-x="566" 
d="M165 562l-14 22q41 43 83.5 91t54.5 62h14q12 -14 54.5 -62t83.5 -91l-14 -22l-9 -1q-38 34 -101 81l-21 16q-78 -58 -122 -97zM106.5 56.5q-65.5 65.5 -65.5 176.5q0 82 36 144t101.5 96t151.5 34q31 0 66.5 -4t61 -9t32.5 -6l4 -6q-1 -5 -5.5 -23.5t-9 -48t-6.5 -62.5
l-49 -4q0 4 1 15.5t1 26.5q0 35 -27 50.5t-88 15.5q-89 0 -136.5 -49.5t-47.5 -143.5q0 -101 47 -159.5t127 -58.5q28 0 51 6t36.5 12t16.5 8v88q0 25 -8.5 33t-34.5 8h-53l-2 4l8 44q4 0 37.5 -1t68.5 -1q23 0 45.5 1.5t28.5 2.5l4 -22q-16 -12 -21.5 -37t-5.5 -86
q0 -45 5 -68l-5 -8q-7 -3 -32.5 -11t-67.5 -15.5t-90 -7.5q-110 0 -175.5 65.5z" />
    <glyph glyph-name="Gbreve" unicode="&#x11e;" horiz-adv-x="667" 
d="M178 26q-66 38 -102 107.5t-36 163.5q0 103 44 183t124 124.5t183 44.5q37 0 80 -5.5t74 -11t40 -7.5l4 -6q-2 -6 -7 -29t-10.5 -60t-8.5 -78l-47 -4q1 5 2 19.5t1 34.5q0 46 -35.5 67t-115.5 21q-114 0 -177.5 -68.5t-63.5 -192.5q0 -87 28 -153t80 -102t120 -36
q36 0 66 8.5t50.5 18.5t20.5 11v122q0 34 -10.5 44t-44.5 10h-69l-2 4l9 50q12 -1 51 -2.5t76 -1.5q27 0 53 2t33 3l4 -22q-18 -15 -24.5 -47.5t-6.5 -106.5q0 -58 7 -88l-6 -9q0 -1 -35.5 -13.5t-87 -22.5t-107.5 -10q-88 0 -154 38zM295 728q-30 28 -42 70l16 10h8
q12 -24 38 -37t58 -13t58 13t38 37h8l16 -10q-12 -42 -42 -70t-78 -28t-78 28z" />
    <glyph glyph-name="gbreve" unicode="&#x11f;" horiz-adv-x="566" 
d="M225 616q-30 33 -42 81l16 10h8q12 -32 38 -49t58 -17t58 17t38 49h8l16 -10q-12 -48 -42 -81t-78 -33t-78 33zM106.5 56.5q-65.5 65.5 -65.5 176.5q0 82 36 144t101.5 96t151.5 34q31 0 66.5 -4t61 -9t32.5 -6l4 -6q-1 -5 -5.5 -23.5t-9 -48t-6.5 -62.5l-49 -4
q0 4 1 15.5t1 26.5q0 35 -27 50.5t-88 15.5q-89 0 -136.5 -49.5t-47.5 -143.5q0 -101 47 -159.5t127 -58.5q28 0 51 6t36.5 12t16.5 8v88q0 25 -8.5 33t-34.5 8h-53l-2 4l8 44q4 0 37.5 -1t68.5 -1q23 0 45.5 1.5t28.5 2.5l4 -22q-16 -12 -21.5 -37t-5.5 -86q0 -45 5 -68
l-5 -8q-7 -3 -32.5 -11t-67.5 -15.5t-90 -7.5q-110 0 -175.5 65.5z" />
    <glyph glyph-name="Gdotaccent" unicode="&#x120;" horiz-adv-x="667" 
d="M178 26q-66 38 -102 107.5t-36 163.5q0 103 44 183t124 124.5t183 44.5q37 0 80 -5.5t74 -11t40 -7.5l4 -6q-2 -6 -7 -29t-10.5 -60t-8.5 -78l-47 -4q1 5 2 19.5t1 34.5q0 46 -35.5 67t-115.5 21q-114 0 -177.5 -68.5t-63.5 -192.5q0 -87 28 -153t80 -102t120 -36
q36 0 66 8.5t50.5 18.5t20.5 11v122q0 34 -10.5 44t-44.5 10h-69l-2 4l9 50q12 -1 51 -2.5t76 -1.5q27 0 53 2t33 3l4 -22q-18 -15 -24.5 -47.5t-6.5 -106.5q0 -58 7 -88l-6 -9q0 -1 -35.5 -13.5t-87 -22.5t-107.5 -10q-88 0 -154 38zM332 724q-13 15 -13 36q0 24 17 41.5
t42 17.5q23 0 36 -15t13 -36q0 -24 -17 -41.5t-42 -17.5q-23 0 -36 15z" />
    <glyph glyph-name="gdotaccent" unicode="&#x121;" horiz-adv-x="566" 
d="M262 642q-13 15 -13 36q0 24 17 41.5t42 17.5q23 0 36 -15t13 -36q0 -24 -17 -41.5t-42 -17.5q-23 0 -36 15zM106.5 56.5q-65.5 65.5 -65.5 176.5q0 82 36 144t101.5 96t151.5 34q31 0 66.5 -4t61 -9t32.5 -6l4 -6q-1 -5 -5.5 -23.5t-9 -48t-6.5 -62.5l-49 -4q0 4 1 15.5
t1 26.5q0 35 -27 50.5t-88 15.5q-89 0 -136.5 -49.5t-47.5 -143.5q0 -101 47 -159.5t127 -58.5q28 0 51 6t36.5 12t16.5 8v88q0 25 -8.5 33t-34.5 8h-53l-2 4l8 44q4 0 37.5 -1t68.5 -1q23 0 45.5 1.5t28.5 2.5l4 -22q-16 -12 -21.5 -37t-5.5 -86q0 -45 5 -68l-5 -8
q-7 -3 -32.5 -11t-67.5 -15.5t-90 -7.5q-110 0 -175.5 65.5z" />
    <glyph glyph-name="Gcommaaccent" unicode="&#x122;" horiz-adv-x="667" 
d="M178 26q-66 38 -102 107.5t-36 163.5q0 103 44 183t124 124.5t183 44.5q37 0 80 -5.5t74 -11t40 -7.5l4 -6q-2 -6 -7 -29t-10.5 -60t-8.5 -78l-47 -4q1 5 2 19.5t1 34.5q0 46 -35.5 67t-115.5 21q-114 0 -177.5 -68.5t-63.5 -192.5q0 -87 28 -153t80 -102t120 -36
q36 0 66 8.5t50.5 18.5t20.5 11v122q0 34 -10.5 44t-44.5 10h-69l-2 4l9 50q12 -1 51 -2.5t76 -1.5q27 0 53 2t33 3l4 -22q-18 -15 -24.5 -47.5t-6.5 -106.5q0 -58 7 -88l-6 -9q0 -1 -35.5 -13.5t-87 -22.5t-107.5 -10q-88 0 -154 38zM243 -278v10q31 19 51.5 46.5
t20.5 52.5q0 19 -11 35.5t-29 26.5l2 14q34 26 58 26q23 0 38.5 -19.5t15.5 -51.5q0 -49 -38 -88.5t-90 -66.5z" />
    <glyph glyph-name="gcommaaccent" unicode="&#x123;" horiz-adv-x="566" 
d="M106.5 56.5q-65.5 65.5 -65.5 176.5q0 82 36 144t101.5 96t151.5 34q31 0 66.5 -4t61 -9t32.5 -6l4 -6q-1 -5 -5.5 -23.5t-9 -48t-6.5 -62.5l-49 -4q0 4 1 15.5t1 26.5q0 35 -27 50.5t-88 15.5q-89 0 -136.5 -49.5t-47.5 -143.5q0 -101 47 -159.5t127 -58.5q28 0 51 6
t36.5 12t16.5 8v88q0 25 -8.5 33t-34.5 8h-53l-2 4l8 44q4 0 37.5 -1t68.5 -1q23 0 45.5 1.5t28.5 2.5l4 -22q-16 -12 -21.5 -37t-5.5 -86q0 -45 5 -68l-5 -8q-7 -3 -32.5 -11t-67.5 -15.5t-90 -7.5q-110 0 -175.5 65.5zM207 -278v10q31 19 51.5 46.5t20.5 52.5
q0 19 -11 35.5t-29 26.5l2 14q34 26 58 26q23 0 38.5 -19.5t15.5 -51.5q0 -49 -38 -88.5t-90 -66.5z" />
    <glyph glyph-name="Hcircumflex" unicode="&#x124;" horiz-adv-x="754" 
d="M64 34q46 9 62 26.5t16 59.5l1 420q0 32 -7.5 43t-29.5 11l-34 -2l-2 4l7 44q13 0 20 -1q60 -2 91 -2q42 0 107 9l-4 -45q-30 -5 -42.5 -12t-17 -23.5t-6.5 -54.5l-6 -162l168 -1q63 0 148 10l1 182q0 32 -7.5 43t-29.5 11q-14 0 -34 -2l-2 4l7 44q11 -1 40 -2t58 -1
q48 0 120 9l-4 -45q-37 -5 -50 -16.5t-14 -40.5q-6 -113 -10 -242.5t-4 -195.5q0 -37 9 -49.5t35 -12.5q12 0 45 3l2 -4l-9 -46q-14 0 -22 1q-66 2 -101 2l-115 -2l9 45q33 1 48.5 9t21.5 30t6 68v151l-152 1q-25 -1 -70 -3.5t-96 -7.5l-4 -179q0 -41 9 -54.5t35 -13.5
q12 0 45 3l2 -4l-9 -46q-9 1 -34 2t-51 1q-46 0 -98.5 -4t-53.5 -8zM246 713l-14 22q41 31 83.5 65.5t54.5 45.5h14q12 -11 54.5 -45.5t83.5 -65.5l-14 -22l-9 -1q-67 39 -122 65q-52 -24 -122 -65z" />
    <glyph glyph-name="hcircumflex" unicode="&#x125;" horiz-adv-x="639" 
d="M188 588l-14 22q41 43 83.5 91t54.5 62h14q12 -14 54.5 -62t83.5 -91l-14 -22l-9 -1q-38 34 -101 81l-21 16q-78 -58 -122 -97zM59 32q37 7 50 20.5t13 46.5l1 318q0 25 -6 33.5t-24 8.5l-27 -1l-3 4l6 38q10 0 37.5 -1t55.5 -1q23 0 55 3t42 4l-4 -41q-24 -4 -34 -9.5
t-13.5 -17t-5.5 -39.5l-5 -121l130 -1q53 0 115 7l1 134q0 25 -6 33.5t-24 8.5l-28 -1l-2 4l6 38q9 -1 35 -1.5t51 -0.5q24 0 58.5 3t45.5 4l-3 -41q-31 -4 -41 -12.5t-11 -31.5q-4 -79 -7.5 -176.5t-3.5 -150.5q0 -32 7 -42.5t28 -10.5q12 0 22 1t13 1l3 -4l-8 -40
q-11 0 -41.5 1t-63.5 1l-100 -1l8 40q26 0 38.5 6.5t17.5 23t5 49.5v112l-115 1q-16 0 -65 -3.5t-66 -4.5l-3 -130q0 -32 7 -43t28 -11q12 0 22 1t13 2l2 -4l-7 -40q-8 0 -30.5 1t-47.5 1q-37 0 -81 -3t-45 -6z" />
    <glyph glyph-name="Hbar" unicode="&#x126;" horiz-adv-x="750" 
d="M614 450q-10 -223 -10 -344q0 -37 9 -49.5t35 -12.5q12 0 45 3l2 -4l-9 -46q-14 0 -22 1q-66 2 -101 2l-115 -2l9 45q33 1 48.5 9t21.5 30t6 68v151l-152 1q-25 -1 -70 -3.5t-96 -7.5l-4 -179q0 -41 9 -54.5t35 -13.5q12 0 45 3l2 -4l-9 -46q-9 1 -34 2t-51 1
q-46 0 -98.5 -4t-53.5 -8l6 46q46 9 62 26.5t16 59.5l1 328h-90l-9 9l7 39h92v44q0 32 -7.5 43t-29.5 11l-34 -2l-2 4l7 44q13 0 20 -1q60 -2 91 -2q42 0 107 9l-4 -45q-30 -5 -42.5 -12t-17 -23.5t-6.5 -54.5l-1 -16h174l138 1v44q0 32 -7.5 43t-29.5 11q-14 0 -34 -2l-2 4
l7 44q11 -1 40 -2t58 -1q48 0 120 9l-4 -45q-37 -5 -50 -16.5t-14 -40.5q-2 -30 -2 -46l78 2l13 -13l-4 -37h-89zM534 449h-160h-153l-4 -100l168 -1q63 0 148 10z" />
    <glyph glyph-name="hbar" unicode="&#x127;" horiz-adv-x="639" 
d="M518 347q-7 -164 -7 -254q0 -32 7 -42.5t28 -10.5q12 0 22 1t13 1l3 -4l-8 -40q-11 0 -41.5 1t-63.5 1l-100 -1l8 40q26 0 38.5 6.5t17.5 23t5 49.5v102l-115 1q-16 0 -65 -3.5t-66 -4.5l-3 -120q0 -32 7 -43t28 -11q12 0 22 1t13 2l2 -4l-7 -40q-8 0 -30.5 1t-47.5 1
q-37 0 -81 -3t-45 -6l5 41q37 7 50 20.5t13 46.5l1 246h-73l-7 7l6 33h74v32q0 25 -6 33.5t-24 8.5l-27 -1l-3 4l6 38q10 0 37.5 -1t55.5 -1q23 0 55 3t42 4l-4 -41q-24 -4 -34 -9.5t-13.5 -17t-5.5 -39.5l-1 -14h137q69 0 105 1v32q0 25 -6 33.5t-24 8.5l-28 -1l-2 4l6 38
q9 -1 35 -1.5t51 -0.5q24 0 58.5 3t45.5 4l-3 -41q-31 -4 -41 -12.5t-11 -31.5l-2 -34l64 2l11 -10l-4 -31h-73zM441 346h-123h-120l-3 -79l130 -1q53 0 115 7z" />
    <glyph glyph-name="Imacron" unicode="&#x12a;" horiz-adv-x="361" 
d="M62 34q47 9 63.5 26.5t16.5 59.5l1 420q0 32 -7.5 43t-29.5 11l-42 -2l-2 4l7 44q16 0 25 -1l94 -2q45 0 115 9l-4 -45q-41 -5 -55.5 -16.5t-16.5 -40.5q-6 -117 -10 -244.5t-4 -187.5q0 -41 9 -54.5t35 -13.5q17 0 53 3l2 -4l-9 -46q-14 0 -22 1q-70 2 -109 2
q-49 0 -116 -12zM31 728l10 45l154 -1q31 0 73.5 2.5t55.5 3.5l6 -10l-7 -47l-142 -1l-144 -1z" />
    <glyph glyph-name="imacron" unicode="&#x12b;" horiz-adv-x="319" 
d="M12 628l10 45l154 -1q31 0 73.5 2.5t55.5 3.5l6 -10l-7 -47l-142 -1l-144 -1zM58 32q38 7 51 20.5t13 46.5l1 318q0 25 -6 33.5t-24 8.5l-33 -1l-2 4l5 38q6 0 32.5 -1t69.5 -1q23 0 56.5 3t43.5 4l-4 -41q-33 -4 -44 -12.5t-13 -31.5q-4 -80 -7.5 -177t-3.5 -150
q0 -32 7 -43t28 -11q14 0 25.5 1t15.5 2l2 -4l-7 -40q-12 0 -45 1t-66 1q-27 0 -58.5 -3.5t-41.5 -5.5z" />
    <glyph glyph-name="Ibreve" unicode="&#x12c;" horiz-adv-x="361" 
d="M62 34q47 9 63.5 26.5t16.5 59.5l1 420q0 32 -7.5 43t-29.5 11l-42 -2l-2 4l7 44q16 0 25 -1l94 -2q45 0 115 9l-4 -45q-41 -5 -55.5 -16.5t-16.5 -40.5q-6 -117 -10 -244.5t-4 -187.5q0 -41 9 -54.5t35 -13.5q17 0 53 3l2 -4l-9 -46q-14 0 -22 1q-70 2 -109 2
q-49 0 -116 -12zM103 756q-30 33 -42 81l16 10h8q12 -32 38 -49t58 -17t58 17t38 49h8l16 -10q-12 -48 -42 -81t-78 -33t-78 33z" />
    <glyph glyph-name="ibreve" unicode="&#x12d;" horiz-adv-x="319" 
d="M87 606q-30 33 -42 81l16 10h8q12 -32 38 -49t58 -17t58 17t38 49h8l16 -10q-12 -48 -42 -81t-78 -33t-78 33zM58 32q38 7 51 20.5t13 46.5l1 318q0 25 -6 33.5t-24 8.5l-33 -1l-2 4l5 38q6 0 32.5 -1t69.5 -1q23 0 56.5 3t43.5 4l-4 -41q-33 -4 -44 -12.5t-13 -31.5
q-4 -80 -7.5 -177t-3.5 -150q0 -32 7 -43t28 -11q14 0 25.5 1t15.5 2l2 -4l-7 -40q-12 0 -45 1t-66 1q-27 0 -58.5 -3.5t-41.5 -5.5z" />
    <glyph glyph-name="Iogonek" unicode="&#x12e;" horiz-adv-x="361" 
d="M62 34q47 9 63.5 26.5t16.5 59.5l1 420q0 32 -7.5 43t-29.5 11l-42 -2l-2 4l7 44q16 0 25 -1l94 -2q45 0 115 9l-4 -45q-41 -5 -55.5 -16.5t-16.5 -40.5q-6 -117 -10 -244.5t-4 -187.5q0 -41 9 -54.5t35 -13.5q17 0 53 3l2 -4l-9 -46q-14 0 -22 1q-70 2 -109 2
q-49 0 -116 -12zM134 -216q-31 25 -31 66q0 25 10 46t38 53t89 93h42q-49 -51 -73 -79.5t-33.5 -48t-9.5 -39.5q0 -26 15.5 -41.5t42.5 -15.5q17 0 39 6.5t38 16.5l13 -19q-21 -20 -49 -38t-51 -25q-49 0 -80 25z" />
    <glyph glyph-name="iogonek" unicode="&#x12f;" horiz-adv-x="319" 
d="M278 -180q-21 -20 -48.5 -38t-50.5 -25q-49 0 -79.5 25t-30.5 65q0 22 7.5 40.5t28 44t62.5 68.5h-14q-27 0 -58.5 -3.5t-41.5 -5.5l5 41q38 7 51 20.5t13 46.5l1 318q0 25 -6 33.5t-24 8.5l-33 -1l-2 4l5 38q6 0 32.5 -1t69.5 -1q23 0 56.5 3t43.5 4l-4 -41
q-33 -4 -44 -12.5t-13 -31.5q-4 -80 -7.5 -177t-3.5 -150q0 -32 7 -43t28 -11q14 0 25.5 1t15.5 2l2 -4l-7 -40q-5 0 -19.5 0.5t-35.5 0.5q-46 -49 -62 -75.5t-16 -51.5q0 -26 15.5 -41t42.5 -15q17 0 38.5 6.5t37.5 16.5z" />
    <glyph glyph-name="Idotaccent" unicode="&#x130;" horiz-adv-x="361" 
d="M62 34q47 9 63.5 26.5t16.5 59.5l1 420q0 32 -7.5 43t-29.5 11l-42 -2l-2 4l7 44q16 0 25 -1l94 -2q45 0 115 9l-4 -45q-41 -5 -55.5 -16.5t-16.5 -40.5q-6 -117 -10 -244.5t-4 -187.5q0 -41 9 -54.5t35 -13.5q17 0 53 3l2 -4l-9 -46q-14 0 -22 1q-70 2 -109 2
q-49 0 -116 -12zM140 724q-13 15 -13 36q0 24 17 41.5t42 17.5q23 0 36 -15t13 -36q0 -24 -17 -41.5t-42 -17.5q-23 0 -36 15z" />
    <glyph glyph-name="dotlessi" unicode="&#x131;" horiz-adv-x="319" 
d="M58 32q38 7 51 20.5t13 46.5l1 318q0 25 -6 33.5t-24 8.5l-33 -1l-2 4l5 38q6 0 32.5 -1t69.5 -1q23 0 56.5 3t43.5 4l-4 -41q-33 -4 -44 -12.5t-13 -31.5q-4 -80 -7.5 -177t-3.5 -150q0 -32 7 -43t28 -11q14 0 25.5 1t15.5 2l2 -4l-7 -40q-12 0 -45 1t-66 1
q-27 0 -58.5 -3.5t-41.5 -5.5z" />
    <glyph glyph-name="IJ" unicode="&#x132;" horiz-adv-x="688" 
d="M62 34q47 9 63.5 26.5t16.5 59.5l1 420q0 32 -7.5 43t-29.5 11l-42 -2l-2 4l7 44q16 0 25 -1l94 -2q45 0 115 9l-4 -45q-41 -5 -55.5 -16.5t-16.5 -40.5q-6 -117 -10 -244.5t-4 -187.5q0 -41 9 -54.5t35 -13.5q17 0 53 3l2 -4l-9 -46q-14 0 -22 1q-70 2 -109 2
q-49 0 -116 -12zM384 -111l3 8q41 25 63.5 52.5t32 66t9.5 99.5l1 425q0 32 -7 42.5t-30 10.5q-12 0 -26.5 -1.5t-20.5 -2.5l-2 4l7 44h108q27 0 65.5 3.5t50.5 5.5l-4 -45q-25 -4 -36 -9t-15.5 -15.5t-5.5 -32.5q-4 -93 -7.5 -216t-5.5 -212q-1 -102 -39.5 -163.5
t-123.5 -96.5z" />
    <glyph glyph-name="ij" unicode="&#x133;" horiz-adv-x="588" 
d="M58 32q38 7 51 20.5t13 46.5l1 318q0 25 -6 33.5t-24 8.5l-33 -1l-2 4l5 38q6 0 32.5 -1t69.5 -1q23 0 56.5 3t43.5 4l-4 -41q-33 -4 -44 -12.5t-13 -31.5q-4 -80 -7.5 -177t-3.5 -150q0 -32 7 -43t28 -11q14 0 25.5 1t15.5 2l2 -4l-7 -40q-12 0 -45 1t-66 1
q-27 0 -58.5 -3.5t-41.5 -5.5zM388 -87l2 7q49 30 66.5 65.5t17.5 106.5l1 325q0 25 -6 33t-24 8q-10 0 -21.5 -1t-15.5 -1l-3 4l6 38h92q26 0 59.5 3t43.5 4l-4 -41q-28 -4 -36 -12t-10 -32q-10 -233 -10 -333q-1 -79 -34.5 -127t-107.5 -75z" />
    <glyph glyph-name="Jcircumflex" unicode="&#x134;" horiz-adv-x="327" 
d="M23 -111l3 8q41 25 63.5 52.5t32 66t9.5 99.5l1 425q0 32 -7 42.5t-30 10.5q-12 0 -26.5 -1.5t-20.5 -2.5l-2 4l7 44h108q27 0 65.5 3.5t50.5 5.5l-4 -45q-25 -4 -36 -9t-15.5 -15.5t-5.5 -32.5q-4 -93 -7.5 -216t-5.5 -212q-1 -102 -39.5 -163.5t-123.5 -96.5zM43 702
l-14 22q41 42 83.5 90.5t54.5 62.5h14q12 -14 54.5 -62t83.5 -91l-14 -22l-9 -1q-38 34 -101 81l-21 16q-78 -58 -122 -97z" />
    <glyph glyph-name="jcircumflex" unicode="&#x135;" horiz-adv-x="292" 
d="M22 562l-14 22q41 42 83.5 90.5t54.5 62.5h14q12 -14 54.5 -62.5t83.5 -90.5l-14 -22l-9 -1q-38 34 -101 81l-21 16q-78 -58 -122 -97zM27 -87l2 7q49 30 66.5 65.5t17.5 106.5l1 325q0 25 -6 33t-24 8q-10 0 -21.5 -1t-15.5 -1l-3 4l6 38h92q26 0 59.5 3t43.5 4l-4 -41
q-28 -4 -36 -12t-10 -32q-10 -233 -10 -333q-1 -79 -34.5 -127t-107.5 -75z" />
    <glyph glyph-name="Kcommaaccent" unicode="&#x136;" horiz-adv-x="628" 
d="M135.5 583q-7.5 11 -29.5 11q-10 0 -20 -1t-14 -1l-2 4l7 44q12 -1 45 -2t66 -1q27 0 61.5 3.5t45.5 5.5l-4 -45q-37 -6 -51 -18.5t-15 -41.5l-12 -429q-1 -40 8 -54t36 -14q15 0 28 1t17 2l2 -4l-9 -46q-13 1 -49 2t-74 1l-115 -1l10 45q32 3 47.5 10t21.5 22t6 44
l1 420q0 32 -7.5 43zM422 515q31 31 31 52q0 26 -63 30l-2 4l7 43q12 -1 49.5 -4t60.5 -3q24 0 53.5 1.5t38.5 2.5l4 -7l-7 -41q-26 -5 -48 -21t-67 -63l-161 -169l168 -219q36 -47 64.5 -66t63.5 -19l4 -4l-6 -34q-11 -2 -43.5 -7t-39.5 -5q-24 0 -53 22.5t-59 63.5
l-175 243l1 14zM281 -278v10q31 19 51.5 46.5t20.5 52.5q0 19 -11 35.5t-29 26.5l2 14q34 26 58 26q23 0 38.5 -19.5t15.5 -51.5q0 -49 -38 -88.5t-90 -66.5z" />
    <glyph glyph-name="kcommaaccent" unicode="&#x137;" horiz-adv-x="543" 
d="M117 450.5q-6 8.5 -24 8.5l-27 -1l-3 4l6 38q11 0 40 -1t56 -1q22 0 53 3t41 4l-3 -41q-31 -5 -42 -14.5t-12 -31.5l-9 -325q-1 -32 6.5 -43t28.5 -11q12 0 22 1t13 2l2 -4l-7 -40q-11 0 -42 1t-63 1l-99 -1l8 40q38 4 49 15t11 45l1 318q0 25 -6 33.5zM356 398
q24 23 24 39q0 21 -49 24l-2 4l6 38q10 -1 42 -3t51 -2q26 0 49.5 1t31.5 2l4 -6l-6 -36q-22 -6 -41.5 -20.5t-56.5 -52.5l-120 -119l130 -166q29 -36 51.5 -51t50.5 -16l4 -5l-5 -31q-10 -1 -34.5 -4.5t-40.5 -4.5q-44 0 -92 66l-138 191l1 13zM202 -278v10
q31 19 51.5 46.5t20.5 52.5q0 19 -11 35.5t-29 26.5l2 14q34 26 58 26q23 0 38.5 -19.5t15.5 -51.5q0 -49 -38 -88.5t-90 -66.5z" />
    <glyph glyph-name="kgreenlandic" unicode="&#x138;" horiz-adv-x="543" 
d="M117 450.5q-6 8.5 -24 8.5l-27 -1l-3 4l6 38q11 0 40 -1t56 -1q22 0 53 3t41 4l-3 -41q-31 -5 -42 -14.5t-12 -31.5l-9 -325q-1 -32 6.5 -43t28.5 -11q12 0 22 1t13 2l2 -4l-7 -40q-11 0 -42 1t-63 1l-99 -1l8 40q38 4 49 15t11 45l1 318q0 25 -6 33.5zM356 398
q24 23 24 39q0 21 -49 24l-2 4l6 38q10 -1 42 -3t51 -2q26 0 49.5 1t31.5 2l4 -6l-6 -36q-22 -6 -41.5 -20.5t-56.5 -52.5l-120 -119l130 -166q29 -36 51.5 -51t50.5 -16l4 -5l-5 -31q-10 -1 -34.5 -4.5t-40.5 -4.5q-44 0 -92 66l-138 191l1 13z" />
    <glyph glyph-name="Lacute" unicode="&#x139;" horiz-adv-x="507" 
d="M74 36q39 6 53.5 23.5t14.5 60.5l1 420q0 32 -7.5 43t-29.5 11q-10 0 -20 -1t-14 -1l-2 4l7 44q12 -1 45 -2t67 -1q27 0 61.5 3.5t45.5 5.5l-4 -45q-33 -4 -45.5 -13t-15 -21t-5.5 -59q-6 -85 -9 -194t-3 -192q0 -36 6 -51.5t22.5 -20.5t56.5 -5q61 0 89.5 10t43 39
t26.5 93l44 5l3 -5q-3 -16 -12.5 -72t-16.5 -118l-5 -6q-29 2 -119.5 5.5t-149.5 3.5q-47 0 -85.5 -4t-48.5 -6zM104 718l-6 24q59 31 120 65t79 44l9 -6l16 -48l-4 -10q-17 -6 -78.5 -27.5t-127.5 -46.5z" />
    <glyph glyph-name="lacute" unicode="&#x13a;" horiz-adv-x="442" 
d="M142 568l-20 19q45 49 91 103t59 70l10 -2l38 -41l-1 -11q-15 -11 -65.5 -52t-102.5 -88zM67 34q32 5 43.5 18.5t11.5 47.5l1 317q0 25 -6 33.5t-24 8.5l-27 -1l-3 4l6 38q5 0 30 -1t67 -1q22 0 54.5 3t42.5 4l-4 -42q-27 -3 -38 -9.5t-13 -16.5t-5 -41
q-10 -134 -10 -297q0 -25 4.5 -36.5t18 -15.5t42.5 -4q48 0 70.5 8t34 31.5t20.5 74.5l44 5l3 -6q-2 -13 -9.5 -59.5t-13.5 -97.5l-5 -6q-23 1 -97.5 4t-125.5 3q-40 0 -74.5 -3.5t-43.5 -4.5z" />
    <glyph glyph-name="Lcommaaccent" unicode="&#x13b;" horiz-adv-x="507" 
d="M74 36q39 6 53.5 23.5t14.5 60.5l1 420q0 32 -7.5 43t-29.5 11q-10 0 -20 -1t-14 -1l-2 4l7 44q12 -1 45 -2t67 -1q27 0 61.5 3.5t45.5 5.5l-4 -45q-33 -4 -45.5 -13t-15 -21t-5.5 -59q-6 -85 -9 -194t-3 -192q0 -36 6 -51.5t22.5 -20.5t56.5 -5q61 0 89.5 10t43 39
t26.5 93l44 5l3 -5q-3 -16 -12.5 -72t-16.5 -118l-5 -6q-29 2 -119.5 5.5t-149.5 3.5q-47 0 -85.5 -4t-48.5 -6zM213 -278v10q31 19 51.5 46.5t20.5 52.5q0 19 -11 35.5t-29 26.5l2 14q34 26 58 26q23 0 38.5 -19.5t15.5 -51.5q0 -49 -38 -88.5t-90 -66.5z" />
    <glyph glyph-name="lcommaaccent" unicode="&#x13c;" horiz-adv-x="442" 
d="M67 34q32 5 43.5 18.5t11.5 47.5l1 317q0 25 -6 33.5t-24 8.5l-27 -1l-3 4l6 38q5 0 30 -1t67 -1q22 0 54.5 3t42.5 4l-4 -42q-27 -3 -38 -9.5t-13 -16.5t-5 -41q-10 -134 -10 -297q0 -25 4.5 -36.5t18 -15.5t42.5 -4q48 0 70.5 8t34 31.5t20.5 74.5l44 5l3 -6
q-2 -13 -9.5 -59.5t-13.5 -97.5l-5 -6q-23 1 -97.5 4t-125.5 3q-40 0 -74.5 -3.5t-43.5 -4.5zM172 -278v10q31 19 51.5 46.5t20.5 52.5q0 19 -11 35.5t-29 26.5l2 14q34 26 58 26q23 0 38.5 -19.5t15.5 -51.5q0 -49 -38 -88.5t-90 -66.5z" />
    <glyph glyph-name="Lcaron" unicode="&#x13d;" horiz-adv-x="507" 
d="M74 36q39 6 53.5 23.5t14.5 60.5l1 420q0 32 -7.5 43t-29.5 11q-10 0 -20 -1t-14 -1l-2 4l7 44q12 -1 45 -2t67 -1q27 0 61.5 3.5t45.5 5.5l-4 -45q-33 -4 -45.5 -13t-15 -21t-5.5 -59q-6 -85 -9 -194t-3 -192q0 -36 6 -51.5t22.5 -20.5t56.5 -5q61 0 89.5 10t43 39
t26.5 93l44 5l3 -5q-3 -16 -12.5 -72t-16.5 -118l-5 -6q-29 2 -119.5 5.5t-149.5 3.5q-47 0 -85.5 -4t-48.5 -6zM416 401q1 18 1 54q0 56 -3 103.5t-4 60.5l70 14l7 -8q-2 -19 -12 -83.5t-23 -128.5l-25 -14z" />
    <glyph glyph-name="lcaron" unicode="&#x13e;" horiz-adv-x="472" 
d="M67 34q32 5 43.5 18.5t11.5 47.5l1 317q0 25 -6 33.5t-24 8.5l-27 -1l-3 4l6 38q5 0 30 -1t67 -1q22 0 54.5 3t42.5 4l-4 -42q-27 -3 -38 -9.5t-13 -16.5t-5 -41q-10 -134 -10 -297q0 -25 4.5 -36.5t18 -15.5t42.5 -4q48 0 70.5 8t34 31.5t20.5 74.5l44 5l3 -6
q-2 -13 -9.5 -59.5t-13.5 -97.5l-5 -6q-23 1 -97.5 4t-125.5 3q-40 0 -74.5 -3.5t-43.5 -4.5zM354 312q1 16 1 47q0 43 -2.5 79t-3.5 46l64 11l6 -6q-2 -15 -10.5 -65.5t-19.5 -101.5l-25 -12z" />
    <glyph glyph-name="Ldot" unicode="&#x13f;" horiz-adv-x="533" 
d="M74 36q39 6 53.5 23.5t14.5 60.5l1 420q0 32 -7.5 43t-29.5 11q-10 0 -20 -1t-14 -1l-2 4l7 44q12 -1 45 -2t67 -1q27 0 61.5 3.5t45.5 5.5l-4 -45q-33 -4 -45.5 -13t-15 -21t-5.5 -59q-6 -85 -9 -194t-3 -192q0 -36 6 -51.5t22.5 -20.5t56.5 -5q61 0 89.5 10t43 39
t26.5 93l44 5l3 -5q-3 -16 -12.5 -72t-16.5 -118l-5 -6q-29 2 -119.5 5.5t-149.5 3.5q-47 0 -85.5 -4t-48.5 -6zM394.5 399.5q-14.5 16.5 -14.5 40.5q0 26 17 44t45 18q27 0 42 -16.5t15 -40.5q0 -26 -17.5 -44t-45.5 -18q-27 0 -41.5 16.5z" />
    <glyph glyph-name="ldot" unicode="&#x140;" horiz-adv-x="490" 
d="M67 34q32 5 43.5 18.5t11.5 47.5l1 317q0 25 -6 33.5t-24 8.5l-27 -1l-3 4l6 38q5 0 30 -1t67 -1q22 0 54.5 3t42.5 4l-4 -42q-27 -3 -38 -9.5t-13 -16.5t-5 -41q-10 -134 -10 -297q0 -25 4.5 -36.5t18 -15.5t42.5 -4q48 0 70.5 8t34 31.5t20.5 74.5l44 5l3 -6
q-2 -13 -9.5 -59.5t-13.5 -97.5l-5 -6q-23 1 -97.5 4t-125.5 3q-40 0 -74.5 -3.5t-43.5 -4.5zM329.5 279.5q-14.5 16.5 -14.5 40.5q0 26 17 44t45 18q27 0 42 -16.5t15 -40.5q0 -26 -17.5 -44t-45.5 -18q-27 0 -41.5 16.5z" />
    <glyph glyph-name="Lslash" unicode="&#x141;" horiz-adv-x="551" 
d="M505 187q-3 -16 -12.5 -72t-16.5 -118l-5 -6q-29 2 -119.5 5.5t-149.5 3.5q-47 0 -85.5 -4t-48.5 -6l6 46q39 6 53.5 23.5t14.5 60.5v171l-67 -33l-9 3l-5 32l82 40v207q0 32 -7.5 43t-29.5 11q-10 0 -20 -1t-14 -1l-2 4l7 44q12 -1 45 -2t67 -1q27 0 61.5 3.5t45.5 5.5
l-4 -45q-33 -4 -45.5 -13t-15 -21t-5.5 -59q-6 -86 -7 -143l179 89l8 -5l5 -31l-194 -96q-3 -115 -3 -200q0 -36 6 -51.5t22.5 -20.5t56.5 -5q61 0 89.5 10t43 39t26.5 93l44 5z" />
    <glyph glyph-name="lslash" unicode="&#x142;" horiz-adv-x="454" 
d="M442 156q-2 -13 -9.5 -59.5t-13.5 -97.5l-5 -6q-23 1 -97.5 4t-125.5 3q-40 0 -74.5 -3.5t-43.5 -4.5l6 42q32 5 43.5 18.5t11.5 47.5v121l-52 -25l-8 2l-6 32l67 32v155q0 25 -6 33.5t-24 8.5l-27 -1l-3 4l6 38q5 0 30 -1t67 -1q22 0 54.5 3t42.5 4l-4 -42
q-27 -3 -38 -9.5t-13 -16.5t-5 -41l-6 -104l139 65l7 -4l7 -32l-154 -72q-3 -82 -3 -150q0 -25 4.5 -36.5t18 -15.5t42.5 -4q48 0 70.5 8t34 31.5t20.5 74.5l44 5z" />
    <glyph glyph-name="Nacute" unicode="&#x143;" horiz-adv-x="719" 
d="M400.5 217.5q-82.5 122.5 -135.5 198t-67 95.5h-5l-5 -427q0 -22 7 -31t24 -9l51 1l2 -4l-9 -45q-11 1 -45 2.5t-61 1.5q-25 0 -54.5 -3.5t-38.5 -4.5l5 46q31 4 46 18.5t16 44.5l13 437q0 31 -18.5 44t-68.5 18l-3 5l8 37q9 -1 39 -3t47 -2q21 0 41 1.5t26 2.5
q74 -115 148.5 -225t124.5 -181t63 -90h5v405q0 43 -33 43l-38 -1l-2 4l9 45q10 -1 38 -2.5t57 -1.5q26 0 57.5 3.5t41.5 4.5l-5 -46q-35 -5 -51 -19.5t-17 -43.5l-14 -562l-29 -14q-87 135 -169.5 257.5zM313 708l-6 24q59 31 120 65t79 44l9 -6l16 -48l-4 -10
q-17 -6 -78.5 -27.5t-127.5 -46.5z" />
    <glyph glyph-name="nacute" unicode="&#x144;" horiz-adv-x="614" 
d="M228 568l-20 19q45 49 91 103t59 70l10 -2l38 -41l-1 -11q-15 -11 -65 -51.5t-103 -88.5zM461 425q0 33 -27 33h-30l-2 4l7 39q9 -1 34 -2t51 -1q22 0 49.5 2.5t35.5 3.5l-4 -41q-29 -4 -41.5 -15.5t-13.5 -34.5l-12 -430l-39 -11q-95 139 -192 272t-97 131h-5l-3 -303
q0 -19 6 -26t20 -7l40 1l3 -3l-8 -40q-9 1 -35.5 2t-55.5 1q-23 0 -49 -2.5t-34 -3.5l5 41q25 3 37 14.5t13 34.5l11 330q0 25 -14.5 34.5t-55.5 14.5l-4 5l7 34q8 -1 30.5 -2.5t45.5 -1.5q22 0 39 1t22 2q81 -119 171.5 -243t90.5 -122h5z" />
    <glyph glyph-name="Ncommaaccent" unicode="&#x145;" horiz-adv-x="719" 
d="M400.5 217.5q-82.5 122.5 -135.5 198t-67 95.5h-5l-5 -427q0 -22 7 -31t24 -9l51 1l2 -4l-9 -45q-11 1 -45 2.5t-61 1.5q-25 0 -54.5 -3.5t-38.5 -4.5l5 46q31 4 46 18.5t16 44.5l13 437q0 31 -18.5 44t-68.5 18l-3 5l8 37q9 -1 39 -3t47 -2q21 0 41 1.5t26 2.5
q74 -115 148.5 -225t124.5 -181t63 -90h5v405q0 43 -33 43l-38 -1l-2 4l9 45q10 -1 38 -2.5t57 -1.5q26 0 57.5 3.5t41.5 4.5l-5 -46q-35 -5 -51 -19.5t-17 -43.5l-14 -562l-29 -14q-87 135 -169.5 257.5zM279 -278v10q31 19 51.5 46.5t20.5 52.5q0 19 -11 35.5t-29 26.5
l2 14q34 26 58 26q23 0 38.5 -19.5t15.5 -51.5q0 -49 -38 -88.5t-90 -66.5z" />
    <glyph glyph-name="ncommaaccent" unicode="&#x146;" horiz-adv-x="614" 
d="M461 425q0 33 -27 33h-30l-2 4l7 39q9 -1 34 -2t51 -1q22 0 49.5 2.5t35.5 3.5l-4 -41q-29 -4 -41.5 -15.5t-13.5 -34.5l-12 -430l-39 -11q-95 139 -192 272t-97 131h-5l-3 -303q0 -19 6 -26t20 -7l40 1l3 -3l-8 -40q-9 1 -35.5 2t-55.5 1q-23 0 -49 -2.5t-34 -3.5l5 41
q25 3 37 14.5t13 34.5l11 330q0 25 -14.5 34.5t-55.5 14.5l-4 5l7 34q8 -1 30.5 -2.5t45.5 -1.5q22 0 39 1t22 2q81 -119 171.5 -243t90.5 -122h5zM229 -278v10q31 19 51.5 46.5t20.5 52.5q0 19 -11 35.5t-29 26.5l2 14q34 26 58 26q23 0 38.5 -19.5t15.5 -51.5
q0 -49 -38 -88.5t-90 -66.5z" />
    <glyph glyph-name="Ncaron" unicode="&#x147;" horiz-adv-x="719" 
d="M400.5 217.5q-82.5 122.5 -135.5 198t-67 95.5h-5l-5 -427q0 -22 7 -31t24 -9l51 1l2 -4l-9 -45q-11 1 -45 2.5t-61 1.5q-25 0 -54.5 -3.5t-38.5 -4.5l5 46q31 4 46 18.5t16 44.5l13 437q0 31 -18.5 44t-68.5 18l-3 5l8 37q9 -1 39 -3t47 -2q21 0 41 1.5t26 2.5
q74 -115 148.5 -225t124.5 -181t63 -90h5v405q0 43 -33 43l-38 -1l-2 4l9 45q10 -1 38 -2.5t57 -1.5q26 0 57.5 3.5t41.5 4.5l-5 -46q-35 -5 -51 -19.5t-17 -43.5l-14 -562l-29 -14q-87 135 -169.5 257.5zM309.5 749.5q-42.5 34.5 -83.5 65.5l14 22l9 1q67 -39 122 -65
q52 24 122 65l9 -1l14 -22q-41 -31 -83.5 -65.5t-54.5 -45.5h-14q-12 11 -54.5 45.5z" />
    <glyph glyph-name="ncaron" unicode="&#x148;" horiz-adv-x="614" 
d="M242.5 636.5q-44.5 50.5 -87.5 94.5l16 23l8 1q60 -52 128 -101q83 62 128 101l8 -1l16 -23q-43 -44 -87.5 -94.5t-57.5 -65.5h-14q-13 15 -57.5 65.5zM461 425q0 33 -27 33h-30l-2 4l7 39q9 -1 34 -2t51 -1q22 0 49.5 2.5t35.5 3.5l-4 -41q-29 -4 -41.5 -15.5
t-13.5 -34.5l-12 -430l-39 -11q-95 139 -192 272t-97 131h-5l-3 -303q0 -19 6 -26t20 -7l40 1l3 -3l-8 -40q-9 1 -35.5 2t-55.5 1q-23 0 -49 -2.5t-34 -3.5l5 41q25 3 37 14.5t13 34.5l11 330q0 25 -14.5 34.5t-55.5 14.5l-4 5l7 34q8 -1 30.5 -2.5t45.5 -1.5q22 0 39 1
t22 2q81 -119 171.5 -243t90.5 -122h5z" />
    <glyph glyph-name="Eng" unicode="&#x14a;" horiz-adv-x="719" 
d="M424 -121l3 8q48 22 74.5 50.5t37.5 70.5q-114 176 -227.5 340.5t-113.5 162.5h-5l-5 -427q0 -22 7 -31t24 -9l50 2l3 -4l-9 -46q-11 1 -47 2.5t-65 1.5q-25 0 -52 -3.5t-35 -4.5l5 46q35 3 48 20.5t15 65.5l12 414q0 29 -17.5 42t-69.5 20l-3 5l8 37q10 -1 34.5 -3
t46.5 -2q17 0 40 1.5t32 2.5q63 -99 137.5 -209t129 -188t69.5 -99h5v405q0 43 -33 43l-38 -1l-2 4l9 45q10 -1 38 -2.5t57 -1.5q26 0 57.5 3.5t41.5 4.5l-5 -46q-36 -4 -51.5 -19t-16.5 -44l-9 -450q-3 -97 -40.5 -153t-122.5 -87z" />
    <glyph glyph-name="eng" unicode="&#x14b;" horiz-adv-x="628" 
d="M355 -95l3 7q38 18 59 40t30 53q-90 130 -167.5 236.5t-99.5 135.5h-5l-3 -306q0 -18 5.5 -25t20.5 -7l39 2l3 -4l-7 -40q-10 1 -38 2t-61 1q-21 0 -44 -2.5t-30 -3.5l4 40q28 3 39 16.5t12 48.5l10 316q0 23 -14 33t-56 15l-3 5l6 34q8 -1 30.5 -2.5t42.5 -1.5
q16 0 36 1.5t28 1.5q69 -104 152.5 -218.5t109.5 -148.5h5v291q0 34 -27 34l-31 -1l-2 4l7 39q9 0 34.5 -1.5t50.5 -1.5q22 0 49 2.5t35 3.5l-4 -41q-29 -4 -41.5 -15t-13.5 -34l-7 -347q-2 -76 -35 -120t-106 -69z" />
    <glyph glyph-name="Omacron" unicode="&#x14c;" horiz-adv-x="692" 
d="M173 27q-63 39 -98 109.5t-35 160.5q0 98 43.5 178.5t119 127t166.5 46.5q83 0 147 -39t100 -109t36 -160q0 -98 -44.5 -179t-121 -127.5t-169.5 -46.5q-81 0 -144 39zM460 72q49 33 76 92t27 135q0 85 -29 150.5t-80.5 102.5t-118.5 37q-61 0 -108.5 -33t-74 -92
t-26.5 -135q0 -85 28 -150.5t78.5 -102.5t115.5 -37q63 0 112 33zM192 728l10 45l154 -1q31 0 73.5 2.5t55.5 3.5l6 -10l-7 -47l-142 -1l-144 -1z" />
    <glyph glyph-name="omacron" unicode="&#x14d;" horiz-adv-x="585" 
d="M143 628l10 45l154 -1q31 0 73.5 2.5t55.5 3.5l6 -10l-7 -47l-142 -1l-144 -1zM150.5 21q-52.5 30 -81 85t-28.5 127q0 78 35.5 140.5t97 98t137.5 35.5q69 0 122 -30t82 -84.5t29 -126.5q0 -78 -35.5 -140.5t-98 -98.5t-139.5 -36q-68 0 -120.5 30zM413 91.5
q45 52.5 45 139.5q0 66 -21.5 116t-61 77t-91.5 27q-71 0 -114.5 -52t-43.5 -139q0 -66 21 -116t59.5 -77.5t88.5 -27.5q73 0 118 52.5z" />
    <glyph glyph-name="Obreve" unicode="&#x14e;" horiz-adv-x="692" 
d="M173 27q-63 39 -98 109.5t-35 160.5q0 98 43.5 178.5t119 127t166.5 46.5q83 0 147 -39t100 -109t36 -160q0 -98 -44.5 -179t-121 -127.5t-169.5 -46.5q-81 0 -144 39zM460 72q49 33 76 92t27 135q0 85 -29 150.5t-80.5 102.5t-118.5 37q-61 0 -108.5 -33t-74 -92
t-26.5 -135q0 -85 28 -150.5t78.5 -102.5t115.5 -37q63 0 112 33zM247 746q-30 33 -42 81l16 10h8q12 -32 38 -49t58 -17t58 17t38 49h8l16 -10q-12 -48 -42 -81t-78 -33t-78 33z" />
    <glyph glyph-name="obreve" unicode="&#x14f;" horiz-adv-x="585" 
d="M215 616q-30 33 -42 81l16 10h8q12 -32 38 -49t58 -17t58 17t38 49h8l16 -10q-12 -48 -42 -81t-78 -33t-78 33zM150.5 21q-52.5 30 -81 85t-28.5 127q0 78 35.5 140.5t97 98t137.5 35.5q69 0 122 -30t82 -84.5t29 -126.5q0 -78 -35.5 -140.5t-98 -98.5t-139.5 -36
q-68 0 -120.5 30zM413 91.5q45 52.5 45 139.5q0 66 -21.5 116t-61 77t-91.5 27q-71 0 -114.5 -52t-43.5 -139q0 -66 21 -116t59.5 -77.5t88.5 -27.5q73 0 118 52.5z" />
    <glyph glyph-name="Ohungarumlaut" unicode="&#x150;" horiz-adv-x="692" 
d="M173 27q-63 39 -98 109.5t-35 160.5q0 98 43.5 178.5t119 127t166.5 46.5q83 0 147 -39t100 -109t36 -160q0 -98 -44.5 -179t-121 -127.5t-169.5 -46.5q-81 0 -144 39zM460 72q49 33 76 92t27 135q0 85 -29 150.5t-80.5 102.5t-118.5 37q-61 0 -108.5 -33t-74 -92
t-26.5 -135q0 -85 28 -150.5t78.5 -102.5t115.5 -37q63 0 112 33zM234 689l-9 21q45 33 92 69.5t61 47.5l9 -4l22 -43l-3 -9q-14 -7 -62.5 -32.5t-101.5 -54.5zM375 679l-10 21q54 41 96.5 74t56.5 44l9 -5l22 -42l-3 -9q-14 -7 -63 -32.5t-101 -54.5z" />
    <glyph glyph-name="ohungarumlaut" unicode="&#x151;" horiz-adv-x="585" 
d="M288.5 655q-46.5 -35 -95.5 -76l-9 2l-16 18q41 43 84 90t56 61l9 -3l33 -38l-2 -9q-13 -10 -59.5 -45zM416.5 655q-46.5 -35 -95.5 -76l-9 2l-16 18q41 42 84 89.5t56 61.5l9 -3l33 -38l-2 -9q-13 -10 -59.5 -45zM150.5 21q-52.5 30 -81 85t-28.5 127q0 78 35.5 140.5
t97 98t137.5 35.5q69 0 122 -30t82 -84.5t29 -126.5q0 -78 -35.5 -140.5t-98 -98.5t-139.5 -36q-68 0 -120.5 30zM413 91.5q45 52.5 45 139.5q0 66 -21.5 116t-61 77t-91.5 27q-71 0 -114.5 -52t-43.5 -139q0 -66 21 -116t59.5 -77.5t88.5 -27.5q73 0 118 52.5z" />
    <glyph glyph-name="OE" unicode="&#x152;" horiz-adv-x="963" 
d="M171 27q-61 39 -95.5 109.5t-34.5 160.5q0 98 42.5 178.5t116.5 127t163 46.5q40 0 99 -7q10 -1 47.5 -4t72.5 -3q203 0 304 14l3 -6q-1 -6 -5.5 -28.5t-9.5 -59.5t-8 -78l-48 -4q0 5 1 17.5t1 25.5q0 35 -9.5 48.5t-39.5 18t-105 4.5q-35 0 -48 -2t-17 -9.5t-5 -27.5
l-8 -194l104 -1q22 0 65 4.5t57 6.5l4 -5l-14 -59q-14 1 -54.5 2t-85.5 1l-78 -7l-3 -191q0 -29 5 -40.5t20.5 -15.5t53.5 -4q84 0 119.5 8t50.5 32t23 82l44 5l3 -5q-3 -14 -12 -64.5t-15 -103.5l-5 -6q-34 1 -140 4.5t-165 3.5q-46 0 -151 -7q-74 -6 -103 -6
q-79 0 -140 39zM445.5 56.5q38.5 16.5 56 53t18.5 98.5l1 259q0 51 -15.5 77t-54 36.5t-112.5 10.5q-62 0 -110 -33t-75 -92.5t-27 -135.5q0 -85 27 -151t76 -102.5t112 -36.5q65 0 103.5 16.5z" />
    <glyph glyph-name="oe" unicode="&#x153;" horiz-adv-x="807" 
d="M150 21q-51 30 -79.5 85t-28.5 127q0 78 34.5 140t94.5 97.5t135 35.5q35 0 82 -5q10 -1 40.5 -3t58.5 -2q160 0 251 11l3 -5q-2 -11 -9 -50t-10 -84l-48 -4q0 4 1 13.5t1 19.5q0 26 -7.5 36.5t-31.5 14t-82 3.5q-27 0 -37 -1.5t-13 -7t-4 -20.5l-6 -142l83 -1
q18 0 53 3.5t46 4.5l4 -5l-12 -52q-11 0 -44 1t-69 1l-63 -5l-3 -137q0 -22 4 -31.5t16 -12.5t42 -3q65 0 93 6t39.5 24.5t18.5 63.5l44 4l3 -5q-2 -11 -9.5 -51.5t-12.5 -84.5l-5 -5q-28 1 -113.5 3.5t-138.5 2.5q-49 0 -121 -6q-60 -4 -83 -4q-66 0 -117 30zM394.5 66.5
q30.5 27.5 31.5 94.5l1 200q0 37 -12.5 56.5t-42 27.5t-85.5 8q-72 0 -116.5 -52.5t-44.5 -139.5q0 -102 44.5 -162t119.5 -60q74 0 104.5 27.5z" />
    <glyph glyph-name="Racute" unicode="&#x154;" horiz-adv-x="611" 
d="M458.5 9.5q-28.5 25.5 -52.5 69.5l-107 194h-83l-3 -149q0 -38 5 -54.5t19 -22t48 -5.5l2 -4l-9 -42q-12 1 -48 2t-75 1q-35 0 -62 -1t-36 -2l9 45q32 4 48 11t22 22.5t6 45.5l1 420q0 32 -7.5 43t-29.5 11q-10 0 -20 -1t-14 -1l-2 4l7 44q12 -1 45 -2t66 -1
q34 0 71.5 1.5t51.5 2.5q93 0 147 -42t54 -115q0 -60 -38.5 -110t-108.5 -82l110 -174q29 -48 56.5 -66.5t67.5 -18.5l4 -4l-6 -34l-85 -11q-25 0 -53.5 25.5zM351 332q30 16 54 49t24 85q0 132 -183 132q-10 0 -13.5 -4.5t-4.5 -18.5q-9 -153 -10 -246l103 -10q0 -3 30 13z
M210 708l-6 24q59 31 120 65t79 44l9 -6l16 -48l-4 -10q-17 -6 -78.5 -27.5t-127.5 -46.5z" />
    <glyph glyph-name="racute" unicode="&#x155;" horiz-adv-x="529" 
d="M189 568l-20 19q45 49 91 103t59 70l10 -2l38 -41l-1 -11q-15 -11 -65.5 -51.5t-102.5 -88.5zM386 7.5q-23 19.5 -42 53.5l-84 147h-65l-2 -107q0 -29 4 -41.5t15.5 -16.5t39.5 -5l2 -3l-8 -38q-12 1 -43.5 1.5t-63.5 0.5q-31 0 -54 -1t-31 -2l7 41q37 5 49 17t12 45
l1 319q0 24 -6 32.5t-23 8.5l-28 -1l-3 4l6 38q10 0 38 -1t56 -1q29 0 62 1.5t45 1.5q81 0 127 -33.5t46 -92.5q0 -46 -31 -85t-87 -64l85 -128q24 -36 46 -51t53 -15l4 -5l-5 -31l-77 -8q-22 0 -45 19.5zM311.5 267.5q14.5 7.5 32.5 31.5t18 62q0 97 -143 97q-8 0 -11 -3.5
t-3 -14.5q-8 -122 -8 -180l81 -8q19 8 33.5 15.5z" />
    <glyph glyph-name="Rcommaaccent" unicode="&#x156;" horiz-adv-x="611" 
d="M458.5 9.5q-28.5 25.5 -52.5 69.5l-107 194h-83l-3 -149q0 -38 5 -54.5t19 -22t48 -5.5l2 -4l-9 -42q-12 1 -48 2t-75 1q-35 0 -62 -1t-36 -2l9 45q32 4 48 11t22 22.5t6 45.5l1 420q0 32 -7.5 43t-29.5 11q-10 0 -20 -1t-14 -1l-2 4l7 44q12 -1 45 -2t66 -1
q34 0 71.5 1.5t51.5 2.5q93 0 147 -42t54 -115q0 -60 -38.5 -110t-108.5 -82l110 -174q29 -48 56.5 -66.5t67.5 -18.5l4 -4l-6 -34l-85 -11q-25 0 -53.5 25.5zM351 332q30 16 54 49t24 85q0 132 -183 132q-10 0 -13.5 -4.5t-4.5 -18.5q-9 -153 -10 -246l103 -10q0 -3 30 13z
M233 -278v10q31 19 51.5 46.5t20.5 52.5q0 19 -11 35.5t-29 26.5l2 14q34 26 58 26q23 0 38.5 -19.5t15.5 -51.5q0 -49 -38 -88.5t-90 -66.5z" />
    <glyph glyph-name="rcommaaccent" unicode="&#x157;" horiz-adv-x="529" 
d="M386 7.5q-23 19.5 -42 53.5l-84 147h-65l-2 -107q0 -29 4 -41.5t15.5 -16.5t39.5 -5l2 -3l-8 -38q-12 1 -43.5 1.5t-63.5 0.5q-31 0 -54 -1t-31 -2l7 41q37 5 49 17t12 45l1 319q0 24 -6 32.5t-23 8.5l-28 -1l-3 4l6 38q10 0 38 -1t56 -1q29 0 62 1.5t45 1.5
q81 0 127 -33.5t46 -92.5q0 -46 -31 -85t-87 -64l85 -128q24 -36 46 -51t53 -15l4 -5l-5 -31l-77 -8q-22 0 -45 19.5zM311.5 267.5q14.5 7.5 32.5 31.5t18 62q0 97 -143 97q-8 0 -11 -3.5t-3 -14.5q-8 -122 -8 -180l81 -8q19 8 33.5 15.5zM194 -278v10q31 19 51.5 46.5
t20.5 52.5q0 19 -11 35.5t-29 26.5l2 14q34 26 58 26q23 0 38.5 -19.5t15.5 -51.5q0 -49 -38 -88.5t-90 -66.5z" />
    <glyph glyph-name="Rcaron" unicode="&#x158;" horiz-adv-x="611" 
d="M458.5 9.5q-28.5 25.5 -52.5 69.5l-107 194h-83l-3 -149q0 -38 5 -54.5t19 -22t48 -5.5l2 -4l-9 -42q-12 1 -48 2t-75 1q-35 0 -62 -1t-36 -2l9 45q32 4 48 11t22 22.5t6 45.5l1 420q0 32 -7.5 43t-29.5 11q-10 0 -20 -1t-14 -1l-2 4l7 44q12 -1 45 -2t66 -1
q34 0 71.5 1.5t51.5 2.5q93 0 147 -42t54 -115q0 -60 -38.5 -110t-108.5 -82l110 -174q29 -48 56.5 -66.5t67.5 -18.5l4 -4l-6 -34l-85 -11q-25 0 -53.5 25.5zM351 332q30 16 54 49t24 85q0 132 -183 132q-10 0 -13.5 -4.5t-4.5 -18.5q-9 -153 -10 -246l103 -10q0 -3 30 13z
M234.5 749.5q-42.5 34.5 -83.5 65.5l14 22l9 1q67 -39 122 -65q52 24 122 65l9 -1l14 -22q-41 -31 -83.5 -65.5t-54.5 -45.5h-14q-12 11 -54.5 45.5z" />
    <glyph glyph-name="rcaron" unicode="&#x159;" horiz-adv-x="529" 
d="M203.5 636.5q-44.5 50.5 -87.5 94.5l16 23l8 1q60 -52 128 -101q83 62 128 101l8 -1l16 -23q-43 -44 -87.5 -94.5t-57.5 -65.5h-14q-13 15 -57.5 65.5zM386 7.5q-23 19.5 -42 53.5l-84 147h-65l-2 -107q0 -29 4 -41.5t15.5 -16.5t39.5 -5l2 -3l-8 -38q-12 1 -43.5 1.5
t-63.5 0.5q-31 0 -54 -1t-31 -2l7 41q37 5 49 17t12 45l1 319q0 24 -6 32.5t-23 8.5l-28 -1l-3 4l6 38q10 0 38 -1t56 -1q29 0 62 1.5t45 1.5q81 0 127 -33.5t46 -92.5q0 -46 -31 -85t-87 -64l85 -128q24 -36 46 -51t53 -15l4 -5l-5 -31l-77 -8q-22 0 -45 19.5zM311.5 267.5
q14.5 7.5 32.5 31.5t18 62q0 97 -143 97q-8 0 -11 -3.5t-3 -14.5q-8 -122 -8 -180l81 -8q19 8 33.5 15.5z" />
    <glyph glyph-name="Sacute" unicode="&#x15a;" horiz-adv-x="530" 
d="M142 -4.5q-35 7.5 -57.5 16.5t-22.5 10l-5 10q1 6 4 30t5.5 62.5t2.5 81.5l45 5q0 -75 10 -111t37 -49.5t83 -13.5q63 0 101 29.5t38 80.5q0 30 -20.5 54t-48.5 41t-83 46q-52 27 -85 49.5t-55.5 53.5t-22.5 72q0 52 30.5 94.5t83 67t116.5 24.5q40 0 74 -5.5t54 -11.5
t25 -8l3 -6q-1 -6 -5 -28t-9 -61t-8 -80l-39 -4l-6 5q1 4 2 18.5t1 33.5q0 53 -26 73t-93 20q-55 0 -90.5 -27.5t-35.5 -68.5q0 -40 34.5 -69.5t101.5 -64.5q65 -33 99 -54.5t60 -53.5t26 -74q0 -56 -31.5 -100.5t-87.5 -69.5t-128 -25q-42 0 -77 7.5zM189 708l-6 24
q59 31 120 65t79 44l9 -6l16 -48l-4 -10q-17 -6 -78.5 -27.5t-127.5 -46.5z" />
    <glyph glyph-name="sacute" unicode="&#x15b;" horiz-adv-x="459" 
d="M151 568l-20 19q45 49 91 103t59 70l10 -2l38 -41l-1 -11q-15 -11 -65 -51.5t-103 -88.5zM126.5 -3q-29.5 6 -47 12.5t-21.5 8.5l-5 9q1 5 3.5 22.5t5 49t2.5 63.5l45 4q0 -54 8.5 -80.5t29.5 -36.5t64 -10q48 0 77.5 21t29.5 56q0 23 -16.5 40.5t-38 29.5t-68.5 35
q-64 31 -98.5 61t-34.5 77q0 42 25.5 76t70.5 53t100 19q33 0 62 -4t46 -8.5t21 -6.5l4 -7l-9 -49.5t-10 -82.5l-39 -4l-6 4q0 3 1 12.5t1 23.5q0 39 -20.5 54.5t-72.5 15.5q-42 0 -69.5 -19.5t-27.5 -49.5t27.5 -51t83.5 -48q49 -23 78.5 -40t50.5 -43t21 -60
q0 -45 -26.5 -79.5t-74 -54t-108.5 -19.5q-35 0 -64.5 6z" />
    <glyph glyph-name="Scircumflex" unicode="&#x15c;" horiz-adv-x="530" 
d="M142 -4.5q-35 7.5 -57.5 16.5t-22.5 10l-5 10q1 6 4 30t5.5 62.5t2.5 81.5l45 5q0 -75 10 -111t37 -49.5t83 -13.5q63 0 101 29.5t38 80.5q0 30 -20.5 54t-48.5 41t-83 46q-52 27 -85 49.5t-55.5 53.5t-22.5 72q0 52 30.5 94.5t83 67t116.5 24.5q40 0 74 -5.5t54 -11.5
t25 -8l3 -6q-1 -6 -5 -28t-9 -61t-8 -80l-39 -4l-6 5q1 4 2 18.5t1 33.5q0 53 -26 73t-93 20q-55 0 -90.5 -27.5t-35.5 -68.5q0 -40 34.5 -69.5t101.5 -64.5q65 -33 99 -54.5t60 -53.5t26 -74q0 -56 -31.5 -100.5t-87.5 -69.5t-128 -25q-42 0 -77 7.5zM144 713l-14 22
q41 31 83.5 65.5t54.5 45.5h14q12 -11 54.5 -45.5t83.5 -65.5l-14 -22l-9 -1q-67 39 -122 65q-52 -24 -122 -65z" />
    <glyph glyph-name="scircumflex" unicode="&#x15d;" horiz-adv-x="459" 
d="M120 562l-14 22q41 42 83.5 90.5t54.5 62.5h14q12 -14 54.5 -62.5t83.5 -90.5l-14 -22l-9 -1q-38 34 -101 81l-21 16q-78 -58 -122 -97zM126.5 -3q-29.5 6 -47 12.5t-21.5 8.5l-5 9q1 5 3.5 22.5t5 49t2.5 63.5l45 4q0 -54 8.5 -80.5t29.5 -36.5t64 -10q48 0 77.5 21
t29.5 56q0 23 -16.5 40.5t-38 29.5t-68.5 35q-64 31 -98.5 61t-34.5 77q0 42 25.5 76t70.5 53t100 19q33 0 62 -4t46 -8.5t21 -6.5l4 -7l-9 -49.5t-10 -82.5l-39 -4l-6 4q0 3 1 12.5t1 23.5q0 39 -20.5 54.5t-72.5 15.5q-42 0 -69.5 -19.5t-27.5 -49.5t27.5 -51t83.5 -48
q49 -23 78.5 -40t50.5 -43t21 -60q0 -45 -26.5 -79.5t-74 -54t-108.5 -19.5q-35 0 -64.5 6z" />
    <glyph glyph-name="Scedilla" unicode="&#x15e;" horiz-adv-x="530" 
d="M142 -4.5q-35 7.5 -57.5 16.5t-22.5 10l-5 10q1 6 4 30t5.5 62.5t2.5 81.5l45 5q0 -75 10 -111t37 -49.5t83 -13.5q63 0 101 29.5t38 80.5q0 30 -20.5 54t-48.5 41t-83 46q-52 27 -85 49.5t-55.5 53.5t-22.5 72q0 52 30.5 94.5t83 67t116.5 24.5q40 0 74 -5.5t54 -11.5
t25 -8l3 -6q-1 -6 -5 -28t-9 -61t-8 -80l-39 -4l-6 5q1 4 2 18.5t1 33.5q0 53 -26 73t-93 20q-55 0 -90.5 -27.5t-35.5 -68.5q0 -40 34.5 -69.5t101.5 -64.5q65 -33 99 -54.5t60 -53.5t26 -74q0 -56 -31.5 -100.5t-87.5 -69.5t-128 -25q-42 0 -77 7.5zM181.5 -223
q-21.5 10 -21.5 26t25 56h9q1 -27 15.5 -42t39.5 -15q20 0 34 10.5t14 27.5q0 16 -23 34.5t-62 40.5l33 108h43l-25 -73q7 -5 31.5 -21.5t39 -33.5t14.5 -34q0 -25 -18 -46.5t-46 -34.5t-56 -13q-25 0 -46.5 10z" />
    <glyph glyph-name="scedilla" unicode="&#x15f;" horiz-adv-x="459" 
d="M356.5 46q-43.5 -40 -116.5 -51l-15 -45q7 -5 31.5 -21.5t39 -33.5t14.5 -34q0 -25 -18 -46.5t-46 -34.5t-56 -13q-25 0 -46.5 10t-21.5 26t25 56h9q1 -27 16 -42t39 -15q20 0 34 10.5t14 27.5q0 16 -23 34.5t-62 40.5l23 76h-6q-35 0 -64.5 6t-47 12.5t-21.5 8.5l-5 9
q1 5 3.5 22.5t5 49t2.5 63.5l45 4q0 -54 8.5 -80.5t29.5 -36.5t64 -10q48 0 77.5 21t29.5 56q0 23 -16.5 40.5t-38 29.5t-68.5 35q-64 31 -98.5 61t-34.5 77q0 42 25.5 76t70.5 53t100 19q33 0 62 -4t46 -8.5t21 -6.5l4 -7l-9 -49.5t-10 -82.5l-39 -4l-6 4q0 3 1 12.5
t1 23.5q0 39 -20.5 54.5t-72.5 15.5q-42 0 -69.5 -19.5t-27.5 -49.5t27.5 -51t83.5 -48q49 -23 78.5 -40t50.5 -43t21 -60q0 -58 -43.5 -98z" />
    <glyph glyph-name="Scaron" unicode="&#x160;" horiz-adv-x="530" 
d="M142 -4.5q-35 7.5 -57.5 16.5t-22.5 10l-5 10q1 6 4 30t5.5 62.5t2.5 81.5l45 5q0 -75 10 -111t37 -49.5t83 -13.5q63 0 101 29.5t38 80.5q0 30 -20.5 54t-48.5 41t-83 46q-52 27 -85 49.5t-55.5 53.5t-22.5 72q0 52 30.5 94.5t83 67t116.5 24.5q40 0 74 -5.5t54 -11.5
t25 -8l3 -6q-1 -6 -5 -28t-9 -61t-8 -80l-39 -4l-6 5q1 4 2 18.5t1 33.5q0 53 -26 73t-93 20q-55 0 -90.5 -27.5t-35.5 -68.5q0 -40 34.5 -69.5t101.5 -64.5q65 -33 99 -54.5t60 -53.5t26 -74q0 -56 -31.5 -100.5t-87.5 -69.5t-128 -25q-42 0 -77 7.5zM200.5 749.5
q-42.5 34.5 -83.5 65.5l14 22l9 1q67 -39 122 -65q52 24 122 65l9 -1l14 -22q-41 -31 -83.5 -65.5t-54.5 -45.5h-14q-12 11 -54.5 45.5z" />
    <glyph glyph-name="scaron" unicode="&#x161;" horiz-adv-x="459" 
d="M165.5 636.5q-44.5 50.5 -87.5 94.5l16 23l8 1q60 -52 128 -101q83 62 128 101l8 -1l16 -23q-43 -44 -87.5 -94.5t-57.5 -65.5h-14q-13 15 -57.5 65.5zM126.5 -3q-29.5 6 -47 12.5t-21.5 8.5l-5 9q1 5 3.5 22.5t5 49t2.5 63.5l45 4q0 -54 8.5 -80.5t29.5 -36.5t64 -10
q48 0 77.5 21t29.5 56q0 23 -16.5 40.5t-38 29.5t-68.5 35q-64 31 -98.5 61t-34.5 77q0 42 25.5 76t70.5 53t100 19q33 0 62 -4t46 -8.5t21 -6.5l4 -7l-9 -49.5t-10 -82.5l-39 -4l-6 4q0 3 1 12.5t1 23.5q0 39 -20.5 54.5t-72.5 15.5q-42 0 -69.5 -19.5t-27.5 -49.5
t27.5 -51t83.5 -48q49 -23 78.5 -40t50.5 -43t21 -60q0 -45 -26.5 -79.5t-74 -54t-108.5 -19.5q-35 0 -64.5 6z" />
    <glyph glyph-name="uni0162" unicode="&#x162;" horiz-adv-x="546" 
d="M133 39q50 4 69 12.5t25 31t6 79.5v436q-85 -3 -115.5 -9.5t-41.5 -29t-20 -87.5l-47 -4q12 95 15 173l9 8l83 -11h310l85 11l9 -8q3 -82 15 -169l-47 -4q-11 66 -22 89t-39 30t-108 11q-6 -60 -11 -212t-5 -274q0 -37 13 -52.5t44 -15.5q30 0 55 3l3 -4l-9 -46l-33 1
l-114 2q-55 0 -137 -4zM196.5 -223q-21.5 10 -21.5 26t25 56h9q1 -27 15.5 -42t39.5 -15q20 0 34 10.5t14 27.5q0 16 -23 34.5t-62 40.5l33 108h43l-25 -73q7 -5 31.5 -21.5t39 -33.5t14.5 -34q0 -25 -18 -46.5t-46 -34.5t-56 -13q-25 0 -46.5 10z" />
    <glyph glyph-name="uni0163" unicode="&#x163;" horiz-adv-x="474" 
d="M449 413q4 -43 6 -55l-46 -3q-8 52 -18.5 71.5t-31 24.5t-78.5 7q-5 -48 -9 -159.5t-4 -205.5q0 -29 11 -41t36 -12q18 0 29.5 1t14.5 1l3 -3l-7 -42l-93 3l-17 -50q7 -5 31.5 -21.5t39 -33.5t14.5 -34q0 -25 -18 -46.5t-46 -34.5t-56 -13q-25 0 -46.5 10t-21.5 26t25 56
h9q1 -27 16 -42t39 -15q20 0 34 10.5t14 27.5q0 16 -23 34.5t-62 40.5l26 85q-35 -1 -67 -2t-43 -2l7 40q40 3 56.5 10t21 23.5t4.5 57.5v331q-63 -2 -85 -7t-32.5 -23.5t-17.5 -69.5l-47 -3q2 13 6.5 57.5t5.5 87.5l8 7l71 -8h255l73 8l8 -7q1 -44 5 -87z" />
    <glyph glyph-name="Tcaron" unicode="&#x164;" horiz-adv-x="546" 
d="M133 39q50 4 69 12.5t25 31t6 79.5v436q-85 -3 -115.5 -9.5t-41.5 -29t-20 -87.5l-47 -4q12 95 15 173l9 8l83 -11h310l85 11l9 -8q3 -82 15 -169l-47 -4q-11 66 -22 89t-39 30t-108 11q-6 -60 -11 -212t-5 -274q0 -37 13 -52.5t44 -15.5q30 0 55 3l3 -4l-9 -46l-33 1
l-114 2q-55 0 -137 -4zM214.5 749.5q-42.5 34.5 -83.5 65.5l14 22l9 1q67 -39 122 -65q52 24 122 65l9 -1l14 -22q-41 -31 -83.5 -65.5t-54.5 -45.5h-14q-12 11 -54.5 45.5z" />
    <glyph glyph-name="tcaron" unicode="&#x165;" horiz-adv-x="474" 
d="M172.5 636.5q-44.5 50.5 -87.5 94.5l16 23l8 1q60 -52 128 -101q83 62 128 101l8 -1l16 -23q-43 -44 -87.5 -94.5t-57.5 -65.5h-14q-13 15 -57.5 65.5zM117 36q40 3 56.5 10t21 23.5t4.5 57.5v331q-63 -2 -85 -7t-32.5 -23.5t-17.5 -69.5l-47 -3q2 13 6.5 57.5t5.5 87.5
l8 7l71 -8h255l73 8l8 -7q1 -44 5 -87t6 -55l-46 -3q-8 52 -18.5 71.5t-31 24.5t-78.5 7q-5 -48 -9 -159.5t-4 -205.5q0 -29 11 -41t36 -12q18 0 29.5 1t14.5 1l3 -3l-7 -42q-14 0 -52 1.5t-74 1.5t-71 -1.5t-48 -2.5z" />
    <glyph glyph-name="Tbar" unicode="&#x166;" horiz-adv-x="546" 
d="M133 39q50 4 69 12.5t25 31t6 79.5v436q-85 -3 -115.5 -9.5t-41.5 -29t-20 -87.5l-47 -4q12 95 15 173l9 8l83 -11h310l85 11l9 -8q3 -82 15 -169l-47 -4q-11 66 -22 89t-39 30t-108 11q-6 -60 -11 -212t-5 -274q0 -37 13 -52.5t44 -15.5q30 0 55 3l3 -4l-9 -46l-33 1
l-114 2q-55 0 -137 -4zM111 305l7 42l166 -1q37 0 80.5 2t56.5 3l13 -14l-5 -39l-168 -1l-141 -1z" />
    <glyph glyph-name="tbar" unicode="&#x167;" horiz-adv-x="474" 
d="M449 413q4 -43 6 -55l-46 -3q-8 52 -18.5 71.5t-31 24.5t-78.5 7q-6 -59 -11 -213l82 5l13 -13l-4 -37l-92 -1q-1 -37 -1 -106q0 -29 11 -41t36 -12q18 0 29.5 1t14.5 1l3 -3l-7 -42q-14 0 -52 1.5t-74 1.5t-71 -1.5t-48 -2.5l7 40q40 3 56.5 10t21 23.5t4.5 57.5v72
l-90 -1l-9 9l7 39l92 -1v213q-63 -2 -85 -7t-32.5 -23.5t-17.5 -69.5l-47 -3q2 13 6.5 57.5t5.5 87.5l8 7l71 -8h255l73 8l8 -7q1 -44 5 -87z" />
    <glyph glyph-name="Umacron" unicode="&#x16a;" horiz-adv-x="681" 
d="M165 45.5q-57 57.5 -57 163.5v331q0 32 -7.5 43t-29.5 11q-10 0 -20 -1t-14 -1l-2 4l7 44q12 -1 45.5 -2t67.5 -1q27 0 61 3.5t44 5.5l-4 -45q-37 -5 -49.5 -16.5t-14.5 -40.5l-8 -294q0 -99 43 -152t124 -53q82 0 125 43.5t43 125.5q-1 80 -3 182.5t-3 143.5
q-2 35 -8.5 44.5t-28.5 9.5q-12 0 -25 -1t-18 -1l-2 4l7 44q12 -1 45.5 -2t67.5 -1q27 0 57.5 3.5t39.5 5.5l-4 -45q-30 -4 -44.5 -9.5t-19.5 -16t-5 -31.5v-336q0 -105 -65 -162.5t-183 -57.5q-105 0 -162 57.5zM197 728l10 45l154 -1q31 0 73.5 2.5t55.5 3.5l6 -10l-7 -47
l-142 -1l-144 -1z" />
    <glyph glyph-name="umacron" unicode="&#x16b;" horiz-adv-x="575" 
d="M138 628l10 45l154 -1q31 0 73.5 2.5t55.5 3.5l6 -10l-7 -47l-142 -1l-144 -1zM141.5 35q-46.5 44 -46.5 127v255q0 25 -6 33.5t-24 8.5l-27 -1l-2 3l6 39q11 0 40 -1t59 -1q22 0 51 2.5t38 3.5l-4 -40q-29 -4 -39 -13t-12 -31l-6 -229q0 -71 33 -109.5t95 -38.5
q63 0 95.5 31.5t32.5 91.5q0 62 -1.5 140.5t-2.5 110.5q-2 27 -7 34.5t-22 7.5l-34 -1l-1 3l6 39q10 0 37.5 -1t55.5 -1q23 0 49.5 2.5t34.5 3.5l-3 -40q-35 -5 -45 -13t-10 -30v-256q0 -83 -53.5 -128.5t-151.5 -45.5q-89 0 -135.5 44z" />
    <glyph glyph-name="Ubreve" unicode="&#x16c;" horiz-adv-x="681" 
d="M165 45.5q-57 57.5 -57 163.5v331q0 32 -7.5 43t-29.5 11q-10 0 -20 -1t-14 -1l-2 4l7 44q12 -1 45.5 -2t67.5 -1q27 0 61 3.5t44 5.5l-4 -45q-37 -5 -49.5 -16.5t-14.5 -40.5l-8 -294q0 -99 43 -152t124 -53q82 0 125 43.5t43 125.5q-1 80 -3 182.5t-3 143.5
q-2 35 -8.5 44.5t-28.5 9.5q-12 0 -25 -1t-18 -1l-2 4l7 44q12 -1 45.5 -2t67.5 -1q27 0 57.5 3.5t39.5 5.5l-4 -45q-30 -4 -44.5 -9.5t-19.5 -16t-5 -31.5v-336q0 -105 -65 -162.5t-183 -57.5q-105 0 -162 57.5zM255 746q-30 33 -42 81l16 10h8q12 -32 38 -49t58 -17t58 17
t38 49h8l16 -10q-12 -48 -42 -81t-78 -33t-78 33z" />
    <glyph glyph-name="ubreve" unicode="&#x16d;" horiz-adv-x="575" 
d="M206 606q-30 33 -42 81l16 10h8q12 -32 38 -49t58 -17t58 17t38 49h8l16 -10q-12 -48 -42 -81t-78 -33t-78 33zM141.5 35q-46.5 44 -46.5 127v255q0 25 -6 33.5t-24 8.5l-27 -1l-2 3l6 39q11 0 40 -1t59 -1q22 0 51 2.5t38 3.5l-4 -40q-29 -4 -39 -13t-12 -31l-6 -229
q0 -71 33 -109.5t95 -38.5q63 0 95.5 31.5t32.5 91.5q0 62 -1.5 140.5t-2.5 110.5q-2 27 -7 34.5t-22 7.5l-34 -1l-1 3l6 39q10 0 37.5 -1t55.5 -1q23 0 49.5 2.5t34.5 3.5l-3 -40q-35 -5 -45 -13t-10 -30v-256q0 -83 -53.5 -128.5t-151.5 -45.5q-89 0 -135.5 44z" />
    <glyph glyph-name="Uring" unicode="&#x16e;" horiz-adv-x="681" 
d="M165 45.5q-57 57.5 -57 163.5v331q0 32 -7.5 43t-29.5 11q-10 0 -20 -1t-14 -1l-2 4l7 44q12 -1 45.5 -2t67.5 -1q27 0 61 3.5t44 5.5l-4 -45q-37 -5 -49.5 -16.5t-14.5 -40.5l-8 -294q0 -99 43 -152t124 -53q82 0 125 43.5t43 125.5q-1 80 -3 182.5t-3 143.5
q-2 35 -8.5 44.5t-28.5 9.5q-12 0 -25 -1t-18 -1l-2 4l7 44q12 -1 45.5 -2t67.5 -1q27 0 57.5 3.5t39.5 5.5l-4 -45q-30 -4 -44.5 -9.5t-19.5 -16t-5 -31.5v-336q0 -105 -65 -162.5t-183 -57.5q-105 0 -162 57.5zM286 696q-20 22 -20 58q0 37 23 60.5t61 23.5t57.5 -22
t19.5 -54q0 -36 -23 -62t-62 -26q-36 0 -56 22zM393 751q0 22 -13.5 35t-37.5 13q-21 0 -32.5 -10.5t-11.5 -28.5q0 -24 16 -36t35 -12q44 0 44 39z" />
    <glyph glyph-name="uring" unicode="&#x16f;" horiz-adv-x="575" 
d="M233.5 590.5q-20.5 21.5 -20.5 58.5t23.5 60.5t60.5 23.5q35 0 56 -20.5t21 -55.5q0 -38 -24 -63t-61 -25q-35 0 -55.5 21.5zM328.5 617q11.5 10 11.5 29q0 22 -14 35t-37 13q-21 0 -32.5 -10t-11.5 -29q0 -20 14.5 -34t36.5 -14q21 0 32.5 10zM141.5 35
q-46.5 44 -46.5 127v255q0 25 -6 33.5t-24 8.5l-27 -1l-2 3l6 39q11 0 40 -1t59 -1q22 0 51 2.5t38 3.5l-4 -40q-29 -4 -39 -13t-12 -31l-6 -229q0 -71 33 -109.5t95 -38.5q63 0 95.5 31.5t32.5 91.5q0 62 -1.5 140.5t-2.5 110.5q-2 27 -7 34.5t-22 7.5l-34 -1l-1 3l6 39
q10 0 37.5 -1t55.5 -1q23 0 49.5 2.5t34.5 3.5l-3 -40q-35 -5 -45 -13t-10 -30v-256q0 -83 -53.5 -128.5t-151.5 -45.5q-89 0 -135.5 44z" />
    <glyph glyph-name="Uhungarumlaut" unicode="&#x170;" horiz-adv-x="681" 
d="M165 45.5q-57 57.5 -57 163.5v331q0 32 -7.5 43t-29.5 11q-10 0 -20 -1t-14 -1l-2 4l7 44q12 -1 45.5 -2t67.5 -1q27 0 61 3.5t44 5.5l-4 -45q-37 -5 -49.5 -16.5t-14.5 -40.5l-8 -294q0 -99 43 -152t124 -53q82 0 125 43.5t43 125.5q-1 80 -3 182.5t-3 143.5
q-2 35 -8.5 44.5t-28.5 9.5q-12 0 -25 -1t-18 -1l-2 4l7 44q12 -1 45.5 -2t67.5 -1q27 0 57.5 3.5t39.5 5.5l-4 -45q-30 -4 -44.5 -9.5t-19.5 -16t-5 -31.5v-336q0 -105 -65 -162.5t-183 -57.5q-105 0 -162 57.5zM229 689l-9 21q45 33 92 69.5t61 47.5l9 -4l22 -43l-3 -9
q-14 -7 -62.5 -32.5t-101.5 -54.5zM370 679l-10 21q54 41 96.5 74t56.5 44l9 -5l22 -42l-3 -9q-14 -7 -63 -32.5t-101 -54.5z" />
    <glyph glyph-name="uhungarumlaut" unicode="&#x171;" horiz-adv-x="575" 
d="M283.5 655q-46.5 -35 -95.5 -76l-9 2l-16 18q41 42 84 89.5t56 61.5l9 -3l33 -38l-2 -9q-13 -10 -59.5 -45zM411.5 655q-46.5 -35 -95.5 -76l-9 2l-16 18q41 43 84 90t56 61l9 -3l33 -38l-2 -9q-13 -10 -59.5 -45zM141.5 35q-46.5 44 -46.5 127v255q0 25 -6 33.5t-24 8.5
l-27 -1l-2 3l6 39q11 0 40 -1t59 -1q22 0 51 2.5t38 3.5l-4 -40q-29 -4 -39 -13t-12 -31l-6 -229q0 -71 33 -109.5t95 -38.5q63 0 95.5 31.5t32.5 91.5q0 62 -1.5 140.5t-2.5 110.5q-2 27 -7 34.5t-22 7.5l-34 -1l-1 3l6 39q10 0 37.5 -1t55.5 -1q23 0 49.5 2.5t34.5 3.5
l-3 -40q-35 -5 -45 -13t-10 -30v-256q0 -83 -53.5 -128.5t-151.5 -45.5q-89 0 -135.5 44z" />
    <glyph glyph-name="Uogonek" unicode="&#x172;" horiz-adv-x="681" 
d="M357 -215.5q-30 25.5 -30 68.5q0 28 21.5 61.5t72.5 85.5q-42 -12 -94 -12q-105 0 -162 57.5t-57 163.5v331q0 32 -7.5 43t-29.5 11q-10 0 -20 -1t-14 -1l-2 4l7 44q12 -1 45.5 -2t67.5 -1q27 0 61 3.5t44 5.5l-4 -45q-37 -5 -49.5 -16.5t-14.5 -40.5l-8 -294
q0 -99 43 -152t124 -53q82 0 125 43.5t43 125.5l-6 326q-2 25 -5 35.5t-10 14.5t-22 4q-12 0 -25 -1t-18 -1l-2 4l7 44q12 -1 45.5 -2t67.5 -1q27 0 57.5 3.5t39.5 5.5l-4 -45q-31 -5 -45 -10.5t-19 -15.5t-5 -31v-336q0 -100 -66 -166q-50 -49 -75 -77.5t-34.5 -49.5
t-9.5 -43q0 -24 16 -39t42 -15q17 0 34.5 5t28.5 10.5t14 7.5l13 -19q-4 -4 -18.5 -15.5t-36.5 -25.5t-45 -22q-51 0 -81 25.5z" />
    <glyph glyph-name="uogonek" unicode="&#x173;" horiz-adv-x="575" 
d="M287.5 -216q-30.5 25 -30.5 69q0 32 23.5 66t69.5 80q-35 -8 -73 -8q-89 0 -135.5 44t-46.5 127v255q0 25 -6 33.5t-24 8.5l-27 -1l-2 3l6 39l91 -2q23 0 97 6l-4 -40q-29 -4 -39 -13t-12 -31l-6 -229q0 -71 33 -109.5t95 -38.5q63 0 95.5 31.5t32.5 91.5l-4 251
q-2 27 -7 34.5t-22 7.5l-34 -1l-1 3l6 39l93 -2q44 0 84 6l-3 -40q-35 -6 -45 -13.5t-10 -29.5v-256q0 -51 -23.5 -88.5t-67.5 -83.5q-36 -38 -53.5 -64t-17.5 -57q0 -24 16 -39t42 -15q19 0 41 7t36 16l13 -19q-19 -18 -47 -36.5t-53 -26.5q-50 0 -80.5 25z" />
    <glyph glyph-name="Wcircumflex" unicode="&#x174;" horiz-adv-x="932" 
d="M186.5 203q-50.5 170 -102.5 333q-9 29 -31 42.5t-59 14.5l-1 4l6 43q13 0 47 -1.5t66 -1.5q44 0 88 4.5t57 6.5l3 -7l-4 -39q-51 -4 -68.5 -12t-17.5 -29q0 -17 27.5 -120.5t57 -207.5t38.5 -136h6l141 384l-18 55q-10 29 -31 42t-59 15l-2 4l7 43q13 0 47 -1.5t66 -1.5
q38 0 84.5 4.5t60.5 6.5l3 -7l-4 -39q-52 -4 -69.5 -12t-17.5 -30q0 -21 52 -208t72 -255h6q2 6 4.5 12.5t5.5 15.5q152 408 152 437q0 19 -16 27t-52 8h-50l-2 4l7 43q13 -1 56 -4t83 -3q36 0 66 1t40 2l-7 -47q-30 -2 -42 -10.5t-22 -37.5l-210 -540l-62 -22
q-10 35 -46.5 161t-78.5 263h-6l-142 -402l-64 -22q-14 50 -64.5 220zM335 713l-14 22q41 31 83.5 65.5t54.5 45.5h14q12 -11 54.5 -45.5t83.5 -65.5l-14 -22l-9 -1q-67 39 -122 65q-52 -24 -122 -65z" />
    <glyph glyph-name="wcircumflex" unicode="&#x175;" horiz-adv-x="793" 
d="M272 552l-14 22q41 43 83.5 91t54.5 62h14q12 -14 54.5 -62t83.5 -91l-14 -22l-9 -1q-38 34 -101 81l-21 16q-78 -58 -122 -97zM156.5 162.5q-40.5 134.5 -79.5 250.5q-8 23 -24.5 34t-45.5 12q0 1 -2 3l6 38q11 0 39 -1t55 -1q37 0 74.5 3.5t48.5 4.5l3 -6l-4 -36
q-42 -3 -55 -9t-13 -22q0 -19 39.5 -159t54.5 -190h6q25 61 67 177q16 45 43 117l-13 39q-7 22 -23.5 31t-47.5 11l-2 3l6 38q11 0 40.5 -1t57.5 -1q32 0 71 3.5t51 4.5l3 -6l-3 -36q-42 -3 -55.5 -9t-13.5 -22q0 -17 39.5 -157.5t54.5 -191.5h7q32 78 78 206.5t46 144.5
q0 14 -11.5 20t-40.5 6h-38l-2 4l6 38q11 -1 46.5 -3t67.5 -2q30 0 55.5 1t33.5 1l-6 -41q-23 -2 -32.5 -9t-17.5 -30l-165 -416l-71 -17q-2 12 -31.5 111t-63.5 203h-5l-109 -297l-72 -17q-12 41 -52.5 175.5z" />
    <glyph glyph-name="Ycircumflex" unicode="&#x176;" horiz-adv-x="538" 
d="M150 34q36 7 52 18t21 30t5 60v44q0 31 -6 54.5t-23 58.5l-90 183q-26 53 -37 71.5t-31 29.5t-58 14l-2 4l6 39q11 -1 42 -2t68 -1q35 0 81.5 3.5t60.5 4.5l3 -7l-3 -35q-45 -4 -60.5 -11.5t-15.5 -24.5q0 -13 25 -71t51.5 -114t35.5 -73h5l114 212q16 29 16 50
q0 26 -63 30l-2 4l6 39q12 -1 50 -4t61 -3q24 0 53.5 1.5t38.5 2.5l4 -7l-6 -37q-32 -6 -50 -16.5t-31.5 -30t-39.5 -65.5q-6 -12 -10 -18l-100 -176q-13 -23 -16.5 -52t-5.5 -105v-22q-1 -39 8.5 -53.5t35.5 -14.5q16 0 30 1t19 2l2 -4l-9 -46q-14 1 -51.5 2t-75.5 1
q-31 0 -67 -5t-47 -7zM154 713l-14 22q41 31 83.5 65.5t54.5 45.5h14q12 -11 54.5 -45.5t83.5 -65.5l-14 -22l-9 -1q-67 39 -122 65q-52 -24 -122 -65z" />
    <glyph glyph-name="ycircumflex" unicode="&#x177;" horiz-adv-x="475" 
d="M113 552l-14 22q41 43 83.5 91t54.5 62h14q12 -14 54.5 -62.5t83.5 -90.5l-14 -22l-9 -1q-38 34 -101 81l-21 16q-78 -58 -122 -97zM133 32q30 5 44 13t18 23t4 45v31q0 23 -5 41t-19 45l-75 144q-19 36 -29 50.5t-26 23.5t-46 12l-2 4l6 36q9 0 36.5 -1t57.5 -1
q28 0 68 2.5t52 3.5l3 -6l-3 -33q-34 -2 -46.5 -7.5t-12.5 -19.5q0 -13 35.5 -86t50.5 -102h5l86 154q13 23 13 38q0 19 -49 22l-2 3l5 36q6 0 40 -2.5t56 -2.5q26 0 48 1t30 2l3 -6l-5 -34q-27 -6 -42 -16t-26.5 -26t-37.5 -59l-81 -138q-11 -21 -14 -46t-3 -90
q0 -26 8 -36t29 -10q13 0 24.5 1t15.5 1l2 -3l-8 -42q-12 1 -45 2t-67 1q-26 0 -59 -3.5t-43 -5.5z" />
    <glyph glyph-name="Ydieresis" unicode="&#x178;" horiz-adv-x="538" 
d="M150 34q36 7 52 18t21 30t5 60v44q0 31 -6 54.5t-23 58.5l-90 183q-26 53 -37 71.5t-31 29.5t-58 14l-2 4l6 39q11 -1 42 -2t68 -1q35 0 81.5 3.5t60.5 4.5l3 -7l-3 -35q-45 -4 -60.5 -11.5t-15.5 -24.5q0 -13 25 -71t51.5 -114t35.5 -73h5l114 212q16 29 16 50
q0 26 -63 30l-2 4l6 39q12 -1 50 -4t61 -3q24 0 53.5 1.5t38.5 2.5l4 -7l-6 -37q-32 -6 -50 -16.5t-31.5 -30t-39.5 -65.5q-6 -12 -10 -18l-100 -176q-13 -23 -16.5 -52t-5.5 -105v-22q-1 -39 8.5 -53.5t35.5 -14.5q16 0 30 1t19 2l2 -4l-9 -46q-14 1 -51.5 2t-75.5 1
q-31 0 -67 -5t-47 -7zM167 728q-11 13 -11 30q0 21 14.5 35.5t35.5 14.5q19 0 30 -12.5t11 -30.5q0 -21 -14.5 -35.5t-35.5 -14.5q-19 0 -30 13zM333 728q-11 13 -11 30q0 21 14.5 35.5t35.5 14.5q19 0 30 -12.5t11 -30.5q0 -21 -14.5 -35.5t-35.5 -14.5q-19 0 -30 13z" />
    <glyph glyph-name="Zacute" unicode="&#x179;" horiz-adv-x="568" 
d="M34 29l373 564l-173 -6q-47 -2 -74 -15.5t-41 -42.5t-20 -80l-47 -4q1 8 5 35.5t8 73t5 86.5l10 9l175 -11l258 -7l11 -29q-191 -254 -386 -562l203 7q52 1 84 41t48 125l47 5q-2 -9 -6.5 -37.5t-10.5 -76.5t-8 -91l-15 -16l-362 6l-70 -6zM234 708l-6 24q59 31 120 65
t79 44l9 -6l16 -48l-4 -10q-17 -6 -78.5 -27.5t-127.5 -46.5z" />
    <glyph glyph-name="zacute" unicode="&#x17a;" horiz-adv-x="490" 
d="M166 568l-20 19q45 49 91 103t59 70l10 -2l38 -41l-1 -11q-15 -11 -65 -51.5t-103 -88.5zM36 25l301 431l-132 -5q-56 -3 -78.5 -25t-28.5 -79l-46 -4q2 14 7.5 63t6.5 94l9 8l144 -9l218 -5l11 -25q-99 -124 -183.5 -244t-127.5 -186l156 7q42 2 67.5 32t37.5 94l47 5
q-3 -15 -10.5 -67t-10.5 -99l-13 -13l-303 4l-59 -5z" />
    <glyph glyph-name="Zdotaccent" unicode="&#x17b;" horiz-adv-x="568" 
d="M34 29l373 564l-173 -6q-47 -2 -74 -15.5t-41 -42.5t-20 -80l-47 -4q1 8 5 35.5t8 73t5 86.5l10 9l175 -11l258 -7l11 -29q-191 -254 -386 -562l203 7q52 1 84 41t48 125l47 5q-2 -9 -6.5 -37.5t-10.5 -76.5t-8 -91l-15 -16l-362 6l-70 -6zM251 724q-13 15 -13 36
q0 24 17 41.5t42 17.5q23 0 36 -15t13 -36q0 -24 -17 -41.5t-42 -17.5q-23 0 -36 15z" />
    <glyph glyph-name="zdotaccent" unicode="&#x17c;" horiz-adv-x="490" 
d="M204 642q-13 15 -13 36q0 24 17 41.5t42 17.5q23 0 36 -15t13 -36q0 -24 -17 -41.5t-42 -17.5q-23 0 -36 15zM36 25l301 431l-132 -5q-56 -3 -78.5 -25t-28.5 -79l-46 -4q2 14 7.5 63t6.5 94l9 8l144 -9l218 -5l11 -25q-99 -124 -183.5 -244t-127.5 -186l156 7
q42 2 67.5 32t37.5 94l47 5q-3 -15 -10.5 -67t-10.5 -99l-13 -13l-303 4l-59 -5z" />
    <glyph glyph-name="Zcaron" unicode="&#x17d;" horiz-adv-x="568" 
d="M34 29l373 564l-173 -6q-47 -2 -74 -15.5t-41 -42.5t-20 -80l-47 -4q1 8 5 35.5t8 73t5 86.5l10 9l175 -11l258 -7l11 -29q-191 -254 -386 -562l203 7q52 1 84 41t48 125l47 5q-2 -9 -6.5 -37.5t-10.5 -76.5t-8 -91l-15 -16l-362 6l-70 -6zM230.5 749.5
q-42.5 34.5 -83.5 65.5l14 22l9 1q67 -39 122 -65q52 24 122 65l9 -1l14 -22q-41 -31 -83.5 -65.5t-54.5 -45.5h-14q-12 11 -54.5 45.5z" />
    <glyph glyph-name="zcaron" unicode="&#x17e;" horiz-adv-x="490" 
d="M180.5 636.5q-44.5 50.5 -87.5 94.5l16 23l8 1q60 -52 128 -101q83 62 128 101l8 -1l16 -23q-43 -44 -87.5 -94.5t-57.5 -65.5h-14q-13 15 -57.5 65.5zM36 25l301 431l-132 -5q-56 -3 -78.5 -25t-28.5 -79l-46 -4q2 14 7.5 63t6.5 94l9 8l144 -9l218 -5l11 -25
q-99 -124 -183.5 -244t-127.5 -186l156 7q42 2 67.5 32t37.5 94l47 5q-3 -15 -10.5 -67t-10.5 -99l-13 -13l-303 4l-59 -5z" />
    <glyph glyph-name="uni018F" unicode="&#x18f;" horiz-adv-x="672" 
d="M483 606q69 -41 109 -113t40 -160q0 -93 -44.5 -172t-121.5 -126t-168 -47q-81 0 -143 37.5t-97.5 105.5t-36.5 158l11 17h511q-2 76 -33.5 135.5t-85.5 92.5t-122 33q-41 0 -93.5 -12t-96.5 -31l-8 1l-12 31q81 51 133.5 71t105.5 20q83 0 152 -41zM432 67
q46 28 74.5 79t34.5 116l-429 -5q17 -101 75.5 -159.5t141.5 -58.5q57 0 103 28z" />
    <glyph glyph-name="florin" unicode="&#x192;" horiz-adv-x="382" 
d="M-28.5 -149q-24.5 10 -24.5 24q0 15 6 39.5t12 30.5h11q11 -26 34 -44.5t49 -18.5q23 0 38 18.5t19 56.5l32 319q0 17 -3.5 23.5t-15.5 8t-46 2.5l-4 6l7 34l70 10l3 32l7 65q6 62 48 101.5t100 39.5q36 0 66.5 -10.5t30.5 -25.5q0 -16 -6 -41.5t-12 -32.5h-13
q-13 27 -39.5 47t-55.5 20q-26 0 -38 -17.5t-15.5 -40t-7.5 -71.5l-6 -69q49 0 84 1t46 2l3 -3l-10 -53q-10 0 -44.5 1t-83.5 2l-18 -197l-12 -131q-4 -40 -27.5 -71.5t-58 -49t-71.5 -17.5q-30 0 -54.5 10z" />
    <glyph glyph-name="Ohorn" unicode="&#x1a0;" horiz-adv-x="703" 
d="M173 27q-63 39 -98 109.5t-35 160.5q0 98 43.5 178.5t119 127t166.5 46.5q34 0 57.5 -5t54.5 -15q37 -14 62 -14q31 0 50.5 13t19.5 36q0 18 -8.5 37t-23.5 33l2 14q31 26 58 26q23 0 37 -21.5t14 -56.5q0 -34 -19 -61t-50.5 -41.5t-67.5 -13.5q46 -41 71.5 -102.5
t25.5 -136.5q0 -98 -44.5 -179t-121 -127.5t-169.5 -46.5q-81 0 -144 39zM460 72q49 33 76 92t27 135q0 85 -29 150.5t-80.5 102.5t-118.5 37q-61 0 -108.5 -33t-74 -92t-26.5 -135q0 -85 28 -150.5t78.5 -102.5t115.5 -37q63 0 112 33z" />
    <glyph glyph-name="ohorn" unicode="&#x1a1;" horiz-adv-x="597" 
d="M150.5 21q-52.5 30 -81 85t-28.5 127q0 78 35.5 140.5t97 98t137.5 35.5q29 0 49 -4t44 -11q12 -4 25 -7t25 -3q24 0 39 10t15 27q0 14 -7 28.5t-19 24.5l2 11q26 23 51 23q20 0 32.5 -17.5t12.5 -45.5q0 -39 -34 -67t-78 -26q36 -32 56 -79t20 -105q0 -78 -35.5 -140.5
t-98 -98.5t-139.5 -36q-68 0 -120.5 30zM413 91.5q45 52.5 45 139.5q0 66 -21.5 116t-61 77t-91.5 27q-71 0 -114.5 -52t-43.5 -139q0 -66 21 -116t59.5 -77.5t88.5 -27.5q73 0 118 52.5z" />
    <glyph glyph-name="Uhorn" unicode="&#x1af;" horiz-adv-x="691" 
d="M165 45.5q-57 57.5 -57 163.5v331q0 32 -7.5 43t-29.5 11q-10 0 -20 -1t-14 -1l-2 4l7 44q12 -1 45.5 -2t67.5 -1q27 0 61 3.5t44 5.5l-4 -45q-37 -5 -49.5 -16.5t-14.5 -40.5l-8 -294q0 -99 43 -152t124 -53q82 0 125 43.5t43 125.5q-1 80 -3 182.5t-3 143.5
q-2 25 -5 35.5t-10 14.5t-22 4q-12 0 -25 -1t-18 -1l-2 4l7 44q12 -1 47.5 -2t76.5 -1t41 36q0 13 -8.5 26.5t-23.5 23.5l2 14q34 26 56 26q23 0 37 -15.5t14 -42.5q0 -69 -52 -96q-5 -2 -21.5 -10t-24 -21t-7.5 -34v-336q0 -105 -65 -162.5t-183 -57.5q-105 0 -162 57.5z
" />
    <glyph glyph-name="uhorn" unicode="&#x1b0;" horiz-adv-x="578" 
d="M141.5 35q-46.5 44 -46.5 127v255q0 25 -6 33.5t-24 8.5l-27 -1l-2 3l6 39q11 0 40 -1t59 -1q22 0 51 2.5t38 3.5l-4 -40q-29 -4 -39 -13t-12 -31l-6 -229q0 -71 33 -109.5t95 -38.5q63 0 95.5 31.5t32.5 91.5q0 62 -1.5 140.5t-2.5 110.5q-2 27 -7 34.5t-22 7.5l-34 -1
l-1 3l6 39q10 0 40 -1t63 -1q35 0 35 30q0 11 -7 22t-19 19l2 11q28 22 49 22t33 -13t12 -36q0 -54 -44 -79q-3 -2 -18 -9t-21 -17.5t-6 -26.5v-256q0 -83 -53.5 -128.5t-151.5 -45.5q-89 0 -135.5 44z" />
    <glyph glyph-name="uni01C4" unicode="&#x1c4;" horiz-adv-x="1271" 
d="M253.5 -5q-48.5 5 -80.5 5q-31 0 -67.5 -5t-47.5 -7l6 46q46 9 62 26.5t16 59.5l1 420q0 32 -7.5 43t-29.5 11q-10 0 -20 -1t-14 -1l-2 4l7 44q11 -1 42 -2t63 -1q43 0 89 1.5t63 2.5q96 0 171 -37.5t116.5 -105.5t41.5 -156q0 -98 -46 -179t-125 -128t-175 -47
q-15 2 -63.5 7zM237 587.5q-7 -4.5 -8 -17.5q-15 -385 -15 -439q0 -38 10.5 -57t37 -27t78.5 -8q108 0 170 74.5t62 204.5q0 132 -79.5 203t-227.5 71q-21 0 -28 -4.5zM737 29l373 564l-173 -6q-47 -2 -74 -15.5t-41 -42.5t-20 -80l-47 -4q1 8 5 35.5t8 73t5 86.5l10 9
l175 -11l258 -7l11 -29q-191 -254 -386 -562l203 7q52 1 84 41t48 125l47 5q-2 -9 -6.5 -37.5t-10.5 -76.5t-8 -91l-15 -16l-362 6l-70 -6zM933.5 749.5q-42.5 34.5 -83.5 65.5l14 22l9 1q67 -39 122 -65q52 24 122 65l9 -1l14 -22q-41 -31 -83.5 -65.5t-54.5 -45.5h-14
q-12 11 -54.5 45.5z" />
    <glyph glyph-name="uni01C5" unicode="&#x1c5;" horiz-adv-x="1193" 
d="M253.5 -5q-48.5 5 -80.5 5q-31 0 -67.5 -5t-47.5 -7l6 46q46 9 62 26.5t16 59.5l1 420q0 32 -7.5 43t-29.5 11q-10 0 -20 -1t-14 -1l-2 4l7 44q11 -1 42 -2t63 -1q43 0 89 1.5t63 2.5q96 0 171 -37.5t116.5 -105.5t41.5 -156q0 -98 -46 -179t-125 -128t-175 -47
q-15 2 -63.5 7zM237 587.5q-7 -4.5 -8 -17.5q-15 -385 -15 -439q0 -38 10.5 -57t37 -27t78.5 -8q108 0 170 74.5t62 204.5q0 132 -79.5 203t-227.5 71q-21 0 -28 -4.5zM883.5 636.5q-44.5 50.5 -87.5 94.5l16 23l8 1q60 -52 128 -101q83 62 128 101l8 -1l16 -23
q-43 -44 -87.5 -94.5t-57.5 -65.5h-14q-13 15 -57.5 65.5zM739 25l301 431l-132 -5q-56 -3 -78.5 -25t-28.5 -79l-46 -4q2 14 7.5 63t6.5 94l9 8l144 -9l218 -5l11 -25q-99 -124 -183.5 -244t-127.5 -186l156 7q42 2 67.5 32t37.5 94l47 5q-3 -15 -10.5 -67t-10.5 -99
l-13 -13l-303 4l-59 -5z" />
    <glyph glyph-name="uni01C6" unicode="&#x1c6;" horiz-adv-x="1086" 
d="M776.5 636.5q-44.5 50.5 -87.5 94.5l16 23l8 1q60 -52 128 -101q83 62 128 101l8 -1l16 -23q-43 -44 -87.5 -94.5t-57.5 -65.5h-14q-13 15 -57.5 65.5zM632 25l301 431l-132 -5q-56 -3 -78.5 -25t-28.5 -79l-46 -4q2 14 7.5 63t6.5 94l9 8l144 -9l218 -5l11 -25
q-99 -124 -183.5 -244t-127.5 -186l156 7q42 2 67.5 32t37.5 94l47 5q-3 -15 -10.5 -67t-10.5 -99l-13 -13l-303 4l-59 -5zM218.5 -3.5q-39.5 3.5 -66.5 3.5q-26 0 -57 -3.5t-40 -5.5l5 42q36 6 49 20t13 46l1 318q0 25 -6 33.5t-23 8.5q-9 0 -17 -1t-11 -1l-2 5l6 38
q10 0 36.5 -1t53.5 -1q36 0 74 1.5t52 1.5q80 0 141 -29t94.5 -81.5t33.5 -122.5q0 -78 -37.5 -141t-102.5 -99.5t-144 -36.5q-13 2 -52.5 5.5zM211.5 450.5q-5.5 -3.5 -6.5 -14.5q-12 -281 -12 -330q0 -27 8 -41.5t28 -20t59 -5.5q84 0 131.5 55t47.5 154q0 101 -60 153.5
t-174 52.5q-16 0 -21.5 -3.5z" />
    <glyph glyph-name="uni01C7" unicode="&#x1c7;" horiz-adv-x="834" 
d="M74 36q39 6 53.5 23.5t14.5 60.5l1 420q0 32 -7.5 43t-29.5 11q-10 0 -20 -1t-14 -1l-2 4l7 44q12 -1 45 -2t67 -1q27 0 61.5 3.5t45.5 5.5l-4 -45q-33 -4 -45.5 -13t-15 -21t-5.5 -59q-6 -85 -9 -194t-3 -192q0 -36 6 -51.5t22.5 -20.5t56.5 -5q61 0 89.5 10t43 39
t26.5 93l44 5l3 -5q-3 -16 -12.5 -72t-16.5 -118l-5 -6q-29 2 -119.5 5.5t-149.5 3.5q-47 0 -85.5 -4t-48.5 -6zM530 -111l3 8q41 25 63.5 52.5t32 66t9.5 99.5l1 425q0 32 -7 42.5t-30 10.5q-12 0 -26.5 -1.5t-20.5 -2.5l-2 4l7 44h108q27 0 65.5 3.5t50.5 5.5l-4 -45
q-25 -4 -36 -9t-15.5 -15.5t-5.5 -32.5q-4 -93 -7.5 -216t-5.5 -212q-1 -102 -39.5 -163.5t-123.5 -96.5z" />
    <glyph glyph-name="uni01C8" unicode="&#x1c8;" horiz-adv-x="799" 
d="M74 36q39 6 53.5 23.5t14.5 60.5l1 420q0 32 -7.5 43t-29.5 11q-10 0 -20 -1t-14 -1l-2 4l7 44q12 -1 45 -2t67 -1q27 0 61.5 3.5t45.5 5.5l-4 -45q-33 -4 -45.5 -13t-15 -21t-5.5 -59q-6 -85 -9 -194t-3 -192q0 -36 6 -51.5t22.5 -20.5t56.5 -5q61 0 89.5 10t43 39
t26.5 93l44 5l3 -5q-3 -16 -12.5 -72t-16.5 -118l-5 -6q-29 2 -119.5 5.5t-149.5 3.5q-47 0 -85.5 -4t-48.5 -6zM534 -87l2 7q49 30 66.5 65.5t17.5 106.5l1 325q0 25 -6 33t-24 8q-10 0 -21.5 -1t-15.5 -1l-3 4l6 38h92q26 0 59.5 3t43.5 4l-4 -41q-28 -4 -36 -12t-10 -32
q-10 -233 -10 -333q-1 -79 -34.5 -127t-107.5 -75z" />
    <glyph glyph-name="uni01C9" unicode="&#x1c9;" horiz-adv-x="734" 
d="M67 34q32 5 43.5 18.5t11.5 47.5l1 317q0 25 -6 33.5t-24 8.5l-27 -1l-3 4l6 38q5 0 30 -1t67 -1q22 0 54.5 3t42.5 4l-4 -42q-27 -3 -38 -9.5t-13 -16.5t-5 -41q-10 -134 -10 -297q0 -25 4.5 -36.5t18 -15.5t42.5 -4q48 0 70.5 8t34 31.5t20.5 74.5l44 5l3 -6
q-2 -13 -9.5 -59.5t-13.5 -97.5l-5 -6q-23 1 -97.5 4t-125.5 3q-40 0 -74.5 -3.5t-43.5 -4.5zM469 -87l2 7q49 30 66.5 65.5t17.5 106.5l1 325q0 25 -6 33t-24 8q-10 0 -21.5 -1t-15.5 -1l-3 4l6 38h92q26 0 59.5 3t43.5 4l-4 -41q-28 -4 -36 -12t-10 -32q-10 -233 -10 -333
q-1 -79 -34.5 -127t-107.5 -75z" />
    <glyph glyph-name="uni01CA" unicode="&#x1ca;" horiz-adv-x="1046" 
d="M400.5 217.5q-82.5 122.5 -135.5 198t-67 95.5h-5l-5 -427q0 -22 7 -31t24 -9l51 1l2 -4l-9 -45q-11 1 -45 2.5t-61 1.5q-25 0 -54.5 -3.5t-38.5 -4.5l5 46q31 4 46 18.5t16 44.5l13 437q0 31 -18.5 44t-68.5 18l-3 5l8 37q9 -1 39 -3t47 -2q21 0 41 1.5t26 2.5
q74 -115 148.5 -225t124.5 -181t63 -90h5v405q0 43 -33 43l-38 -1l-2 4l9 45q10 -1 38 -2.5t57 -1.5q26 0 57.5 3.5t41.5 4.5l-5 -46q-35 -5 -51 -19.5t-17 -43.5l-14 -562l-29 -14q-87 135 -169.5 257.5zM742 -111l3 8q41 25 63.5 52.5t32 66t9.5 99.5l1 425q0 32 -7 42.5
t-30 10.5q-12 0 -26.5 -1.5t-20.5 -2.5l-2 4l7 44h108q27 0 65.5 3.5t50.5 5.5l-4 -45q-25 -4 -36 -9t-15.5 -15.5t-5.5 -32.5q-4 -93 -7.5 -216t-5.5 -212q-1 -102 -39.5 -163.5t-123.5 -96.5z" />
    <glyph glyph-name="uni01CB" unicode="&#x1cb;" horiz-adv-x="1011" 
d="M400.5 217.5q-82.5 122.5 -135.5 198t-67 95.5h-5l-5 -427q0 -22 7 -31t24 -9l51 1l2 -4l-9 -45q-11 1 -45 2.5t-61 1.5q-25 0 -54.5 -3.5t-38.5 -4.5l5 46q31 4 46 18.5t16 44.5l13 437q0 31 -18.5 44t-68.5 18l-3 5l8 37q9 -1 39 -3t47 -2q21 0 41 1.5t26 2.5
q74 -115 148.5 -225t124.5 -181t63 -90h5v405q0 43 -33 43l-38 -1l-2 4l9 45q10 -1 38 -2.5t57 -1.5q26 0 57.5 3.5t41.5 4.5l-5 -46q-35 -5 -51 -19.5t-17 -43.5l-14 -562l-29 -14q-87 135 -169.5 257.5zM746 -87l2 7q49 30 66.5 65.5t17.5 106.5l1 325q0 25 -6 33t-24 8
q-10 0 -21.5 -1t-15.5 -1l-3 4l6 38h92q26 0 59.5 3t43.5 4l-4 -41q-28 -4 -36 -12t-10 -32q-10 -233 -10 -333q-1 -79 -34.5 -127t-107.5 -75z" />
    <glyph glyph-name="uni01CC" unicode="&#x1cc;" horiz-adv-x="906" 
d="M641 -87l2 7q49 30 66.5 65.5t17.5 106.5l1 325q0 25 -6 33t-24 8q-10 0 -21.5 -1t-15.5 -1l-3 4l6 38h92q26 0 59.5 3t43.5 4l-4 -41q-28 -4 -36 -12t-10 -32q-10 -233 -10 -333q-1 -79 -34.5 -127t-107.5 -75zM461 425q0 33 -27 33h-30l-2 4l7 39q9 -1 34 -2t51 -1
q22 0 49.5 2.5t35.5 3.5l-4 -41q-29 -4 -41.5 -15.5t-13.5 -34.5l-12 -430l-39 -11q-95 139 -192 272t-97 131h-5l-3 -303q0 -19 6 -26t20 -7l40 1l3 -3l-8 -40q-9 1 -35.5 2t-55.5 1q-23 0 -49 -2.5t-34 -3.5l5 41q25 3 37 14.5t13 34.5l11 330q0 25 -14.5 34.5t-55.5 14.5
l-4 5l7 34q8 -1 30.5 -2.5t45.5 -1.5q22 0 39 1t22 2q81 -119 171.5 -243t90.5 -122h5z" />
    <glyph glyph-name="uni01CD" unicode="&#x1cd;" horiz-adv-x="584" 
d="M329 -3l4 39q51 4 70 12t19 26q0 20 -9 48l-33 109q-24 1 -104 1q-48 0 -109 -8l-37 -104q-9 -27 -9 -39q0 -22 14 -31.5t46 -9.5h57l2 -4l-6 -43q-12 1 -55 4t-84 3q-37 0 -68.5 -1t-41.5 -2l8 47q28 3 45 19.5t33 57.5l195 511l63 17h8q6 -24 30.5 -111t60 -206
t68.5 -219q12 -37 32 -52t64 -19l2 -4l-7 -41q-12 0 -43.5 1.5t-62.5 1.5q-48 0 -92.5 -4t-56.5 -6zM273 273q36 0 93 5l-79 262h-7l-95 -267h88zM236.5 749.5q-42.5 34.5 -83.5 65.5l14 22l9 1q67 -39 122 -65q52 24 122 65l9 -1l14 -22q-41 -31 -83.5 -65.5t-54.5 -45.5
h-14q-12 11 -54.5 45.5z" />
    <glyph glyph-name="uni01CE" unicode="&#x1ce;" horiz-adv-x="510" 
d="M190.5 636.5q-44.5 50.5 -87.5 94.5l16 23l8 1q60 -52 128 -101q83 62 128 101l8 -1l16 -23q-43 -44 -87.5 -94.5t-57.5 -65.5h-14q-13 15 -57.5 65.5zM281 -2l3 36q42 3 56.5 9t14.5 20q0 16 -7 34l-24 77q-20 1 -83 1q-29 0 -86 -6l-28 -74q-7 -23 -7 -28q0 -16 11 -23
t36 -7h43l3 -4l-6 -38q-10 1 -45.5 3t-69.5 2q-32 0 -57.5 -1t-34.5 -1l6 41q22 3 35 15.5t26 42.5l157 397l71 13l7 -1q0 -4 45.5 -158t81.5 -255q10 -29 25.5 -40.5t49.5 -14.5l2 -4l-5 -36q-10 0 -37 1t-54 1q-41 0 -78 -3t-48 -4zM239 216q35 0 73 4l-61 194h-7
l-73 -198h68z" />
    <glyph glyph-name="uni01CF" unicode="&#x1cf;" horiz-adv-x="361" 
d="M62 34q47 9 63.5 26.5t16.5 59.5l1 420q0 32 -7.5 43t-29.5 11l-42 -2l-2 4l7 44q16 0 25 -1l94 -2q45 0 115 9l-4 -45q-41 -5 -55.5 -16.5t-16.5 -40.5q-6 -117 -10 -244.5t-4 -187.5q0 -41 9 -54.5t35 -13.5q17 0 53 3l2 -4l-9 -46q-14 0 -22 1q-70 2 -109 2
q-49 0 -116 -12zM119.5 749.5q-42.5 34.5 -83.5 65.5l14 22l9 1q67 -39 122 -65q52 24 122 65l9 -1l14 -22q-41 -31 -83.5 -65.5t-54.5 -45.5h-14q-12 11 -54.5 45.5z" />
    <glyph glyph-name="uni01D0" unicode="&#x1d0;" horiz-adv-x="319" 
d="M97.5 636.5q-44.5 50.5 -87.5 94.5l16 23l8 1q60 -52 128 -101q83 62 128 101l8 -1l16 -23q-43 -44 -87.5 -94.5t-57.5 -65.5h-14q-13 15 -57.5 65.5zM58 32q38 7 51 20.5t13 46.5l1 318q0 25 -6 33.5t-24 8.5l-33 -1l-2 4l5 38q6 0 32.5 -1t69.5 -1q23 0 56.5 3t43.5 4
l-4 -41q-33 -4 -44 -12.5t-13 -31.5q-4 -80 -7.5 -177t-3.5 -150q0 -32 7 -43t28 -11q14 0 25.5 1t15.5 2l2 -4l-7 -40q-12 0 -45 1t-66 1q-27 0 -58.5 -3.5t-41.5 -5.5z" />
    <glyph glyph-name="uni01D1" unicode="&#x1d1;" horiz-adv-x="692" 
d="M173 27q-63 39 -98 109.5t-35 160.5q0 98 43.5 178.5t119 127t166.5 46.5q83 0 147 -39t100 -109t36 -160q0 -98 -44.5 -179t-121 -127.5t-169.5 -46.5q-81 0 -144 39zM460 72q49 33 76 92t27 135q0 85 -29 150.5t-80.5 102.5t-118.5 37q-61 0 -108.5 -33t-74 -92
t-26.5 -135q0 -85 28 -150.5t78.5 -102.5t115.5 -37q63 0 112 33zM279.5 749.5q-42.5 34.5 -83.5 65.5l14 22l9 1q67 -39 122 -65q52 24 122 65l9 -1l14 -22q-41 -31 -83.5 -65.5t-54.5 -45.5h-14q-12 11 -54.5 45.5z" />
    <glyph glyph-name="uni01D2" unicode="&#x1d2;" horiz-adv-x="585" 
d="M228.5 636.5q-44.5 50.5 -87.5 94.5l16 23l8 1q60 -52 128 -101q83 62 128 101l8 -1l16 -23q-43 -44 -87.5 -94.5t-57.5 -65.5h-14q-13 15 -57.5 65.5zM150.5 21q-52.5 30 -81 85t-28.5 127q0 78 35.5 140.5t97 98t137.5 35.5q69 0 122 -30t82 -84.5t29 -126.5
q0 -78 -35.5 -140.5t-98 -98.5t-139.5 -36q-68 0 -120.5 30zM413 91.5q45 52.5 45 139.5q0 66 -21.5 116t-61 77t-91.5 27q-71 0 -114.5 -52t-43.5 -139q0 -66 21 -116t59.5 -77.5t88.5 -27.5q73 0 118 52.5z" />
    <glyph glyph-name="uni01D3" unicode="&#x1d3;" horiz-adv-x="681" 
d="M165 45.5q-57 57.5 -57 163.5v331q0 32 -7.5 43t-29.5 11q-10 0 -20 -1t-14 -1l-2 4l7 44q12 -1 45.5 -2t67.5 -1q27 0 61 3.5t44 5.5l-4 -45q-37 -5 -49.5 -16.5t-14.5 -40.5l-8 -294q0 -99 43 -152t124 -53q82 0 125 43.5t43 125.5q-1 80 -3 182.5t-3 143.5
q-2 35 -8.5 44.5t-28.5 9.5q-12 0 -25 -1t-18 -1l-2 4l7 44q12 -1 45.5 -2t67.5 -1q27 0 57.5 3.5t39.5 5.5l-4 -45q-30 -4 -44.5 -9.5t-19.5 -16t-5 -31.5v-336q0 -105 -65 -162.5t-183 -57.5q-105 0 -162 57.5zM285.5 749.5q-42.5 34.5 -83.5 65.5l14 22l9 1
q67 -39 122 -65q52 24 122 65l9 -1l14 -22q-41 -31 -83.5 -65.5t-54.5 -45.5h-14q-12 11 -54.5 45.5z" />
    <glyph glyph-name="uni01D4" unicode="&#x1d4;" horiz-adv-x="575" 
d="M223.5 636.5q-44.5 50.5 -87.5 94.5l16 23l8 1q60 -52 128 -101q83 62 128 101l8 -1l16 -23q-43 -44 -87.5 -94.5t-57.5 -65.5h-14q-13 15 -57.5 65.5zM141.5 35q-46.5 44 -46.5 127v255q0 25 -6 33.5t-24 8.5l-27 -1l-2 3l6 39q11 0 40 -1t59 -1q22 0 51 2.5t38 3.5
l-4 -40q-29 -4 -39 -13t-12 -31l-6 -229q0 -71 33 -109.5t95 -38.5q63 0 95.5 31.5t32.5 91.5q0 62 -1.5 140.5t-2.5 110.5q-2 27 -7 34.5t-22 7.5l-34 -1l-1 3l6 39q10 0 37.5 -1t55.5 -1q23 0 49.5 2.5t34.5 3.5l-3 -40q-35 -5 -45 -13t-10 -30v-256q0 -83 -53.5 -128.5
t-151.5 -45.5q-89 0 -135.5 44z" />
    <glyph glyph-name="uni01D5" unicode="&#x1d5;" horiz-adv-x="681" 
d="M165 45.5q-57 57.5 -57 163.5v331q0 32 -7.5 43t-29.5 11q-10 0 -20 -1t-14 -1l-2 4l7 44q12 -1 45.5 -2t67.5 -1q27 0 61 3.5t44 5.5l-4 -45q-37 -5 -49.5 -16.5t-14.5 -40.5l-8 -294q0 -99 43 -152t124 -53q82 0 125 43.5t43 125.5q-1 80 -3 182.5t-3 143.5
q-2 35 -8.5 44.5t-28.5 9.5q-12 0 -25 -1t-18 -1l-2 4l7 44q12 -1 45.5 -2t67.5 -1q27 0 57.5 3.5t39.5 5.5l-4 -45q-30 -4 -44.5 -9.5t-19.5 -16t-5 -31.5v-336q0 -105 -65 -162.5t-183 -57.5q-105 0 -162 57.5zM194 828l10 45l154 -1q31 0 73.5 2.5t55.5 3.5l6 -10l-7 -47
l-142 -1l-144 -1zM225 693q-11 13 -11 30q0 21 14.5 35.5t35.5 14.5q19 0 30 -12.5t11 -30.5q0 -21 -14.5 -35.5t-35.5 -14.5q-19 0 -30 13zM391 693q-11 13 -11 30q0 21 14.5 35.5t35.5 14.5q19 0 30 -12.5t11 -30.5q0 -21 -14.5 -35.5t-35.5 -14.5q-19 0 -30 13z" />
    <glyph glyph-name="uni01D6" unicode="&#x1d6;" horiz-adv-x="575" 
d="M142 688l10 45l154 -1q31 0 73.5 2.5t55.5 3.5l6 -10l-7 -47l-142 -1l-144 -1zM173 553q-11 13 -11 30q0 21 14.5 35.5t35.5 14.5q19 0 30 -12.5t11 -30.5q0 -21 -14.5 -35.5t-35.5 -14.5q-19 0 -30 13zM339 553q-11 13 -11 30q0 21 14.5 35.5t35.5 14.5q19 0 30 -12.5
t11 -30.5q0 -21 -14.5 -35.5t-35.5 -14.5q-19 0 -30 13zM141.5 35q-46.5 44 -46.5 127v255q0 25 -6 33.5t-24 8.5l-27 -1l-2 3l6 39q11 0 40 -1t59 -1q22 0 51 2.5t38 3.5l-4 -40q-29 -4 -39 -13t-12 -31l-6 -229q0 -71 33 -109.5t95 -38.5q63 0 95.5 31.5t32.5 91.5
q0 62 -1.5 140.5t-2.5 110.5q-2 27 -7 34.5t-22 7.5l-34 -1l-1 3l6 39q10 0 37.5 -1t55.5 -1q23 0 49.5 2.5t34.5 3.5l-3 -40q-35 -5 -45 -13t-10 -30v-256q0 -83 -53.5 -128.5t-151.5 -45.5q-89 0 -135.5 44z" />
    <glyph glyph-name="uni01D7" unicode="&#x1d7;" horiz-adv-x="681" 
d="M165 45.5q-57 57.5 -57 163.5v331q0 32 -7.5 43t-29.5 11q-10 0 -20 -1t-14 -1l-2 4l7 44q12 -1 45.5 -2t67.5 -1q27 0 61 3.5t44 5.5l-4 -45q-37 -5 -49.5 -16.5t-14.5 -40.5l-8 -294q0 -99 43 -152t124 -53q82 0 125 43.5t43 125.5q-1 80 -3 182.5t-3 143.5
q-2 35 -8.5 44.5t-28.5 9.5q-12 0 -25 -1t-18 -1l-2 4l7 44q12 -1 45.5 -2t67.5 -1q27 0 57.5 3.5t39.5 5.5l-4 -45q-30 -4 -44.5 -9.5t-19.5 -16t-5 -31.5v-336q0 -105 -65 -162.5t-183 -57.5q-105 0 -162 57.5zM235 823l-6 24q59 31 120 65t79 44l9 -6l16 -48l-4 -10
q-17 -6 -78.5 -27.5t-127.5 -46.5zM225 713q-11 13 -11 30q0 21 14.5 35.5t35.5 14.5q19 0 30 -12.5t11 -30.5q0 -21 -14.5 -35.5t-35.5 -14.5q-19 0 -30 13zM391 713q-11 13 -11 30q0 21 14.5 35.5t35.5 14.5q19 0 30 -12.5t11 -30.5q0 -21 -14.5 -35.5t-35.5 -14.5
q-19 0 -30 13z" />
    <glyph glyph-name="uni01D8" unicode="&#x1d8;" horiz-adv-x="575" 
d="M182 683l-6 24q59 31 120 65t79 44l9 -6l16 -48l-4 -10q-17 -6 -78.5 -27.5t-127.5 -46.5zM172 573q-11 13 -11 30q0 21 14.5 35.5t35.5 14.5q19 0 30 -12.5t11 -30.5q0 -21 -14.5 -35.5t-35.5 -14.5q-19 0 -30 13zM338 573q-11 13 -11 30q0 21 14.5 35.5t35.5 14.5
q19 0 30 -12.5t11 -30.5q0 -21 -14.5 -35.5t-35.5 -14.5q-19 0 -30 13zM141.5 35q-46.5 44 -46.5 127v255q0 25 -6 33.5t-24 8.5l-27 -1l-2 3l6 39q11 0 40 -1t59 -1q22 0 51 2.5t38 3.5l-4 -40q-29 -4 -39 -13t-12 -31l-6 -229q0 -71 33 -109.5t95 -38.5q63 0 95.5 31.5
t32.5 91.5q0 62 -1.5 140.5t-2.5 110.5q-2 27 -7 34.5t-22 7.5l-34 -1l-1 3l6 39q10 0 37.5 -1t55.5 -1q23 0 49.5 2.5t34.5 3.5l-3 -40q-35 -5 -45 -13t-10 -30v-256q0 -83 -53.5 -128.5t-151.5 -45.5q-89 0 -135.5 44z" />
    <glyph glyph-name="uni01D9" unicode="&#x1d9;" horiz-adv-x="681" 
d="M165 45.5q-57 57.5 -57 163.5v331q0 32 -7.5 43t-29.5 11q-10 0 -20 -1t-14 -1l-2 4l7 44q12 -1 45.5 -2t67.5 -1q27 0 61 3.5t44 5.5l-4 -45q-37 -5 -49.5 -16.5t-14.5 -40.5l-8 -294q0 -99 43 -152t124 -53q82 0 125 43.5t43 125.5q-1 80 -3 182.5t-3 143.5
q-2 35 -8.5 44.5t-28.5 9.5q-12 0 -25 -1t-18 -1l-2 4l7 44q12 -1 45.5 -2t67.5 -1q27 0 57.5 3.5t39.5 5.5l-4 -45q-30 -4 -44.5 -9.5t-19.5 -16t-5 -31.5v-336q0 -105 -65 -162.5t-183 -57.5q-105 0 -162 57.5zM281.5 840.5q-42.5 34.5 -83.5 65.5l14 22l9 1
q67 -39 122 -65q52 24 122 65l9 -1l14 -22q-41 -31 -83.5 -65.5t-54.5 -45.5h-14q-12 11 -54.5 45.5zM225 713q-11 13 -11 30q0 21 14.5 35.5t35.5 14.5q19 0 30 -12.5t11 -30.5q0 -21 -14.5 -35.5t-35.5 -14.5q-19 0 -30 13zM391 713q-11 13 -11 30q0 21 14.5 35.5
t35.5 14.5q19 0 30 -12.5t11 -30.5q0 -21 -14.5 -35.5t-35.5 -14.5q-19 0 -30 13z" />
    <glyph glyph-name="uni01DA" unicode="&#x1da;" horiz-adv-x="575" 
d="M229.5 700.5q-42.5 34.5 -83.5 65.5l14 22l9 1q67 -39 122 -65q52 24 122 65l9 -1l14 -22q-41 -31 -83.5 -65.5t-54.5 -45.5h-14q-12 11 -54.5 45.5zM173 573q-11 13 -11 30q0 21 14.5 35.5t35.5 14.5q19 0 30 -12.5t11 -30.5q0 -21 -14.5 -35.5t-35.5 -14.5
q-19 0 -30 13zM339 573q-11 13 -11 30q0 21 14.5 35.5t35.5 14.5q19 0 30 -12.5t11 -30.5q0 -21 -14.5 -35.5t-35.5 -14.5q-19 0 -30 13zM141.5 35q-46.5 44 -46.5 127v255q0 25 -6 33.5t-24 8.5l-27 -1l-2 3l6 39q11 0 40 -1t59 -1q22 0 51 2.5t38 3.5l-4 -40
q-29 -4 -39 -13t-12 -31l-6 -229q0 -71 33 -109.5t95 -38.5q63 0 95.5 31.5t32.5 91.5q0 62 -1.5 140.5t-2.5 110.5q-2 27 -7 34.5t-22 7.5l-34 -1l-1 3l6 39q10 0 37.5 -1t55.5 -1q23 0 49.5 2.5t34.5 3.5l-3 -40q-35 -5 -45 -13t-10 -30v-256q0 -83 -53.5 -128.5
t-151.5 -45.5q-89 0 -135.5 44z" />
    <glyph glyph-name="uni01DB" unicode="&#x1db;" horiz-adv-x="681" 
d="M165 45.5q-57 57.5 -57 163.5v331q0 32 -7.5 43t-29.5 11q-10 0 -20 -1t-14 -1l-2 4l7 44q12 -1 45.5 -2t67.5 -1q27 0 61 3.5t44 5.5l-4 -45q-37 -5 -49.5 -16.5t-14.5 -40.5l-8 -294q0 -99 43 -152t124 -53q82 0 125 43.5t43 125.5q-1 80 -3 182.5t-3 143.5
q-2 35 -8.5 44.5t-28.5 9.5q-12 0 -25 -1t-18 -1l-2 4l7 44q12 -1 45.5 -2t67.5 -1q27 0 57.5 3.5t39.5 5.5l-4 -45q-30 -4 -44.5 -9.5t-19.5 -16t-5 -31.5v-336q0 -105 -65 -162.5t-183 -57.5q-105 0 -162 57.5zM314.5 864.5q-61.5 21.5 -78.5 27.5l-4 10l16 48l9 6
q18 -10 79 -44t120 -65l-6 -24l-8 -5q-66 25 -127.5 46.5zM225 713q-11 13 -11 30q0 21 14.5 35.5t35.5 14.5q19 0 30 -12.5t11 -30.5q0 -21 -14.5 -35.5t-35.5 -14.5q-19 0 -30 13zM391 713q-11 13 -11 30q0 21 14.5 35.5t35.5 14.5q19 0 30 -12.5t11 -30.5
q0 -21 -14.5 -35.5t-35.5 -14.5q-19 0 -30 13z" />
    <glyph glyph-name="uni01DC" unicode="&#x1dc;" horiz-adv-x="575" 
d="M263.5 724.5q-61.5 21.5 -78.5 27.5l-4 10l16 48l9 6q18 -10 79 -44t120 -65l-6 -24l-8 -5q-66 25 -127.5 46.5zM174 573q-11 13 -11 30q0 21 14.5 35.5t35.5 14.5q19 0 30 -12.5t11 -30.5q0 -21 -14.5 -35.5t-35.5 -14.5q-19 0 -30 13zM340 573q-11 13 -11 30
q0 21 14.5 35.5t35.5 14.5q19 0 30 -12.5t11 -30.5q0 -21 -14.5 -35.5t-35.5 -14.5q-19 0 -30 13zM141.5 35q-46.5 44 -46.5 127v255q0 25 -6 33.5t-24 8.5l-27 -1l-2 3l6 39q11 0 40 -1t59 -1q22 0 51 2.5t38 3.5l-4 -40q-29 -4 -39 -13t-12 -31l-6 -229q0 -71 33 -109.5
t95 -38.5q63 0 95.5 31.5t32.5 91.5q0 62 -1.5 140.5t-2.5 110.5q-2 27 -7 34.5t-22 7.5l-34 -1l-1 3l6 39q10 0 37.5 -1t55.5 -1q23 0 49.5 2.5t34.5 3.5l-3 -40q-35 -5 -45 -13t-10 -30v-256q0 -83 -53.5 -128.5t-151.5 -45.5q-89 0 -135.5 44z" />
    <glyph glyph-name="Gcaron" unicode="&#x1e6;" horiz-adv-x="667" 
d="M178 26q-66 38 -102 107.5t-36 163.5q0 103 44 183t124 124.5t183 44.5q37 0 80 -5.5t74 -11t40 -7.5l4 -6q-2 -6 -7 -29t-10.5 -60t-8.5 -78l-47 -4q1 5 2 19.5t1 34.5q0 46 -35.5 67t-115.5 21q-114 0 -177.5 -68.5t-63.5 -192.5q0 -87 28 -153t80 -102t120 -36
q36 0 66 8.5t50.5 18.5t20.5 11v122q0 34 -10.5 44t-44.5 10h-69l-2 4l9 50q12 -1 51 -2.5t76 -1.5q27 0 53 2t33 3l4 -22q-18 -15 -24.5 -47.5t-6.5 -106.5q0 -58 7 -88l-6 -9q0 -1 -35.5 -13.5t-87 -22.5t-107.5 -10q-88 0 -154 38zM311.5 749.5q-42.5 34.5 -83.5 65.5
l14 22l9 1q67 -39 122 -65q52 24 122 65l9 -1l14 -22q-41 -31 -83.5 -65.5t-54.5 -45.5h-14q-12 11 -54.5 45.5z" />
    <glyph glyph-name="gcaron" unicode="&#x1e7;" horiz-adv-x="566" 
d="M238.5 636.5q-44.5 50.5 -87.5 94.5l16 23l8 1q60 -52 128 -101q83 62 128 101l8 -1l16 -23q-43 -44 -87.5 -94.5t-57.5 -65.5h-14q-13 15 -57.5 65.5zM106.5 56.5q-65.5 65.5 -65.5 176.5q0 82 36 144t101.5 96t151.5 34q31 0 66.5 -4t61 -9t32.5 -6l4 -6
q-1 -5 -5.5 -23.5t-9 -48t-6.5 -62.5l-49 -4q0 4 1 15.5t1 26.5q0 35 -27 50.5t-88 15.5q-89 0 -136.5 -49.5t-47.5 -143.5q0 -101 47 -159.5t127 -58.5q28 0 51 6t36.5 12t16.5 8v88q0 25 -8.5 33t-34.5 8h-53l-2 4l8 44q4 0 37.5 -1t68.5 -1q23 0 45.5 1.5t28.5 2.5l4 -22
q-16 -12 -21.5 -37t-5.5 -86q0 -45 5 -68l-5 -8q-7 -3 -32.5 -11t-67.5 -15.5t-90 -7.5q-110 0 -175.5 65.5z" />
    <glyph glyph-name="uni01EA" unicode="&#x1ea;" horiz-adv-x="692" 
d="M173 27q-63 39 -98 109.5t-35 160.5q0 98 43.5 178.5t119 127t166.5 46.5q83 0 147 -39t100 -109t36 -160q0 -98 -44.5 -179t-121 -127.5t-169.5 -46.5q-81 0 -144 39zM460 72q49 33 76 92t27 135q0 85 -29 150.5t-80.5 102.5t-118.5 37q-61 0 -108.5 -33t-74 -92
t-26.5 -135q0 -85 28 -150.5t78.5 -102.5t115.5 -37q63 0 112 33zM308 -216q-31 25 -31 66q0 25 10 46t38 53t89 93h42q-49 -51 -73 -79.5t-33.5 -48t-9.5 -39.5q0 -26 15.5 -41.5t42.5 -15.5q17 0 39 6.5t38 16.5l13 -19q-21 -20 -49 -38t-51 -25q-49 0 -80 25z" />
    <glyph glyph-name="uni01EB" unicode="&#x1eb;" horiz-adv-x="585" 
d="M496.5 107q-47.5 -69 -125.5 -99q-50 -53 -67 -80t-17 -53t15.5 -41.5t42.5 -15.5q17 0 39 6.5t38 16.5l13 -19q-21 -20 -49 -38t-51 -25q-49 0 -80 25t-31 66q0 31 17 59t73 85q-21 -3 -43 -3q-68 0 -120.5 30t-81 85t-28.5 127q0 78 35.5 140.5t97 98t137.5 35.5
q69 0 122 -30t82 -84.5t29 -126.5q0 -90 -47.5 -159zM147 144q21 -50 59.5 -77.5t88.5 -27.5q73 0 118 52.5t45 139.5q0 66 -21.5 116t-61 77t-91.5 27q-71 0 -114.5 -52t-43.5 -139q0 -66 21 -116z" />
    <glyph glyph-name="Aringacute" unicode="&#x1fa;" horiz-adv-x="584" 
d="M329 -3l4 39q51 4 70 12t19 26q0 20 -9 48l-33 109q-24 1 -104 1q-48 0 -109 -8l-37 -104q-9 -27 -9 -39q0 -22 14 -31.5t46 -9.5h57l2 -4l-6 -43q-12 1 -55 4t-84 3q-37 0 -68.5 -1t-41.5 -2l8 47q28 3 45 19.5t33 57.5l195 511l63 17h8q6 -24 30.5 -111t60 -206
t68.5 -219q12 -37 32 -52t64 -19l2 -4l-7 -41q-12 0 -43.5 1.5t-62.5 1.5q-48 0 -92.5 -4t-56.5 -6zM273 273q36 0 93 5l-79 262h-7l-95 -267h88zM259.74 688.097q-18.0205 19.8223 -18.0205 52.2578q0 33.3369 20.7227 54.5107q20.7236 21.1738 54.9619 21.1738
q34.2373 0 51.8066 -19.8223q17.5703 -19.8223 17.5703 -48.6543q0 -32.4355 -20.7236 -55.8613q-20.7227 -23.4268 -55.8623 -23.4268q-32.4355 0 -50.4551 19.8223zM356.146 737.651q0 19.8223 -12.1631 31.5352t-33.7881 11.7129q-18.9209 0 -29.2822 -9.45996
q-10.3613 -9.46094 -10.3613 -25.6787q0 -21.624 14.416 -32.4365q14.416 -10.8115 31.5352 -10.8115q39.6436 0 39.6436 35.1387zM229.71 822.174l-5.40039 21.5996q53.0986 27.8984 107.996 58.4971t71.0967 39.5986l8.09961 -5.39941l14.3994 -43.1982l-3.59961 -9
q-15.2988 -5.39941 -70.6465 -24.749q-55.3486 -19.3486 -114.746 -41.8486z" />
    <glyph glyph-name="aringacute" unicode="&#x1fb;" horiz-adv-x="510" 
d="M177 682l-6 22q53 28 108.5 58.5t71.5 39.5l8 -6l14 -43l-4 -9q-16 -5 -71 -24.5t-114 -41.5zM190.5 549q-18.5 20 -18.5 52q0 33 21 54.5t55 21.5q35 0 52 -20t17 -49q0 -32 -20.5 -55.5t-55.5 -23.5q-32 0 -50.5 20zM287 598q0 20 -12 32t-34 12q-19 0 -29.5 -9.5
t-10.5 -25.5q0 -22 14.5 -33t31.5 -11q40 0 40 35zM281 -2l3 36q42 3 56.5 9t14.5 20q0 16 -7 34l-24 77q-20 1 -83 1q-29 0 -86 -6l-28 -74q-7 -23 -7 -28q0 -16 11 -23t36 -7h43l3 -4l-6 -38q-10 1 -45.5 3t-69.5 2q-32 0 -57.5 -1t-34.5 -1l6 41q22 3 35 15.5t26 42.5
l157 397l71 13l7 -1q0 -4 45.5 -158t81.5 -255q10 -29 25.5 -40.5t49.5 -14.5l2 -4l-5 -36q-10 0 -37 1t-54 1q-41 0 -78 -3t-48 -4zM239 216q35 0 73 4l-61 194h-7l-73 -198h68z" />
    <glyph glyph-name="AEacute" unicode="&#x1fc;" horiz-adv-x="810" 
d="M362 44q20 5 28 14.5t8 28.5q0 18 -3 38.5t-4 27.5l-18 123l-99 -8l-91 -10l-71 -138q-16 -31 -16 -46q0 -34 55 -34h57l-5 -47q-13 1 -55.5 4t-82.5 3q-20 0 -40 -1.5t-28 -2.5l-7 35q3 3 12.5 14.5t23.5 31.5t27 44l247 457q-4 16 -25 16q-10 0 -20 -1t-14 -1l-2 4
l7 44h23q81 -3 136 -3q120 0 186.5 2.5t111.5 9.5l3 -6q-1 -6 -5.5 -28.5t-9.5 -59.5t-8 -78l-48 -4q0 5 1 17.5t1 25.5q0 35 -9.5 48.5t-40.5 18t-107 4.5q-33 0 -46.5 -2t-18 -8t-5.5 -21l31 -228l118 11l92 13l4 -5l-13 -53l-86 -3l-109 -9l28 -169q6 -38 24.5 -53
t59.5 -15q77 0 110 8t46.5 32t21.5 82l44 5l3 -5q-3 -14 -12 -64.5t-15 -103.5l-5 -6l-50 1q-114 6 -219 6h-34q-48 0 -92 -4t-56 -6l-2 7l2 39q41 3 61 8zM367 321l-30 218h-9l-118 -229l84 5zM367 708l-6 24q59 31 120 65t79 44l9 -6l16 -48l-4 -10q-17 -6 -78.5 -27.5
t-127.5 -46.5z" />
    <glyph glyph-name="aeacute" unicode="&#x1fd;" horiz-adv-x="699" 
d="M372 568l-20 19q45 49 91 103t59 70l10 -2l38 -41l-1 -11q-15 -11 -65.5 -52t-102.5 -88zM323.5 45.5q14.5 7.5 14.5 27.5q0 12 -2 26.5t-3 20.5l-13 88l-79 -6l-73 -10l-53 -97q-12 -23 -12 -34q0 -13 10.5 -18.5t34.5 -5.5l42 -1l-5 -41q-11 1 -49 3t-70 2
q-17 0 -34 -1t-23 -2l-5 34q3 0 19.5 20t31.5 46l195 348q-2 8 -7 11t-14 3l-27 -1l-3 4l6 38h28q52 -2 120 -2q179 0 249 9l3 -5q-2 -11 -9 -50t-10 -84l-48 -4q0 4 1 13.5t1 19.5q0 26 -8 36.5t-32 14t-83 3.5q-25 0 -35.5 -1.5t-14 -6.5t-4.5 -16l24 -166l92 9l77 12
l4 -6l-10 -49l-72 -3l-85 -7l21 -121q5 -29 20 -41t46 -12q60 0 85.5 6t36.5 24.5t17 63.5l45 4l3 -5q-3 -11 -10.5 -51.5t-11.5 -84.5l-5 -5l-48 1q-98 4 -178 4h-29q-40 0 -76.5 -3t-46.5 -4l-2 5l2 36q47 4 61.5 11.5zM314 252l-23 161h-8l-91 -170l65 4z" />
    <glyph glyph-name="Oslashacute" unicode="&#x1fe;" horiz-adv-x="692" 
d="M614.5 504q37.5 -71 37.5 -163q0 -98 -44.5 -179t-121 -127.5t-169.5 -46.5q-67 0 -121 27l-60 -113l-27 6l-2 10l59 113q-59 40 -92.5 109t-33.5 157q0 98 43.5 178.5t119 127t166.5 46.5q58 0 109 -20l42 79l29 -7l3 -12l-41 -76q66 -38 103.5 -109zM146 200
q20 -58 57 -98l239 458q-47 29 -107 29q-61 0 -108.5 -33t-74 -92t-26.5 -135q0 -71 20 -129zM460 72q49 33 76 92t27 135q0 77 -24 139t-68 100l-241 -460q51 -39 118 -39q63 0 112 33zM262 707l-6 24q59 31 120 65t79 44l9 -6l16 -48l-4 -10q-17 -6 -78.5 -27.5
t-127.5 -46.5z" />
    <glyph glyph-name="oslashacute" unicode="&#x1ff;" horiz-adv-x="585" 
d="M214 568l-20 19q45 49 91 103t59 70l10 -2l38 -41l-1 -11q-15 -11 -65 -52t-103 -88zM515 393q29 -55 29 -127q0 -78 -35.5 -140.5t-98 -98.5t-139.5 -36q-58 0 -103 21l-51 -89l-25 7l-2 8l50 89q-47 31 -73 84.5t-26 121.5q0 78 35.5 140.5t97 98t137.5 35.5
q47 0 92 -16l35 62l27 -8l2 -10l-34 -58q53 -29 82 -84zM169.5 399q-43.5 -52 -43.5 -139q0 -106 52 -167l190 336q-38 22 -84 22q-71 0 -114.5 -52zM413 91.5q45 52.5 45 139.5q0 58 -17 103.5t-47 74.5l-192 -339q40 -31 93 -31q73 0 118 52.5z" />
    <glyph glyph-name="uni0200" unicode="&#x200;" horiz-adv-x="584" 
d="M329 -3l4 39q51 4 70 12t19 26q0 20 -9 48l-33 109q-24 1 -104 1q-48 0 -109 -8l-37 -104q-9 -27 -9 -39q0 -22 14 -31.5t46 -9.5h57l2 -4l-6 -43q-12 1 -55 4t-84 3q-37 0 -68.5 -1t-41.5 -2l8 47q28 3 45 19.5t33 57.5l195 511l63 17h8q6 -24 30.5 -111t60 -206
t68.5 -219q12 -37 32 -52t64 -19l2 -4l-7 -41q-12 0 -43.5 1.5t-62.5 1.5q-48 0 -92.5 -4t-56.5 -6zM273 273q36 0 93 5l-79 262h-7l-95 -267h88zM305 738.5q-49 25.5 -63 32.5l-3 9l22 43l9 4q14 -11 61 -47.5t92 -69.5l-9 -21l-8 -5q-52 29 -101 54.5zM165 729.5
q-49 25.5 -63 32.5l-3 9l22 42l9 5q14 -11 56.5 -44t96.5 -74l-10 -21l-7 -4q-52 29 -101 54.5z" />
    <glyph glyph-name="uni0201" unicode="&#x201;" horiz-adv-x="510" 
d="M148.5 655q-46.5 35 -59.5 45l-2 9l33 38l9 3q13 -14 56 -61.5t84 -89.5l-16 -18l-9 -2q-49 41 -95.5 76zM276.5 655q-46.5 35 -59.5 45l-2 9l33 38l9 3q13 -14 56 -61.5t84 -89.5l-16 -18l-9 -2q-49 41 -95.5 76zM281 -2l3 36q42 3 56.5 9t14.5 20q0 16 -7 34l-24 77
q-20 1 -83 1q-29 0 -86 -6l-28 -74q-7 -23 -7 -28q0 -16 11 -23t36 -7h43l3 -4l-6 -38q-10 1 -45.5 3t-69.5 2q-32 0 -57.5 -1t-34.5 -1l6 41q22 3 35 15.5t26 42.5l157 397l71 13l7 -1q0 -4 45.5 -158t81.5 -255q10 -29 25.5 -40.5t49.5 -14.5l2 -4l-5 -36q-10 0 -37 1
t-54 1q-41 0 -78 -3t-48 -4zM239 216q35 0 73 4l-61 194h-7l-73 -198h68z" />
    <glyph glyph-name="uni0202" unicode="&#x202;" horiz-adv-x="584" 
d="M329 -3l4 39q51 4 70 12t19 26q0 20 -9 48l-33 109q-24 1 -104 1q-48 0 -109 -8l-37 -104q-9 -27 -9 -39q0 -22 14 -31.5t46 -9.5h57l2 -4l-6 -43q-12 1 -55 4t-84 3q-37 0 -68.5 -1t-41.5 -2l8 47q28 3 45 19.5t33 57.5l195 511l63 17h8q6 -24 30.5 -111t60 -206
t68.5 -219q12 -37 32 -52t64 -19l2 -4l-7 -41q-12 0 -43.5 1.5t-62.5 1.5q-48 0 -92.5 -4t-56.5 -6zM273 273q36 0 93 5l-79 262h-7l-95 -267h88zM234 772q-26 -17 -38 -49h-8l-16 10q12 48 42 81t78 33t78 -33t42 -81l-16 -10h-8q-12 32 -38 49t-58 17t-58 -17z" />
    <glyph glyph-name="uni0203" unicode="&#x203;" horiz-adv-x="510" 
d="M197 632q-26 -17 -38 -49h-8l-16 10q12 48 42 81t78 33t78 -33t42 -81l-16 -10h-8q-12 32 -38 49t-58 17t-58 -17zM281 -2l3 36q42 3 56.5 9t14.5 20q0 16 -7 34l-24 77q-20 1 -83 1q-29 0 -86 -6l-28 -74q-7 -23 -7 -28q0 -16 11 -23t36 -7h43l3 -4l-6 -38
q-10 1 -45.5 3t-69.5 2q-32 0 -57.5 -1t-34.5 -1l6 41q22 3 35 15.5t26 42.5l157 397l71 13l7 -1q0 -4 45.5 -158t81.5 -255q10 -29 25.5 -40.5t49.5 -14.5l2 -4l-5 -36q-10 0 -37 1t-54 1q-41 0 -78 -3t-48 -4zM239 216q35 0 73 4l-61 194h-7l-73 -198h68z" />
    <glyph glyph-name="uni0204" unicode="&#x204;" horiz-adv-x="591" 
d="M532 167q-17 -81 -27 -168l-5 -6q-210 7 -303 7q-74 0 -139 -10l6 46q45 6 61.5 23.5t16.5 60.5l1 420q0 32 -7.5 43t-29.5 11l-34 -2l-2 4l7 44q102 -3 139 -3q119 0 185 2.5t115 9.5l3 -6q-18 -79 -23 -166l-48 -4l2 43q0 35 -9 48.5t-39 18t-105 4.5q-35 0 -48 -2
t-17 -9.5t-5 -27.5l-8 -194l103 -1q39 0 122 11l4 -5l-14 -59q-111 3 -140 3q-33 0 -77 -7l-4 -191q0 -29 5 -40.5t20.5 -15.5t53.5 -4q84 0 119.5 8t50.5 32t23 82l44 5zM339 748.5q-49 25.5 -63 32.5l-3 9l22 43l9 4q14 -11 61 -47.5t92 -69.5l-9 -21l-8 -5
q-52 29 -101 54.5zM199 739.5q-49 25.5 -63 32.5l-3 9l22 42l9 5q14 -11 56.5 -44t96.5 -74l-10 -21l-7 -4q-52 29 -101 54.5z" />
    <glyph glyph-name="uni0205" unicode="&#x205;" horiz-adv-x="508" 
d="M149.5 655q-46.5 35 -59.5 45l-2 9l33 38l9 3q13 -14 56 -61t84 -90l-16 -18l-9 -2q-49 41 -95.5 76zM277.5 655q-46.5 35 -59.5 45l-2 9l33 38l9 3q13 -14 56 -61t84 -90l-16 -18l-9 -2q-49 41 -95.5 76zM59 34q37 4 50 18t13 48l1 317q0 25 -6 33.5t-24 8.5l-27 -1
l-2 4l6 38q12 0 47 -1t76 -1q167 0 247 9l3 -5q-2 -11 -9 -50t-10 -84l-48 -4q0 4 1 13.5t1 19.5q0 26 -7.5 36.5t-31 14t-81.5 3.5q-27 0 -37 -1.5t-13 -7t-4 -20.5l-6 -142l82 -1q18 0 53 3.5t46 4.5l4 -5l-12 -52q-11 0 -43.5 1t-68.5 1q-28 0 -63 -5q-3 -76 -3 -137
q0 -23 3.5 -32t16 -12t41.5 -3q65 0 93 6t39.5 24.5t18.5 63.5l44 4l4 -5q-3 -11 -10.5 -51.5t-11.5 -84.5l-6 -5q-27 1 -112 3t-138 2q-41 0 -76 -3.5l-45 -4.5z" />
    <glyph glyph-name="uni0206" unicode="&#x206;" horiz-adv-x="591" 
d="M532 167q-17 -81 -27 -168l-5 -6q-210 7 -303 7q-74 0 -139 -10l6 46q45 6 61.5 23.5t16.5 60.5l1 420q0 32 -7.5 43t-29.5 11l-34 -2l-2 4l7 44q102 -3 139 -3q119 0 185 2.5t115 9.5l3 -6q-18 -79 -23 -166l-48 -4l2 43q0 35 -9 48.5t-39 18t-105 4.5q-35 0 -48 -2
t-17 -9.5t-5 -27.5l-8 -194l103 -1q39 0 122 11l4 -5l-14 -59q-111 3 -140 3q-33 0 -77 -7l-4 -191q0 -29 5 -40.5t20.5 -15.5t53.5 -4q84 0 119.5 8t50.5 32t23 82l44 5zM268 782q-26 -17 -38 -49h-8l-16 10q12 48 42 81t78 33t78 -33t42 -81l-16 -10h-8q-12 32 -38 49
t-58 17t-58 -17z" />
    </font>
</defs>
</svg>
